<svg xmlns="http://www.w3.org/2000/svg" xmlns:xlink="http://www.w3.org/1999/xlink" xmlns:lucid="lucid" width="1091" height="1512"><g transform="translate(-109.5 486.6666666666667)" lucid:page-tab-id="0_0"><path d="M0-500h1500v2000H0z" fill="#fff"/><path d="M130-460.17a6 6 0 0 1 6-6h288a6 6 0 0 1 6 6v284a6 6 0 0 1-6 6H136a6 6 0 0 1-6-6z" stroke="#3a414a" fill="#fff"/><path d="M130-424.3h300" stroke="#3a414a" fill="none"/><use xlink:href="#a" transform="matrix(1,0,0,1,138,-458.1666666666667) translate(75.10546875 20.69314236111111)"/><use xlink:href="#b" transform="matrix(1,0,0,1,142,-416.29861111111114) translate(0 101.32508680555554)"/><use xlink:href="#c" transform="matrix(1,0,0,1,142,-416.29861111111114) translate(26.7578125 101.32508680555554)"/><use xlink:href="#b" transform="matrix(1,0,0,1,142,-416.29861111111114) translate(0 127.1931423611111)"/><use xlink:href="#d" transform="matrix(1,0,0,1,142,-416.29861111111114) translate(26.7578125 127.1931423611111)"/><use xlink:href="#e" transform="matrix(1,0,0,1,142,-416.29861111111114) translate(0 153.06119791666666)"/><path d="M130 139.83a6 6 0 0 1 6-6h288a6 6 0 0 1 6 6v288a6 6 0 0 1-6 6H136a6 6 0 0 1-6-6z" stroke="#3a414a" fill="#fff"/><path d="M130 175.7h300" stroke="#3a414a" fill="none"/><use xlink:href="#f" transform="matrix(1,0,0,1,138,141.83333333333331) translate(68.416015625 20.69314236111111)"/><use xlink:href="#g" transform="matrix(1,0,0,1,142,183.70138888888886) translate(4.421657986111111 77.45703125)"/><use xlink:href="#h" transform="matrix(1,0,0,1,142,183.70138888888886) translate(22.22222222222222 77.45703125)"/><use xlink:href="#g" transform="matrix(1,0,0,1,142,183.70138888888886) translate(4.421657986111111 103.32508680555556)"/><use xlink:href="#i" transform="matrix(1,0,0,1,142,183.70138888888886) translate(22.22222222222222 103.32508680555556)"/><use xlink:href="#g" transform="matrix(1,0,0,1,142,183.70138888888886) translate(4.421657986111111 129.19314236111111)"/><use xlink:href="#j" transform="matrix(1,0,0,1,142,183.70138888888886) translate(22.22222222222222 129.19314236111111)"/><use xlink:href="#g" transform="matrix(1,0,0,1,142,183.70138888888886) translate(4.421657986111111 155.06119791666666)"/><use xlink:href="#k" transform="matrix(1,0,0,1,142,183.70138888888886) translate(22.22222222222222 155.06119791666666)"/><use xlink:href="#g" transform="matrix(1,0,0,1,142,183.70138888888886) translate(4.421657986111111 180.92925347222223)"/><use xlink:href="#l" transform="matrix(1,0,0,1,142,183.70138888888886) translate(22.22222222222222 180.92925347222223)"/><path d="M130 739.83a6 6 0 0 1 6-6h288a6 6 0 0 1 6 6v259a6 6 0 0 1-6 6H136a6 6 0 0 1-6-6z" stroke="#3a414a" fill="#fff"/><path d="M130 775.7h300" stroke="#3a414a" fill="none"/><use xlink:href="#m" transform="matrix(1,0,0,1,138,741.8333333333333) translate(68.416015625 20.69314236111111)"/><use xlink:href="#g" transform="matrix(1,0,0,1,142,783.7013888888888) translate(4.421657986111111 101.25911458333333)"/><use xlink:href="#n" transform="matrix(1,0,0,1,142,783.7013888888888) translate(22.22222222222222 101.25911458333333)"/><use xlink:href="#g" transform="matrix(1,0,0,1,142,783.7013888888888) translate(4.421657986111111 127.12717013888889)"/><use xlink:href="#o" transform="matrix(1,0,0,1,142,783.7013888888888) translate(22.22222222222222 127.12717013888889)"/><path d="M880-460.17a6 6 0 0 1 6-6h288a6 6 0 0 1 6 6v284a6 6 0 0 1-6 6H886a6 6 0 0 1-6-6z" stroke="#3a414a" fill="#fff"/><path d="M880-424.3h300" stroke="#3a414a" fill="none"/><use xlink:href="#p" transform="matrix(1,0,0,1,888,-458.1666666666667) translate(48.34765625 20.69314236111111)"/><use xlink:href="#g" transform="matrix(1,0,0,1,892,-416.29861111111114) translate(4.421657986111111 101.32508680555554)"/><use xlink:href="#q" transform="matrix(1,0,0,1,892,-416.29861111111114) translate(22.22222222222222 101.32508680555554)"/><use xlink:href="#g" transform="matrix(1,0,0,1,892,-416.29861111111114) translate(4.421657986111111 127.1931423611111)"/><use xlink:href="#r" transform="matrix(1,0,0,1,892,-416.29861111111114) translate(22.22222222222222 127.1931423611111)"/><use xlink:href="#g" transform="matrix(1,0,0,1,892,-416.29861111111114) translate(4.421657986111111 153.06119791666666)"/><use xlink:href="#s" transform="matrix(1,0,0,1,892,-416.29861111111114) translate(22.22222222222222 153.06119791666666)"/><path d="M880 739.83a6 6 0 0 1 6-6h288a6 6 0 0 1 6 6v259a6 6 0 0 1-6 6H886a6 6 0 0 1-6-6z" stroke="#3a414a" fill="#fff"/><path d="M880 775.7h300" stroke="#3a414a" fill="none"/><use xlink:href="#t" transform="matrix(1,0,0,1,888,741.8333333333333) translate(75.10546875 20.69314236111111)"/><use xlink:href="#g" transform="matrix(1,0,0,1,892,783.7013888888888) translate(4.421657986111111 101.25911458333333)"/><use xlink:href="#u" transform="matrix(1,0,0,1,892,783.7013888888888) translate(22.22222222222222 101.25911458333333)"/><use xlink:href="#g" transform="matrix(1,0,0,1,892,783.7013888888888) translate(4.421657986111111 127.12717013888889)"/><use xlink:href="#v" transform="matrix(1,0,0,1,892,783.7013888888888) translate(22.22222222222222 127.12717013888889)"/><path d="M431-318.17h448" stroke="#3a414a" fill="none"/><path d="M431-317.67h-.5v-1h.5zM879.5-317.67h-.5v-1h.5z" stroke="#3a414a" stroke-width=".05" fill="#3a414a"/><use xlink:href="#w" transform="matrix(1,0,0,1,430.367819179595,-348.03472222222223) translate(0 20.62717013888889)"/><use xlink:href="#x" transform="matrix(1,0,0,1,825.7117928735331,-348.03472222222223) translate(0 20.62717013888889)"/><use xlink:href="#y" transform="matrix(1,0,0,1,568.037109375,-348.03472222222223) translate(0 20.62717013888889)"/><path d="M280-166.67v299.5M280-166.66v-.5" stroke="#3a414a" fill="none"/><path d="M280.5 133.33h-1v-.5h1z" stroke="#3a414a" stroke-width=".05" fill="#3a414a"/><use xlink:href="#z" transform="matrix(1,0,0,1,151.58984375,-29.854127717301886) translate(0 20.62717013888889)"/><use xlink:href="#A" transform="matrix(1,0,0,1,288,-172.6310360609024) translate(0 20.62717013888889)"/><use xlink:href="#A" transform="matrix(1,0,0,1,288,107.39935555555564) translate(0 20.62717013888889)"/><path d="M280 434.83v298" stroke="#3a414a" fill="none"/><path d="M280.5 434.85h-1v-.52h1zM280.5 733.33h-1v-.5h1z" stroke="#3a414a" stroke-width=".05" fill="#3a414a"/><use xlink:href="#x" transform="matrix(1,0,0,1,288,436.35365590705993) translate(0 20.62717013888889)"/><use xlink:href="#B" transform="matrix(1,0,0,1,288,707.3993555555555) translate(0 20.62717013888889)"/><use xlink:href="#C" transform="matrix(1,0,0,1,288,570.8993055555554) translate(0 20.62717013888889)"/><path d="M431 869.33h448" stroke="#3a414a" fill="none"/><path d="M431 869.83h-.5v-1h.5zM879.5 869.83h-.5v-1h.5z" stroke="#3a414a" stroke-width=".05" fill="#3a414a"/><g><use xlink:href="#x" transform="matrix(1,0,0,1,458.0139951952805,839.4652777777777) translate(0 20.62717013888889)"/></g><g><use xlink:href="#x" transform="matrix(1,0,0,1,825.7662476079917,839.4652777777777) translate(0 20.62717013888889)"/></g><g><use xlink:href="#D" transform="matrix(1,0,0,1,534.58984375,839.4652777777777) translate(0 20.62717013888889)"/></g><path d="M880 139.83a6 6 0 0 1 6-6h288a6 6 0 0 1 6 6v288a6 6 0 0 1-6 6H886a6 6 0 0 1-6-6z" stroke="#3a414a" fill="#fff"/><path d="M880 175.7h300" stroke="#3a414a" fill="none"/><g><use xlink:href="#E" transform="matrix(1,0,0,1,888,141.83333333333331) translate(75.10546875 20.69314236111111)"/></g><g><use xlink:href="#g" transform="matrix(1,0,0,1,892,183.70138888888886) translate(4.421657986111111 77.45703125)"/><use xlink:href="#F" transform="matrix(1,0,0,1,892,183.70138888888886) translate(22.22222222222222 77.45703125)"/><use xlink:href="#g" transform="matrix(1,0,0,1,892,183.70138888888886) translate(4.421657986111111 103.32508680555556)"/><use xlink:href="#G" transform="matrix(1,0,0,1,892,183.70138888888886) translate(22.22222222222222 103.32508680555556)"/><use xlink:href="#g" transform="matrix(1,0,0,1,892,183.70138888888886) translate(4.421657986111111 129.19314236111111)"/><use xlink:href="#H" transform="matrix(1,0,0,1,892,183.70138888888886) translate(22.22222222222222 129.19314236111111)"/><use xlink:href="#g" transform="matrix(1,0,0,1,892,183.70138888888886) translate(4.421657986111111 155.06119791666666)"/><use xlink:href="#I" transform="matrix(1,0,0,1,892,183.70138888888886) translate(22.22222222222222 155.06119791666666)"/><use xlink:href="#g" transform="matrix(1,0,0,1,892,183.70138888888886) translate(4.421657986111111 180.92925347222223)"/><use xlink:href="#J" transform="matrix(1,0,0,1,892,183.70138888888886) translate(22.22222222222222 180.92925347222223)"/></g><path d="M879 283.83H431" stroke="#3a414a" fill="none"/><path d="M879.5 284.33h-.5v-1h.5zM431 284.33h-.5v-1h.5z" stroke="#3a414a" stroke-width=".05" fill="#3a414a"/><g><use xlink:href="#x" transform="matrix(1,0,0,1,825.7422375,253.96527777777777) translate(0 20.62717013888889)"/></g><g><use xlink:href="#x" transform="matrix(1,0,0,1,434.3069396678663,253.96527777777777) translate(0 20.62717013888889)"/></g><g><use xlink:href="#K" transform="matrix(1,0,0,1,594.794921875,253.96527777777777) translate(0 20.62717013888889)"/></g><path d="M1030 132.83v-145a6 6 0 0 0-6-6H396.1a6 6 0 0 1-6-6v-145" stroke="#3a414a" fill="none"/><path d="M1030.5 133.33h-1v-.5h1zM390.6-169.15h-1v-.52h1z" stroke="#3a414a" stroke-width=".05" fill="#3a414a"/><g><use xlink:href="#L" transform="matrix(1,0,0,1,568.7222277382247,-48.034736751842516) translate(0 20.62717013888889)"/></g><g><use xlink:href="#x" transform="matrix(1,0,0,1,1038,107.39935555555553) translate(0 20.62717013888889)"/></g><g><use xlink:href="#M" transform="matrix(1,0,0,1,398.11218016091334,-162.80316277861243) translate(0 20.62717013888889)"/></g><path d="M280-169.17v3.97" stroke="#3a414a" fill="none"/><path d="M280.5-169.15h-1v-.52h1z" stroke="#3a414a" stroke-width=".05" fill="#3a414a"/><path d="M280-165.2v.5" stroke="#3a414a" fill="none"/><defs><path d="M698-203c169-2 281-50 404-121v269C974-3 842 28 670 29 296 31 92-181 92-555c0-348 195-592 533-592s528 218 524 563v119H390c3 185 114 264 308 262zm156-482c-2-151-77-235-229-235-144 1-220 97-232 236" id="N"/><path d="M1145-1120L768-584 1178 0H836L616-377 397 0H55l414-584-381-536h342l186 334 187-334h342" id="O"/><path d="M449-1063h333v365H449v-365zm0 696h333V0H449v-367" id="P"/><path d="M764 0H469v-1235H90v-258h1053v258H764V0" id="Q"/><path d="M842-559c0-188-62-350-226-350-163 0-225 163-225 350s62 350 225 350c164 0 226-162 226-350zM616 29C289 29 98-219 98-559s191-588 518-588c328 0 519 248 519 588 0 341-191 588-519 588" id="R"/><path d="M1153-1120L797 0H436L80-1120h297l239 874 240-874h297" id="S"/><path d="M573-174c177-3 250-155 244-352H700c-189 5-288 22-294 186-4 100 66 168 167 166zm41-973c376 0 494 126 494 508V0H817v-125C754-35 643 28 498 29 250 32 90-110 94-354c5-293 200-382 520-383h203c15-144-66-195-203-193-171 2-284 44-409 111v-250c121-50 246-78 409-78zm138-491h282l-368 376H469" id="T"/><path d="M924-1147c90 1 165 23 227 57v279c-80-87-287-118-417-55-120 58-150 157-150 350V0H291v-1120h293v174c52-120 173-201 340-201" id="U"/><path d="M750-1147c234 0 322 167 321 420V0H780v-682c-2-141-23-227-147-227-123 0-170 126-170 268V0H172v-1120h291v168c37-116 138-195 287-195" id="V"/><path d="M573-174c177-3 250-155 244-352H700c-189 5-288 22-294 186-4 100 66 168 167 166zm41-973c376 0 494 126 494 508V0H817v-125C754-35 643 28 498 29 250 32 90-110 94-354c5-293 200-382 520-383h203c15-144-66-195-203-193-171 2-284 44-409 111v-250c121-50 246-78 409-78" id="W"/><g id="a"><use transform="matrix(0.010850694444444444,0,0,0.010850694444444444,0,0)" xlink:href="#N"/><use transform="matrix(0.010850694444444444,0,0,0.010850694444444444,13.37890625,0)" xlink:href="#O"/><use transform="matrix(0.010850694444444444,0,0,0.010850694444444444,26.7578125,0)" xlink:href="#P"/><use transform="matrix(0.010850694444444444,0,0,0.010850694444444444,40.13671875,0)" xlink:href="#Q"/><use transform="matrix(0.010850694444444444,0,0,0.010850694444444444,53.515625,0)" xlink:href="#R"/><use transform="matrix(0.010850694444444444,0,0,0.010850694444444444,66.89453125,0)" xlink:href="#S"/><use transform="matrix(0.010850694444444444,0,0,0.010850694444444444,80.2734375,0)" xlink:href="#T"/><use transform="matrix(0.010850694444444444,0,0,0.010850694444444444,93.65234375,0)" xlink:href="#U"/><use transform="matrix(0.010850694444444444,0,0,0.010850694444444444,107.03125,0)" xlink:href="#V"/><use transform="matrix(0.010850694444444444,0,0,0.010850694444444444,120.41015625,0)" xlink:href="#W"/></g><path d="M356-643h521v164H356v-164" id="X"/><use transform="matrix(0.010850694444444444,0,0,0.010850694444444444,0,0)" xlink:href="#X" id="b"/><path d="M651-1147c298 0 466 229 461 541v90H315c-4 242 129 392 365 389 156-2 268-51 389-113v183C949-8 828 27 678 29c-351 3-555-232-555-588 0-338 200-588 528-588zm277 487c-4-201-91-331-285-331-193 0-305 144-321 332" id="Y"/><path d="M1118-1120L717-584 1157 0H944L616-449 289 0H76l440-584-401-536h204l297 405 295-405h207" id="Z"/><path d="M489-1063h252v303H489v-303zm0 758h252V0H489v-305" id="aa"/><path d="M711-1147c253 0 340 178 340 453V0H866v-694c-1-183-51-293-219-293-189 0-268 148-268 354V0H195v-1120h184v168c60-118 165-195 332-195" id="ab"/><path d="M547-125c229-2 340-186 327-438H641c-189 0-321 55-324 225-3 137 91 215 230 213zm-332-944c167-71 431-115 615-37 106 45 186 120 213 246 11 49 16 123 16 221V0H874v-166C800-42 695 26 508 29c-220 3-378-138-375-355 4-274 199-382 494-381h247c6-204-80-285-282-284-149 1-272 46-377 106v-184zm541-569h198l-325 376H475" id="ac"/><path d="M227-1122h813v168L397-150h643V0H203v-170l643-805H227v-147" id="ad"/><path d="M100-1120h191l325 940 326-940h191L735 0H498" id="ae"/><path d="M47-1493h1139v170H719V0H516v-1323H47v-170" id="af"/><path d="M616-991c-93 0-161 39-212 109-92 126-92 520 0 646 52 70 119 109 212 109 94 0 161-39 213-109 93-126 92-520 0-646-52-70-119-109-213-109zM137-559c0-353 146-588 479-588s480 235 480 588c0 355-145 588-480 588-334 0-479-234-479-588" id="ag"/><path d="M915-1147c102 0 174 26 240 70v188c-71-55-140-88-254-88-243 0-354 165-354 420V0H362v-1120h185v219c55-146 178-246 368-246" id="ah"/><path d="M1153-1120C1010-750 884-433 741-52c-66 176-110 283-133 322-55 94-138 156-276 156H184V272c97 0 188 7 236-47 29-33 70-112 117-243L104-1120h195l332 876 327-876h195" id="ai"/><g id="c"><use transform="matrix(0.010850694444444444,0,0,0.010850694444444444,0,0)" xlink:href="#Y"/><use transform="matrix(0.010850694444444444,0,0,0.010850694444444444,13.37890625,0)" xlink:href="#Z"/><use transform="matrix(0.010850694444444444,0,0,0.010850694444444444,26.7578125,0)" xlink:href="#aa"/><use transform="matrix(0.010850694444444444,0,0,0.010850694444444444,40.13671875,0)" xlink:href="#ab"/><use transform="matrix(0.010850694444444444,0,0,0.010850694444444444,53.515625,0)" xlink:href="#ac"/><use transform="matrix(0.010850694444444444,0,0,0.010850694444444444,66.89453125,0)" xlink:href="#ad"/><use transform="matrix(0.010850694444444444,0,0,0.010850694444444444,80.2734375,0)" xlink:href="#Y"/><use transform="matrix(0.010850694444444444,0,0,0.010850694444444444,93.65234375,0)" xlink:href="#ae"/><use transform="matrix(0.010850694444444444,0,0,0.010850694444444444,107.03125,0)" xlink:href="#af"/><use transform="matrix(0.010850694444444444,0,0,0.010850694444444444,120.41015625,0)" xlink:href="#ag"/><use transform="matrix(0.010850694444444444,0,0,0.010850694444444444,133.7890625,0)" xlink:href="#ae"/><use transform="matrix(0.010850694444444444,0,0,0.010850694444444444,147.16796875,0)" xlink:href="#ac"/><use transform="matrix(0.010850694444444444,0,0,0.010850694444444444,160.546875,0)" xlink:href="#ah"/><use transform="matrix(0.010850694444444444,0,0,0.010850694444444444,173.92578125,0)" xlink:href="#ab"/><use transform="matrix(0.010850694444444444,0,0,0.010850694444444444,187.3046875,0)" xlink:href="#ai"/></g><path d="M748-127c144 0 233-46 313-121v191C974-6 875 28 748 29c-351 3-553-232-553-588 0-357 202-591 553-588 129 2 222 35 313 86v193c-88-76-165-123-313-123-245 0-359 174-359 432 0 257 115 432 359 432" id="aj"/><path d="M711-1147c253 0 340 178 340 453V0H866v-694c-1-183-51-293-219-293-189 0-268 148-268 354V0H195v-1556h184v604c60-118 165-195 332-195" id="ak"/><path d="M801 0C570 0 455-164 455-406v-1017H160v-144h479v1161c0 147 46 250 180 250h215V0H801" id="al"/><path d="M637-1147c132 1 237 25 336 66v180c-92-53-190-92-322-92-145 0-248 35-248 164 0 50 15 87 46 112 23 30 197 67 303 86 166 30 278 123 278 307 0 239-191 356-446 353-140-2-251-31-371-70v-190c114 58 228 103 375 106 145 3 253-56 256-188 3-87-90-149-253-179-210-38-374-93-374-319 0-232 173-338 420-336" id="am"/><path d="M807 0C529-4 430-92 430-369v-608H131v-143h299v-318h184v318h418v143H614v608c2 165 49 222 211 222h207V0H807" id="an"/><path d="M616-170l351-1323h209L739 0H494L57-1493h209" id="ao"/><path d="M1153-1120C1010-750 884-433 741-52c-66 176-110 283-133 322-55 94-138 156-276 156H184V272c97 0 188 7 236-47 29-33 70-112 117-243L104-1120h195l332 876 327-876h195zm-397-518h198l-325 376H475" id="ap"/><path d="M850-236c87-126 87-521 0-646-49-70-112-109-201-109s-154 38-203 109c-89 127-89 518 0 645 49 71 114 110 203 110s152-39 201-109zM676 29c-146 0-244-69-299-170V0H193v-1556h184v579c53-101 154-170 301-170 297 0 434 260 434 584 0 329-136 592-436 592" id="aq"/><g id="d"><use transform="matrix(0.010850694444444444,0,0,0.010850694444444444,0,0)" xlink:href="#Y"/><use transform="matrix(0.010850694444444444,0,0,0.010850694444444444,13.37890625,0)" xlink:href="#Z"/><use transform="matrix(0.010850694444444444,0,0,0.010850694444444444,26.7578125,0)" xlink:href="#aa"/><use transform="matrix(0.010850694444444444,0,0,0.010850694444444444,40.13671875,0)" xlink:href="#ah"/><use transform="matrix(0.010850694444444444,0,0,0.010850694444444444,53.515625,0)" xlink:href="#ai"/><use transform="matrix(0.010850694444444444,0,0,0.010850694444444444,66.89453125,0)" xlink:href="#aj"/><use transform="matrix(0.010850694444444444,0,0,0.010850694444444444,80.2734375,0)" xlink:href="#ak"/><use transform="matrix(0.010850694444444444,0,0,0.010850694444444444,93.65234375,0)" xlink:href="#al"/><use transform="matrix(0.010850694444444444,0,0,0.010850694444444444,107.03125,0)" xlink:href="#ag"/><use transform="matrix(0.010850694444444444,0,0,0.010850694444444444,120.41015625,0)" xlink:href="#am"/><use transform="matrix(0.010850694444444444,0,0,0.010850694444444444,133.7890625,0)" xlink:href="#an"/><use transform="matrix(0.010850694444444444,0,0,0.010850694444444444,147.16796875,0)" xlink:href="#ao"/><use transform="matrix(0.010850694444444444,0,0,0.010850694444444444,160.546875,0)" xlink:href="#ap"/><use transform="matrix(0.010850694444444444,0,0,0.010850694444444444,173.92578125,0)" xlink:href="#ah"/><use transform="matrix(0.010850694444444444,0,0,0.010850694444444444,187.3046875,0)" xlink:href="#ag"/><use transform="matrix(0.010850694444444444,0,0,0.010850694444444444,200.68359375,0)" xlink:href="#aq"/><use transform="matrix(0.010850694444444444,0,0,0.010850694444444444,214.0625,0)" xlink:href="#ai"/></g><path d="M582-215c134 3 229-61 229-188 0-171-173-202-301-252-148-58-249-117-302-179s-79-146-79-251c-2-279 200-439 487-435 159 1 291 39 410 93v288c-107-75-227-134-387-137-128-2-219 48-221 166 0 41 16 74 42 102 40 43 213 104 300 138 211 80 350 191 350 450 0 322-199 450-537 449-170-1-316-43-438-105v-305c132 92 257 161 447 166" id="ar"/><path d="M778 0C477-5 387-150 387-467v-864H90v-225h590v1089c3 161 32 242 180 242h234V0H778" id="as"/><path d="M504-1147c146 0 225 81 287 186v-595h292V0H791v-166C735-52 649 29 494 29c-128 0-223-55-298-154-137-182-137-692 2-870 76-98 173-152 306-152zm-67 336c-66 112-66 396 0 508 70 119 228 118 299 0 67-112 67-396 0-508-71-118-229-119-299 0" id="at"/><path d="M174-1556h293v817l352-381h355L750-702 1198 0H874L567-524l-100 96V0H174v-1556" id="au"/><path d="M618-1147c139 1 264 24 373 62v256c-94-60-205-105-344-105-109 0-192 22-198 113-5 55 86 104 225 133 223 47 396 118 393 371-3 255-179 346-455 346-156-1-293-29-422-70v-256c110 62 239 113 392 113 113 0 209-23 209-117 0-37-14-64-37-86-24-24-177-63-260-82-196-44-322-122-322-336 0-236 191-344 446-342" id="av"/><path d="M827 0C501-7 397-66 397-379v-516H111v-225h286v-318h293v318h383v225H690v530c2 106 48 140 158 140h225V0H827" id="aw"/><g id="f"><use transform="matrix(0.010850694444444444,0,0,0.010850694444444444,0,0)" xlink:href="#N"/><use transform="matrix(0.010850694444444444,0,0,0.010850694444444444,13.37890625,0)" xlink:href="#O"/><use transform="matrix(0.010850694444444444,0,0,0.010850694444444444,26.7578125,0)" xlink:href="#P"/><use transform="matrix(0.010850694444444444,0,0,0.010850694444444444,40.13671875,0)" xlink:href="#ar"/><use transform="matrix(0.010850694444444444,0,0,0.010850694444444444,53.515625,0)" xlink:href="#as"/><use transform="matrix(0.010850694444444444,0,0,0.010850694444444444,66.89453125,0)" xlink:href="#W"/><use transform="matrix(0.010850694444444444,0,0,0.010850694444444444,80.2734375,0)" xlink:href="#at"/><use transform="matrix(0.010850694444444444,0,0,0.010850694444444444,93.65234375,0)" xlink:href="#au"/><use transform="matrix(0.010850694444444444,0,0,0.010850694444444444,107.03125,0)" xlink:href="#R"/><use transform="matrix(0.010850694444444444,0,0,0.010850694444444444,120.41015625,0)" xlink:href="#av"/><use transform="matrix(0.010850694444444444,0,0,0.010850694444444444,133.7890625,0)" xlink:href="#aw"/></g><path d="M356-643h521v164H356v-164" id="ax"/><use transform="matrix(0.010850694444444444,0,0,0.010850694444444444,0,0)" xlink:href="#ax" id="g"/><path d="M631-1520c144 2 262 34 381 78v205c-106-67-218-116-371-119-174-3-308 84-309 246 0 66 20 114 54 151 44 48 204 86 310 111 250 58 402 161 402 440 0 301-201 439-516 437-164-1-298-37-424-90v-215c130 81 244 137 424 141 187 4 323-84 323-260 0-181-93-224-262-262-271-61-502-123-504-422-2-273 211-447 492-441" id="ay"/><path d="M547-125c229-2 340-186 327-438H641c-189 0-321 55-324 225-3 137 91 215 230 213zm-332-944c167-71 431-115 615-37 106 45 186 120 213 246 11 49 16 123 16 221V0H874v-166C800-42 695 26 508 29c-220 3-378-138-375-355 4-274 199-382 494-381h247c6-204-80-285-282-284-149 1-272 46-377 106v-184" id="az"/><path d="M559-1147c146 0 246 68 299 170v-579h184V0H858v-141C803-40 706 29 559 29c-300 0-436-264-436-592 0-325 139-584 436-584zM385-882c-81 129-87 521 0 646 49 70 112 109 201 109s152-39 202-110c89-127 83-514 0-645-88-139-315-140-403 0" id="aA"/><path d="M236-1556h190v901l483-465h224L692-698 1202 0H977L563-578 426-449V0H236v-1556" id="aB"/><path d="M256-1120h471v977h365V0H178v-143h365v-834H256v-143zm287-436h184v233H543v-233" id="aC"/><g id="h"><use transform="matrix(0.010850694444444444,0,0,0.010850694444444444,0,0)" xlink:href="#Y"/><use transform="matrix(0.010850694444444444,0,0,0.010850694444444444,13.37890625,0)" xlink:href="#Z"/><use transform="matrix(0.010850694444444444,0,0,0.010850694444444444,26.7578125,0)" xlink:href="#aa"/><use transform="matrix(0.010850694444444444,0,0,0.010850694444444444,40.13671875,0)" xlink:href="#ab"/><use transform="matrix(0.010850694444444444,0,0,0.010850694444444444,53.515625,0)" xlink:href="#ac"/><use transform="matrix(0.010850694444444444,0,0,0.010850694444444444,66.89453125,0)" xlink:href="#ad"/><use transform="matrix(0.010850694444444444,0,0,0.010850694444444444,80.2734375,0)" xlink:href="#Y"/><use transform="matrix(0.010850694444444444,0,0,0.010850694444444444,93.65234375,0)" xlink:href="#ae"/><use transform="matrix(0.010850694444444444,0,0,0.010850694444444444,107.03125,0)" xlink:href="#ay"/><use transform="matrix(0.010850694444444444,0,0,0.010850694444444444,120.41015625,0)" xlink:href="#al"/><use transform="matrix(0.010850694444444444,0,0,0.010850694444444444,133.7890625,0)" xlink:href="#az"/><use transform="matrix(0.010850694444444444,0,0,0.010850694444444444,147.16796875,0)" xlink:href="#aA"/><use transform="matrix(0.010850694444444444,0,0,0.010850694444444444,160.546875,0)" xlink:href="#aB"/><use transform="matrix(0.010850694444444444,0,0,0.010850694444444444,173.92578125,0)" xlink:href="#ag"/><use transform="matrix(0.010850694444444444,0,0,0.010850694444444444,187.3046875,0)" xlink:href="#am"/><use transform="matrix(0.010850694444444444,0,0,0.010850694444444444,200.68359375,0)" xlink:href="#an"/><use transform="matrix(0.010850694444444444,0,0,0.010850694444444444,214.0625,0)" xlink:href="#aC"/></g><path d="M471-1147c112 0 171 55 205 141 41-85 99-141 213-141 90 0 154 35 191 105s55 200 55 393V0H967v-641c0-158-12-256-27-295-31-81-176-72-206 4-17 42-29 138-29 291V0H537v-641c0-160-10-259-29-296s-53-56-102-56-83 20-102 61-28 138-28 291V0H109v-1120h167v96c38-70 97-123 195-123" id="aD"/><g id="i"><use transform="matrix(0.010850694444444444,0,0,0.010850694444444444,0,0)" xlink:href="#Y"/><use transform="matrix(0.010850694444444444,0,0,0.010850694444444444,13.37890625,0)" xlink:href="#Z"/><use transform="matrix(0.010850694444444444,0,0,0.010850694444444444,26.7578125,0)" xlink:href="#aa"/><use transform="matrix(0.010850694444444444,0,0,0.010850694444444444,40.13671875,0)" xlink:href="#ak"/><use transform="matrix(0.010850694444444444,0,0,0.010850694444444444,53.515625,0)" xlink:href="#aD"/><use transform="matrix(0.010850694444444444,0,0,0.010850694444444444,66.89453125,0)" xlink:href="#ag"/><use transform="matrix(0.010850694444444444,0,0,0.010850694444444444,80.2734375,0)" xlink:href="#an"/><use transform="matrix(0.010850694444444444,0,0,0.010850694444444444,93.65234375,0)" xlink:href="#ab"/><use transform="matrix(0.010850694444444444,0,0,0.010850694444444444,107.03125,0)" xlink:href="#ag"/><use transform="matrix(0.010850694444444444,0,0,0.010850694444444444,120.41015625,0)" xlink:href="#am"/><use transform="matrix(0.010850694444444444,0,0,0.010850694444444444,133.7890625,0)" xlink:href="#an"/></g><path d="M637-1147c132 1 237 25 336 66v180c-92-53-190-92-322-92-145 0-248 35-248 164 0 50 15 87 46 112 23 30 197 67 303 86 166 30 278 123 278 307 0 239-191 356-446 353-140-2-251-31-371-70v-190c114 58 228 103 375 106 145 3 253-56 256-188 3-87-90-149-253-179-210-38-374-93-374-319 0-232 173-338 420-336zm-94-115l-246-376h139l180 245 181-245h139l-246 376H543" id="aE"/><path d="M256-1120h471v977h365V0H178v-143h365v-834H256v-143zm500-518h198l-325 376H475" id="aF"/><path d="M915-1147c102 0 174 26 240 70v188c-71-55-140-88-254-88-243 0-354 165-354 420V0H362v-1120h185v219c55-146 178-246 368-246zm-282-115l-246-376h139l180 245 181-245h139l-246 376H633" id="aG"/><g id="j"><use transform="matrix(0.010850694444444444,0,0,0.010850694444444444,0,0)" xlink:href="#Y"/><use transform="matrix(0.010850694444444444,0,0,0.010850694444444444,13.37890625,0)" xlink:href="#Z"/><use transform="matrix(0.010850694444444444,0,0,0.010850694444444444,26.7578125,0)" xlink:href="#aa"/><use transform="matrix(0.010850694444444444,0,0,0.010850694444444444,40.13671875,0)" xlink:href="#aE"/><use transform="matrix(0.010850694444444444,0,0,0.010850694444444444,53.515625,0)" xlink:href="#aF"/><use transform="matrix(0.010850694444444444,0,0,0.010850694444444444,66.89453125,0)" xlink:href="#aG"/><use transform="matrix(0.010850694444444444,0,0,0.010850694444444444,80.2734375,0)" xlink:href="#aB"/><use transform="matrix(0.010850694444444444,0,0,0.010850694444444444,93.65234375,0)" xlink:href="#az"/><use transform="matrix(0.010850694444444444,0,0,0.010850694444444444,107.03125,0)" xlink:href="#ay"/><use transform="matrix(0.010850694444444444,0,0,0.010850694444444444,120.41015625,0)" xlink:href="#al"/><use transform="matrix(0.010850694444444444,0,0,0.010850694444444444,133.7890625,0)" xlink:href="#az"/><use transform="matrix(0.010850694444444444,0,0,0.010850694444444444,147.16796875,0)" xlink:href="#aA"/><use transform="matrix(0.010850694444444444,0,0,0.010850694444444444,160.546875,0)" xlink:href="#aB"/><use transform="matrix(0.010850694444444444,0,0,0.010850694444444444,173.92578125,0)" xlink:href="#ag"/><use transform="matrix(0.010850694444444444,0,0,0.010850694444444444,187.3046875,0)" xlink:href="#am"/><use transform="matrix(0.010850694444444444,0,0,0.010850694444444444,200.68359375,0)" xlink:href="#an"/><use transform="matrix(0.010850694444444444,0,0,0.010850694444444444,214.0625,0)" xlink:href="#aC"/></g><path d="M651-1147c298 0 466 229 461 541v90H315c-4 242 129 392 365 389 156-2 268-51 389-113v183C949-8 828 27 678 29c-351 3-555-232-555-588 0-338 200-588 528-588zm277 487c-4-201-91-331-285-331-193 0-305 144-321 332zm-158-978h198l-325 376H489" id="aH"/><g id="k"><use transform="matrix(0.010850694444444444,0,0,0.010850694444444444,0,0)" xlink:href="#Y"/><use transform="matrix(0.010850694444444444,0,0,0.010850694444444444,13.37890625,0)" xlink:href="#Z"/><use transform="matrix(0.010850694444444444,0,0,0.010850694444444444,26.7578125,0)" xlink:href="#aa"/><use transform="matrix(0.010850694444444444,0,0,0.010850694444444444,40.13671875,0)" xlink:href="#aA"/><use transform="matrix(0.010850694444444444,0,0,0.010850694444444444,53.515625,0)" xlink:href="#aH"/><use transform="matrix(0.010850694444444444,0,0,0.010850694444444444,66.89453125,0)" xlink:href="#al"/><use transform="matrix(0.010850694444444444,0,0,0.010850694444444444,80.2734375,0)" xlink:href="#aB"/><use transform="matrix(0.010850694444444444,0,0,0.010850694444444444,93.65234375,0)" xlink:href="#az"/><use transform="matrix(0.010850694444444444,0,0,0.010850694444444444,107.03125,0)" xlink:href="#ay"/><use transform="matrix(0.010850694444444444,0,0,0.010850694444444444,120.41015625,0)" xlink:href="#al"/><use transform="matrix(0.010850694444444444,0,0,0.010850694444444444,133.7890625,0)" xlink:href="#az"/><use transform="matrix(0.010850694444444444,0,0,0.010850694444444444,147.16796875,0)" xlink:href="#aA"/><use transform="matrix(0.010850694444444444,0,0,0.010850694444444444,160.546875,0)" xlink:href="#aB"/><use transform="matrix(0.010850694444444444,0,0,0.010850694444444444,173.92578125,0)" xlink:href="#ag"/><use transform="matrix(0.010850694444444444,0,0,0.010850694444444444,187.3046875,0)" xlink:href="#am"/><use transform="matrix(0.010850694444444444,0,0,0.010850694444444444,200.68359375,0)" xlink:href="#an"/><use transform="matrix(0.010850694444444444,0,0,0.010850694444444444,214.0625,0)" xlink:href="#aC"/></g><g id="l"><use transform="matrix(0.010850694444444444,0,0,0.010850694444444444,0,0)" xlink:href="#Y"/><use transform="matrix(0.010850694444444444,0,0,0.010850694444444444,13.37890625,0)" xlink:href="#Z"/><use transform="matrix(0.010850694444444444,0,0,0.010850694444444444,26.7578125,0)" xlink:href="#aa"/><use transform="matrix(0.010850694444444444,0,0,0.010850694444444444,40.13671875,0)" xlink:href="#ae"/><use transform="matrix(0.010850694444444444,0,0,0.010850694444444444,53.515625,0)" xlink:href="#ap"/><use transform="matrix(0.010850694444444444,0,0,0.010850694444444444,66.89453125,0)" xlink:href="#aE"/><use transform="matrix(0.010850694444444444,0,0,0.010850694444444444,80.2734375,0)" xlink:href="#aB"/><use transform="matrix(0.010850694444444444,0,0,0.010850694444444444,93.65234375,0)" xlink:href="#az"/><use transform="matrix(0.010850694444444444,0,0,0.010850694444444444,107.03125,0)" xlink:href="#ay"/><use transform="matrix(0.010850694444444444,0,0,0.010850694444444444,120.41015625,0)" xlink:href="#al"/><use transform="matrix(0.010850694444444444,0,0,0.010850694444444444,133.7890625,0)" xlink:href="#az"/><use transform="matrix(0.010850694444444444,0,0,0.010850694444444444,147.16796875,0)" xlink:href="#aA"/><use transform="matrix(0.010850694444444444,0,0,0.010850694444444444,160.546875,0)" xlink:href="#aB"/><use transform="matrix(0.010850694444444444,0,0,0.010850694444444444,173.92578125,0)" xlink:href="#ag"/><use transform="matrix(0.010850694444444444,0,0,0.010850694444444444,187.3046875,0)" xlink:href="#am"/><use transform="matrix(0.010850694444444444,0,0,0.010850694444444444,200.68359375,0)" xlink:href="#an"/><use transform="matrix(0.010850694444444444,0,0,0.010850694444444444,214.0625,0)" xlink:href="#aC"/></g><path d="M483 29c-234 0-324-167-323-420v-729h293v684c3 141 22 225 147 225 124 0 168-124 168-266v-643h293V0H768v-166C731-50 631 29 483 29" id="aI"/><path d="M221-1120h580v895h364V0H143v-225h365v-670H221v-225zm287-545h293v342H508v-342" id="aJ"/><g id="m"><use transform="matrix(0.010850694444444444,0,0,0.010850694444444444,0,0)" xlink:href="#N"/><use transform="matrix(0.010850694444444444,0,0,0.010850694444444444,13.37890625,0)" xlink:href="#O"/><use transform="matrix(0.010850694444444444,0,0,0.010850694444444444,26.7578125,0)" xlink:href="#P"/><use transform="matrix(0.010850694444444444,0,0,0.010850694444444444,40.13671875,0)" xlink:href="#ar"/><use transform="matrix(0.010850694444444444,0,0,0.010850694444444444,53.515625,0)" xlink:href="#aI"/><use transform="matrix(0.010850694444444444,0,0,0.010850694444444444,66.89453125,0)" xlink:href="#U"/><use transform="matrix(0.010850694444444444,0,0,0.010850694444444444,80.2734375,0)" xlink:href="#R"/><use transform="matrix(0.010850694444444444,0,0,0.010850694444444444,93.65234375,0)" xlink:href="#S"/><use transform="matrix(0.010850694444444444,0,0,0.010850694444444444,107.03125,0)" xlink:href="#aJ"/><use transform="matrix(0.010850694444444444,0,0,0.010850694444444444,120.41015625,0)" xlink:href="#V"/><use transform="matrix(0.010850694444444444,0,0,0.010850694444444444,133.7890625,0)" xlink:href="#W"/></g><path d="M535 29c-255 0-340-177-340-453v-694h184v694c1 183 52 293 219 293 191 0 268-148 268-354v-633h185V0H866v-168C807-50 701 29 535 29" id="aK"/><g id="n"><use transform="matrix(0.010850694444444444,0,0,0.010850694444444444,0,0)" xlink:href="#Y"/><use transform="matrix(0.010850694444444444,0,0,0.010850694444444444,13.37890625,0)" xlink:href="#Z"/><use transform="matrix(0.010850694444444444,0,0,0.010850694444444444,26.7578125,0)" xlink:href="#aa"/><use transform="matrix(0.010850694444444444,0,0,0.010850694444444444,40.13671875,0)" xlink:href="#ab"/><use transform="matrix(0.010850694444444444,0,0,0.010850694444444444,53.515625,0)" xlink:href="#ac"/><use transform="matrix(0.010850694444444444,0,0,0.010850694444444444,66.89453125,0)" xlink:href="#ad"/><use transform="matrix(0.010850694444444444,0,0,0.010850694444444444,80.2734375,0)" xlink:href="#Y"/><use transform="matrix(0.010850694444444444,0,0,0.010850694444444444,93.65234375,0)" xlink:href="#ae"/><use transform="matrix(0.010850694444444444,0,0,0.010850694444444444,107.03125,0)" xlink:href="#ay"/><use transform="matrix(0.010850694444444444,0,0,0.010850694444444444,120.41015625,0)" xlink:href="#aK"/><use transform="matrix(0.010850694444444444,0,0,0.010850694444444444,133.7890625,0)" xlink:href="#ah"/><use transform="matrix(0.010850694444444444,0,0,0.010850694444444444,147.16796875,0)" xlink:href="#ag"/><use transform="matrix(0.010850694444444444,0,0,0.010850694444444444,160.546875,0)" xlink:href="#ae"/><use transform="matrix(0.010850694444444444,0,0,0.010850694444444444,173.92578125,0)" xlink:href="#aC"/><use transform="matrix(0.010850694444444444,0,0,0.010850694444444444,187.3046875,0)" xlink:href="#ab"/><use transform="matrix(0.010850694444444444,0,0,0.010850694444444444,200.68359375,0)" xlink:href="#ai"/></g><path d="M178-1493h969v154L367-170h802V0H156v-154l759-1169H178v-170" id="aL"/><path d="M137-1493h203v664l631-664h237L627-883 1225 0H981L494-748 340-584V0H137v-1493" id="aM"/><path d="M790-254c87-126 81-501 0-630-88-140-313-134-402 0-86 129-92 505 0 630 51 70 117 109 208 109 85 0 146-39 194-109zm-237-893c158 0 247 65 305 176v-145h184V-72c1 325-152 512-469 512-118-1-228-23-325-55V203c107 49 197 90 325 90 215 0 286-119 285-346v-125C804-62 712 8 553 8 267 8 123-257 123-569c0-313 143-578 430-578" id="aN"/><g id="o"><use transform="matrix(0.010850694444444444,0,0,0.010850694444444444,0,0)" xlink:href="#Y"/><use transform="matrix(0.010850694444444444,0,0,0.010850694444444444,13.37890625,0)" xlink:href="#Z"/><use transform="matrix(0.010850694444444444,0,0,0.010850694444444444,26.7578125,0)" xlink:href="#aa"/><use transform="matrix(0.010850694444444444,0,0,0.010850694444444444,40.13671875,0)" xlink:href="#aj"/><use transform="matrix(0.010850694444444444,0,0,0.010850694444444444,53.515625,0)" xlink:href="#Y"/><use transform="matrix(0.010850694444444444,0,0,0.010850694444444444,66.89453125,0)" xlink:href="#ab"/><use transform="matrix(0.010850694444444444,0,0,0.010850694444444444,80.2734375,0)" xlink:href="#az"/><use transform="matrix(0.010850694444444444,0,0,0.010850694444444444,93.65234375,0)" xlink:href="#aL"/><use transform="matrix(0.010850694444444444,0,0,0.010850694444444444,107.03125,0)" xlink:href="#az"/><use transform="matrix(0.010850694444444444,0,0,0.010850694444444444,120.41015625,0)" xlink:href="#aM"/><use transform="matrix(0.010850694444444444,0,0,0.010850694444444444,133.7890625,0)" xlink:href="#aN"/></g><path d="M137-1493h1010v244L455-260h706V0H115v-244l671-989H137v-260" id="aO"/><path d="M498-1147c88-2 180 65 192 139 40-85 96-139 209-139 97 0 164 33 201 100s55 205 55 416V0H915v-719c0-83-8-138-19-167-21-56-118-55-139 1-11 29-20 84-20 166V0H500v-719c0-82-9-137-20-166-21-56-118-57-139-1-11 29-19 84-19 167V0H82v-1120h213v116c28-79 103-141 203-143" id="aP"/><path d="M698-203c169-2 281-50 404-121v269C974-3 842 28 670 29 296 31 92-181 92-555c0-348 195-592 533-592s528 218 524 563v119H390c3 185 114 264 308 262zm156-482c-2-151-77-235-229-235-144 1-220 97-232 236zm-341-582l-256-376h178l198 227 199-227h178l-256 376H513" id="aQ"/><path d="M762-211c132 0 221-47 299-115v269C968-3 859 29 719 29c-350 3-551-232-551-588 0-357 203-592 553-590 139 1 241 34 340 86v268c-75-64-172-114-299-114-201 0-297 140-297 350s96 348 297 348" id="aR"/><g id="p"><use transform="matrix(0.010850694444444444,0,0,0.010850694444444444,0,0)" xlink:href="#N"/><use transform="matrix(0.010850694444444444,0,0,0.010850694444444444,13.37890625,0)" xlink:href="#O"/><use transform="matrix(0.010850694444444444,0,0,0.010850694444444444,26.7578125,0)" xlink:href="#P"/><use transform="matrix(0.010850694444444444,0,0,0.010850694444444444,40.13671875,0)" xlink:href="#aO"/><use transform="matrix(0.010850694444444444,0,0,0.010850694444444444,53.515625,0)" xlink:href="#W"/><use transform="matrix(0.010850694444444444,0,0,0.010850694444444444,66.89453125,0)" xlink:href="#aP"/><use transform="matrix(0.010850694444444444,0,0,0.010850694444444444,80.2734375,0)" xlink:href="#aQ"/><use transform="matrix(0.010850694444444444,0,0,0.010850694444444444,93.65234375,0)" xlink:href="#av"/><use transform="matrix(0.010850694444444444,0,0,0.010850694444444444,107.03125,0)" xlink:href="#aw"/><use transform="matrix(0.010850694444444444,0,0,0.010850694444444444,120.41015625,0)" xlink:href="#V"/><use transform="matrix(0.010850694444444444,0,0,0.010850694444444444,133.7890625,0)" xlink:href="#W"/><use transform="matrix(0.010850694444444444,0,0,0.010850694444444444,147.16796875,0)" xlink:href="#V"/><use transform="matrix(0.010850694444444444,0,0,0.010850694444444444,160.546875,0)" xlink:href="#N"/><use transform="matrix(0.010850694444444444,0,0,0.010850694444444444,173.92578125,0)" xlink:href="#aR"/></g><path d="M420 270c135-3 180-101 180-250v-997H283v-143h501V20c2 243-112 405-344 406H186V270h234zm180-1826h184v233H600v-233" id="aS"/><g id="q"><use transform="matrix(0.010850694444444444,0,0,0.010850694444444444,0,0)" xlink:href="#Y"/><use transform="matrix(0.010850694444444444,0,0,0.010850694444444444,13.37890625,0)" xlink:href="#Z"/><use transform="matrix(0.010850694444444444,0,0,0.010850694444444444,26.7578125,0)" xlink:href="#aa"/><use transform="matrix(0.010850694444444444,0,0,0.010850694444444444,40.13671875,0)" xlink:href="#aS"/><use transform="matrix(0.010850694444444444,0,0,0.010850694444444444,53.515625,0)" xlink:href="#aD"/><use transform="matrix(0.010850694444444444,0,0,0.010850694444444444,66.89453125,0)" xlink:href="#aH"/><use transform="matrix(0.010850694444444444,0,0,0.010850694444444444,80.2734375,0)" xlink:href="#ab"/><use transform="matrix(0.010850694444444444,0,0,0.010850694444444444,93.65234375,0)" xlink:href="#ag"/></g><path d="M674 29c-147 0-246-68-299-170v567H190v-1546h185v143c55-101 152-170 299-170 300 0 434 263 434 592 0 325-137 584-434 584zm174-265c87-125 87-521 0-646-48-70-112-109-201-109s-154 38-203 109c-89 127-89 518 0 645 49 71 114 110 203 110s153-39 201-109" id="aT"/><g id="r"><use transform="matrix(0.010850694444444444,0,0,0.010850694444444444,0,0)" xlink:href="#Y"/><use transform="matrix(0.010850694444444444,0,0,0.010850694444444444,13.37890625,0)" xlink:href="#Z"/><use transform="matrix(0.010850694444444444,0,0,0.010850694444444444,26.7578125,0)" xlink:href="#aa"/><use transform="matrix(0.010850694444444444,0,0,0.010850694444444444,40.13671875,0)" xlink:href="#aT"/><use transform="matrix(0.010850694444444444,0,0,0.010850694444444444,53.515625,0)" xlink:href="#aG"/><use transform="matrix(0.010850694444444444,0,0,0.010850694444444444,66.89453125,0)" xlink:href="#aF"/><use transform="matrix(0.010850694444444444,0,0,0.010850694444444444,80.2734375,0)" xlink:href="#aS"/><use transform="matrix(0.010850694444444444,0,0,0.010850694444444444,93.65234375,0)" xlink:href="#aD"/><use transform="matrix(0.010850694444444444,0,0,0.010850694444444444,107.03125,0)" xlink:href="#Y"/><use transform="matrix(0.010850694444444444,0,0,0.010850694444444444,120.41015625,0)" xlink:href="#ab"/><use transform="matrix(0.010850694444444444,0,0,0.010850694444444444,133.7890625,0)" xlink:href="#aF"/></g><g id="s"><use transform="matrix(0.010850694444444444,0,0,0.010850694444444444,0,0)" xlink:href="#Y"/><use transform="matrix(0.010850694444444444,0,0,0.010850694444444444,13.37890625,0)" xlink:href="#Z"/><use transform="matrix(0.010850694444444444,0,0,0.010850694444444444,26.7578125,0)" xlink:href="#aa"/><use transform="matrix(0.010850694444444444,0,0,0.010850694444444444,40.13671875,0)" xlink:href="#an"/><use transform="matrix(0.010850694444444444,0,0,0.010850694444444444,53.515625,0)" xlink:href="#aC"/><use transform="matrix(0.010850694444444444,0,0,0.010850694444444444,66.89453125,0)" xlink:href="#an"/><use transform="matrix(0.010850694444444444,0,0,0.010850694444444444,80.2734375,0)" xlink:href="#aK"/><use transform="matrix(0.010850694444444444,0,0,0.010850694444444444,93.65234375,0)" xlink:href="#al"/><use transform="matrix(0.010850694444444444,0,0,0.010850694444444444,107.03125,0)" xlink:href="#ai"/></g><path d="M616-1223L477-612h279zm-180-270h361L1200 0H905l-92-369H418L328 0H33" id="aU"/><path d="M596-246c145 0 207-164 207-332s-62-331-207-331c-144 0-205 163-205 331 0 169 60 332 205 332zm-82-903c141 0 238 73 289 172v-143h293V-84c-3 364-151 508-516 508-138 0-252-21-365-55V100c99 55 205 90 346 90 166 0 241-75 242-241v-121C749-72 662-14 516-14 235-14 98-265 98-571c0-177 38-318 113-422s176-156 303-156" id="aV"/><g id="t"><use transform="matrix(0.010850694444444444,0,0,0.010850694444444444,0,0)" xlink:href="#N"/><use transform="matrix(0.010850694444444444,0,0,0.010850694444444444,13.37890625,0)" xlink:href="#O"/><use transform="matrix(0.010850694444444444,0,0,0.010850694444444444,26.7578125,0)" xlink:href="#P"/><use transform="matrix(0.010850694444444444,0,0,0.010850694444444444,40.13671875,0)" xlink:href="#aU"/><use transform="matrix(0.010850694444444444,0,0,0.010850694444444444,53.515625,0)" xlink:href="#as"/><use transform="matrix(0.010850694444444444,0,0,0.010850694444444444,66.89453125,0)" xlink:href="#N"/><use transform="matrix(0.010850694444444444,0,0,0.010850694444444444,80.2734375,0)" xlink:href="#U"/><use transform="matrix(0.010850694444444444,0,0,0.010850694444444444,93.65234375,0)" xlink:href="#aV"/><use transform="matrix(0.010850694444444444,0,0,0.010850694444444444,107.03125,0)" xlink:href="#N"/><use transform="matrix(0.010850694444444444,0,0,0.010850694444444444,120.41015625,0)" xlink:href="#V"/></g><path d="M616-1315L403-551h426zm-122-178h245L1196 0H987L877-389H354L246 0H37" id="aW"/><g id="u"><use transform="matrix(0.010850694444444444,0,0,0.010850694444444444,0,0)" xlink:href="#Y"/><use transform="matrix(0.010850694444444444,0,0,0.010850694444444444,13.37890625,0)" xlink:href="#Z"/><use transform="matrix(0.010850694444444444,0,0,0.010850694444444444,26.7578125,0)" xlink:href="#aa"/><use transform="matrix(0.010850694444444444,0,0,0.010850694444444444,40.13671875,0)" xlink:href="#ab"/><use transform="matrix(0.010850694444444444,0,0,0.010850694444444444,53.515625,0)" xlink:href="#ac"/><use transform="matrix(0.010850694444444444,0,0,0.010850694444444444,66.89453125,0)" xlink:href="#ad"/><use transform="matrix(0.010850694444444444,0,0,0.010850694444444444,80.2734375,0)" xlink:href="#Y"/><use transform="matrix(0.010850694444444444,0,0,0.010850694444444444,93.65234375,0)" xlink:href="#ae"/><use transform="matrix(0.010850694444444444,0,0,0.010850694444444444,107.03125,0)" xlink:href="#aW"/><use transform="matrix(0.010850694444444444,0,0,0.010850694444444444,120.41015625,0)" xlink:href="#al"/><use transform="matrix(0.010850694444444444,0,0,0.010850694444444444,133.7890625,0)" xlink:href="#Y"/><use transform="matrix(0.010850694444444444,0,0,0.010850694444444444,147.16796875,0)" xlink:href="#ah"/><use transform="matrix(0.010850694444444444,0,0,0.010850694444444444,160.546875,0)" xlink:href="#aN"/><use transform="matrix(0.010850694444444444,0,0,0.010850694444444444,173.92578125,0)" xlink:href="#Y"/><use transform="matrix(0.010850694444444444,0,0,0.010850694444444444,187.3046875,0)" xlink:href="#ab"/><use transform="matrix(0.010850694444444444,0,0,0.010850694444444444,200.68359375,0)" xlink:href="#aK"/></g><path d="M748-127c144 0 233-46 313-121v191C974-6 875 28 748 29c-351 3-553-232-553-588 0-357 202-591 553-588 129 2 222 35 313 86v193c-88-76-165-123-313-123-245 0-359 174-359 432 0 257 115 432 359 432zM633-1262l-246-376h139l180 245 181-245h139l-246 376H633" id="aX"/><g id="v"><use transform="matrix(0.010850694444444444,0,0,0.010850694444444444,0,0)" xlink:href="#Y"/><use transform="matrix(0.010850694444444444,0,0,0.010850694444444444,13.37890625,0)" xlink:href="#Z"/><use transform="matrix(0.010850694444444444,0,0,0.010850694444444444,26.7578125,0)" xlink:href="#aa"/><use transform="matrix(0.010850694444444444,0,0,0.010850694444444444,40.13671875,0)" xlink:href="#aX"/><use transform="matrix(0.010850694444444444,0,0,0.010850694444444444,53.515625,0)" xlink:href="#aF"/><use transform="matrix(0.010850694444444444,0,0,0.010850694444444444,66.89453125,0)" xlink:href="#am"/><use transform="matrix(0.010850694444444444,0,0,0.010850694444444444,80.2734375,0)" xlink:href="#al"/><use transform="matrix(0.010850694444444444,0,0,0.010850694444444444,93.65234375,0)" xlink:href="#ag"/></g><path d="M270-170h314v-1141l-338 76v-184l336-74h202v1323h310V0H270v-170" id="aY"/><path d="M489-305h252V0H489v-305" id="aZ"/><g id="w"><use transform="matrix(0.010850694444444444,0,0,0.010850694444444444,0,0)" xlink:href="#aY"/><use transform="matrix(0.010850694444444444,0,0,0.010850694444444444,13.37890625,0)" xlink:href="#aZ"/><use transform="matrix(0.010850694444444444,0,0,0.010850694444444444,26.7578125,0)" xlink:href="#aZ"/><use transform="matrix(0.010850694444444444,0,0,0.010850694444444444,40.13671875,0)" xlink:href="#aY"/></g><path d="M614-616c-74 0-131-59-131-134 0-70 61-135 131-135 72 0 136 64 136 135 0 73-63 134-136 134zm2-744c-94 0-159 53-210 152-88 171-88 754 0 925 51 99 116 152 210 152 95 0 161-53 212-152 88-172 88-754 0-925-51-99-117-152-212-152zm0-160c159 0 280 65 362 196s122 324 122 579-40 447-122 578S775 29 616 29 336-36 255-167 133-490 133-745s41-448 122-579 202-196 361-196" id="ba"/><path d="M1067-1247l-358 194 358 195-57 98-336-203v377H559v-377L223-760l-57-98 358-195-358-194 57-99 336 203v-377h115v377l336-203" id="bb"/><g id="x"><use transform="matrix(0.010850694444444444,0,0,0.010850694444444444,0,0)" xlink:href="#ba"/><use transform="matrix(0.010850694444444444,0,0,0.010850694444444444,13.37890625,0)" xlink:href="#aZ"/><use transform="matrix(0.010850694444444444,0,0,0.010850694444444444,26.7578125,0)" xlink:href="#aZ"/><use transform="matrix(0.010850694444444444,0,0,0.010850694444444444,40.13671875,0)" xlink:href="#bb"/></g><path fill="#333" d="M698-203c169-2 281-50 404-121v269C974-3 842 28 670 29 296 31 92-181 92-555c0-348 195-592 533-592s528 218 524 563v119H390c3 185 114 264 308 262zm156-482c-2-151-77-235-229-235-144 1-220 97-232 236" id="bc"/><path fill="#333" d="M1145-1120L768-584 1178 0H836L616-377 397 0H55l414-584-381-536h342l186 334 187-334h342" id="bd"/><path fill="#333" d="M449-1063h333v365H449v-365zm0 696h333V0H449v-367" id="be"/><path fill="#333" d="M186-1120h895v229L492-219h589V0H162v-229l590-672H186v-219" id="bf"/><path fill="#333" d="M573-174c177-3 250-155 244-352H700c-189 5-288 22-294 186-4 100 66 168 167 166zm41-973c376 0 494 126 494 508V0H817v-125C754-35 643 28 498 29 250 32 90-110 94-354c5-293 200-382 520-383h203c15-144-66-195-203-193-171 2-284 44-409 111v-250c121-50 246-78 409-78" id="bg"/><path fill="#333" d="M498-1147c88-2 180 65 192 139 40-85 96-139 209-139 97 0 164 33 201 100s55 205 55 416V0H915v-719c0-83-8-138-19-167-21-56-118-55-139 1-11 29-20 84-20 166V0H500v-719c0-82-9-137-20-166-21-56-118-57-139-1-11 29-19 84-19 167V0H82v-1120h213v116c28-79 103-141 203-143" id="bh"/><path fill="#333" d="M698-203c169-2 281-50 404-121v269C974-3 842 28 670 29 296 31 92-181 92-555c0-348 195-592 533-592s528 218 524 563v119H390c3 185 114 264 308 262zm156-482c-2-151-77-235-229-235-144 1-220 97-232 236zm-341-582l-256-376h178l198 227 199-227h178l-256 376H513" id="bi"/><path fill="#333" d="M618-1147c139 1 264 24 373 62v256c-94-60-205-105-344-105-109 0-192 22-198 113-5 55 86 104 225 133 223 47 396 118 393 371-3 255-179 346-455 346-156-1-293-29-422-70v-256c110 62 239 113 392 113 113 0 209-23 209-117 0-37-14-64-37-86-24-24-177-63-260-82-196-44-322-122-322-336 0-236 191-344 446-342" id="bj"/><path fill="#333" d="M827 0C501-7 397-66 397-379v-516H111v-225h286v-318h293v318h383v225H690v530c2 106 48 140 158 140h225V0H827" id="bk"/><path fill="#333" d="M750-1147c234 0 322 167 321 420V0H780v-682c-2-141-23-227-147-227-123 0-170 126-170 268V0H172v-1120h291v168c37-116 138-195 287-195" id="bl"/><path fill="#333" d="M573-174c177-3 250-155 244-352H700c-189 5-288 22-294 186-4 100 66 168 167 166zm41-973c376 0 494 126 494 508V0H817v-125C754-35 643 28 498 29 250 32 90-110 94-354c5-293 200-382 520-383h203c15-144-66-195-203-193-171 2-284 44-409 111v-250c121-50 246-78 409-78zm138-491h282l-368 376H469" id="bm"/><path fill="#333" d="M1153-1120L797 0H436L80-1120h297l239 874 240-874h297" id="bn"/><g id="y"><use transform="matrix(0.010850694444444444,0,0,0.010850694444444444,0,0)" xlink:href="#bc"/><use transform="matrix(0.010850694444444444,0,0,0.010850694444444444,13.37890625,0)" xlink:href="#bd"/><use transform="matrix(0.010850694444444444,0,0,0.010850694444444444,26.7578125,0)" xlink:href="#be"/><use transform="matrix(0.010850694444444444,0,0,0.010850694444444444,40.13671875,0)" xlink:href="#bf"/><use transform="matrix(0.010850694444444444,0,0,0.010850694444444444,53.515625,0)" xlink:href="#bg"/><use transform="matrix(0.010850694444444444,0,0,0.010850694444444444,66.89453125,0)" xlink:href="#bh"/><use transform="matrix(0.010850694444444444,0,0,0.010850694444444444,80.2734375,0)" xlink:href="#bi"/><use transform="matrix(0.010850694444444444,0,0,0.010850694444444444,93.65234375,0)" xlink:href="#bj"/><use transform="matrix(0.010850694444444444,0,0,0.010850694444444444,107.03125,0)" xlink:href="#bk"/><use transform="matrix(0.010850694444444444,0,0,0.010850694444444444,120.41015625,0)" xlink:href="#bl"/><use transform="matrix(0.010850694444444444,0,0,0.010850694444444444,133.7890625,0)" xlink:href="#bm"/><use transform="matrix(0.010850694444444444,0,0,0.010850694444444444,147.16796875,0)" xlink:href="#bn"/><use transform="matrix(0.010850694444444444,0,0,0.010850694444444444,160.546875,0)" xlink:href="#bm"/></g><path fill="#333" d="M711 121c-39 105-86 183-141 231s-122 72-201 72H127V201c88-1 207 8 251-31 36-18 84-129 107-201L59-1120h308l256 727 245-727h308" id="bo"/><path fill="#333" d="M924-1147c90 1 165 23 227 57v279c-80-87-287-118-417-55-120 58-150 157-150 350V0H291v-1120h293v174c52-120 173-201 340-201" id="bp"/><path fill="#333" d="M796-303c66-112 66-396 0-508-70-119-228-118-299 0-67 112-67 396 0 508 71 118 229 119 299 0zM739 29c-154 0-243-80-297-195V0H150v-1556h292v595c62-105 141-186 287-186 133 0 231 54 307 152 139 179 138 689 1 870C962-26 867 29 739 29" id="bq"/><path fill="#333" d="M221-1120h580v895h364V0H143v-225h365v-670H221v-225zm531-518h282l-368 376H469" id="br"/><g id="z"><use transform="matrix(0.010850694444444444,0,0,0.010850694444444444,0,0)" xlink:href="#bc"/><use transform="matrix(0.010850694444444444,0,0,0.010850694444444444,13.37890625,0)" xlink:href="#bd"/><use transform="matrix(0.010850694444444444,0,0,0.010850694444444444,26.7578125,0)" xlink:href="#be"/><use transform="matrix(0.010850694444444444,0,0,0.010850694444444444,40.13671875,0)" xlink:href="#bn"/><use transform="matrix(0.010850694444444444,0,0,0.010850694444444444,53.515625,0)" xlink:href="#bo"/><use transform="matrix(0.010850694444444444,0,0,0.010850694444444444,66.89453125,0)" xlink:href="#bp"/><use transform="matrix(0.010850694444444444,0,0,0.010850694444444444,80.2734375,0)" xlink:href="#bm"/><use transform="matrix(0.010850694444444444,0,0,0.010850694444444444,93.65234375,0)" xlink:href="#bq"/><use transform="matrix(0.010850694444444444,0,0,0.010850694444444444,107.03125,0)" xlink:href="#br"/></g><g id="A"><use transform="matrix(0.010850694444444444,0,0,0.010850694444444444,0,0)" xlink:href="#ba"/><use transform="matrix(0.010850694444444444,0,0,0.010850694444444444,13.37890625,0)" xlink:href="#aZ"/><use transform="matrix(0.010850694444444444,0,0,0.010850694444444444,26.7578125,0)" xlink:href="#aZ"/><use transform="matrix(0.010850694444444444,0,0,0.010850694444444444,40.13671875,0)" xlink:href="#bb"/></g><g id="B"><use transform="matrix(0.010850694444444444,0,0,0.010850694444444444,0,0)" xlink:href="#aY"/><use transform="matrix(0.010850694444444444,0,0,0.010850694444444444,13.37890625,0)" xlink:href="#aZ"/><use transform="matrix(0.010850694444444444,0,0,0.010850694444444444,26.7578125,0)" xlink:href="#aZ"/><use transform="matrix(0.010850694444444444,0,0,0.010850694444444444,40.13671875,0)" xlink:href="#bb"/></g><path fill="#333" d="M842-559c0-188-62-350-226-350-163 0-225 163-225 350s62 350 225 350c164 0 226-162 226-350zM616 29C289 29 98-219 98-559s191-588 518-588c328 0 519 248 519 588 0 341-191 588-519 588" id="bs"/><path fill="#333" d="M750-1147c234 0 322 167 321 420V0H780v-682c-2-141-24-225-147-225-124 0-170 124-170 266V0H172v-1556h291v604c37-116 138-195 287-195" id="bt"/><path fill="#333" d="M483 29c-234 0-324-167-323-420v-729h293v684c3 141 22 225 147 225 124 0 168-124 168-266v-643h293V0H768v-166C731-50 631 29 483 29" id="bu"/><path fill="#333" d="M377 199c148-4 180-81 180-242v-852H260v-225h590V-43c-3 319-88 467-391 467H143V199h234zm473-1522H557v-342h293v342" id="bv"/><path fill="#333" d="M582-215c134 3 229-61 229-188 0-171-173-202-301-252-148-58-249-117-302-179s-79-146-79-251c-2-279 200-439 487-435 159 1 291 39 410 93v288c-107-75-227-134-387-137-128-2-219 48-221 166 0 41 16 74 42 102 40 43 213 104 300 138 211 80 350 191 350 450 0 322-199 450-537 449-170-1-316-43-438-105v-305c132 92 257 161 447 166" id="bw"/><path fill="#333" d="M221-1120h580v895h364V0H143v-225h365v-670H221v-225zm287-545h293v342H508v-342" id="bx"/><g id="C"><use transform="matrix(0.010850694444444444,0,0,0.010850694444444444,0,0)" xlink:href="#bc"/><use transform="matrix(0.010850694444444444,0,0,0.010850694444444444,13.37890625,0)" xlink:href="#bd"/><use transform="matrix(0.010850694444444444,0,0,0.010850694444444444,26.7578125,0)" xlink:href="#be"/><use transform="matrix(0.010850694444444444,0,0,0.010850694444444444,40.13671875,0)" xlink:href="#bs"/><use transform="matrix(0.010850694444444444,0,0,0.010850694444444444,53.515625,0)" xlink:href="#bq"/><use transform="matrix(0.010850694444444444,0,0,0.010850694444444444,66.89453125,0)" xlink:href="#bj"/><use transform="matrix(0.010850694444444444,0,0,0.010850694444444444,80.2734375,0)" xlink:href="#bg"/><use transform="matrix(0.010850694444444444,0,0,0.010850694444444444,93.65234375,0)" xlink:href="#bt"/><use transform="matrix(0.010850694444444444,0,0,0.010850694444444444,107.03125,0)" xlink:href="#bu"/><use transform="matrix(0.010850694444444444,0,0,0.010850694444444444,120.41015625,0)" xlink:href="#bv"/><use transform="matrix(0.010850694444444444,0,0,0.010850694444444444,133.7890625,0)" xlink:href="#bc"/><use transform="matrix(0.010850694444444444,0,0,0.010850694444444444,147.16796875,0)" xlink:href="#bw"/><use transform="matrix(0.010850694444444444,0,0,0.010850694444444444,160.546875,0)" xlink:href="#bu"/><use transform="matrix(0.010850694444444444,0,0,0.010850694444444444,173.92578125,0)" xlink:href="#bp"/><use transform="matrix(0.010850694444444444,0,0,0.010850694444444444,187.3046875,0)" xlink:href="#bs"/><use transform="matrix(0.010850694444444444,0,0,0.010850694444444444,200.68359375,0)" xlink:href="#bn"/><use transform="matrix(0.010850694444444444,0,0,0.010850694444444444,214.0625,0)" xlink:href="#bx"/><use transform="matrix(0.010850694444444444,0,0,0.010850694444444444,227.44140625,0)" xlink:href="#bl"/><use transform="matrix(0.010850694444444444,0,0,0.010850694444444444,240.8203125,0)" xlink:href="#bu"/></g><path fill="#333" d="M616-1223L477-612h279zm-180-270h361L1200 0H905l-92-369H418L328 0H33" id="by"/><path fill="#333" d="M778 0C477-5 387-150 387-467v-864H90v-225h590v1089c3 161 32 242 180 242h234V0H778" id="bz"/><path fill="#333" d="M596-246c145 0 207-164 207-332s-62-331-207-331c-144 0-205 163-205 331 0 169 60 332 205 332zm-82-903c141 0 238 73 289 172v-143h293V-84c-3 364-151 508-516 508-138 0-252-21-365-55V100c99 55 205 90 346 90 166 0 241-75 242-241v-121C749-72 662-14 516-14 235-14 98-265 98-571c0-177 38-318 113-422s176-156 303-156" id="bA"/><g id="D"><use transform="matrix(0.010850694444444444,0,0,0.010850694444444444,0,0)" xlink:href="#bc"/><use transform="matrix(0.010850694444444444,0,0,0.010850694444444444,13.37890625,0)" xlink:href="#bd"/><use transform="matrix(0.010850694444444444,0,0,0.010850694444444444,26.7578125,0)" xlink:href="#be"/><use transform="matrix(0.010850694444444444,0,0,0.010850694444444444,40.13671875,0)" xlink:href="#bs"/><use transform="matrix(0.010850694444444444,0,0,0.010850694444444444,53.515625,0)" xlink:href="#bq"/><use transform="matrix(0.010850694444444444,0,0,0.010850694444444444,66.89453125,0)" xlink:href="#bj"/><use transform="matrix(0.010850694444444444,0,0,0.010850694444444444,80.2734375,0)" xlink:href="#bg"/><use transform="matrix(0.010850694444444444,0,0,0.010850694444444444,93.65234375,0)" xlink:href="#bt"/><use transform="matrix(0.010850694444444444,0,0,0.010850694444444444,107.03125,0)" xlink:href="#bu"/><use transform="matrix(0.010850694444444444,0,0,0.010850694444444444,120.41015625,0)" xlink:href="#bv"/><use transform="matrix(0.010850694444444444,0,0,0.010850694444444444,133.7890625,0)" xlink:href="#bc"/><use transform="matrix(0.010850694444444444,0,0,0.010850694444444444,147.16796875,0)" xlink:href="#by"/><use transform="matrix(0.010850694444444444,0,0,0.010850694444444444,160.546875,0)" xlink:href="#bz"/><use transform="matrix(0.010850694444444444,0,0,0.010850694444444444,173.92578125,0)" xlink:href="#bc"/><use transform="matrix(0.010850694444444444,0,0,0.010850694444444444,187.3046875,0)" xlink:href="#bp"/><use transform="matrix(0.010850694444444444,0,0,0.010850694444444444,200.68359375,0)" xlink:href="#bA"/><use transform="matrix(0.010850694444444444,0,0,0.010850694444444444,214.0625,0)" xlink:href="#bc"/><use transform="matrix(0.010850694444444444,0,0,0.010850694444444444,227.44140625,0)" xlink:href="#bl"/></g><g id="E"><use transform="matrix(0.010850694444444444,0,0,0.010850694444444444,0,0)" xlink:href="#N"/><use transform="matrix(0.010850694444444444,0,0,0.010850694444444444,13.37890625,0)" xlink:href="#O"/><use transform="matrix(0.010850694444444444,0,0,0.010850694444444444,26.7578125,0)" xlink:href="#P"/><use transform="matrix(0.010850694444444444,0,0,0.010850694444444444,40.13671875,0)" xlink:href="#aU"/><use transform="matrix(0.010850694444444444,0,0,0.010850694444444444,53.515625,0)" xlink:href="#aI"/><use transform="matrix(0.010850694444444444,0,0,0.010850694444444444,66.89453125,0)" xlink:href="#aw"/><use transform="matrix(0.010850694444444444,0,0,0.010850694444444444,80.2734375,0)" xlink:href="#R"/><use transform="matrix(0.010850694444444444,0,0,0.010850694444444444,93.65234375,0)" xlink:href="#aP"/><use transform="matrix(0.010850694444444444,0,0,0.010850694444444444,107.03125,0)" xlink:href="#W"/><use transform="matrix(0.010850694444444444,0,0,0.010850694444444444,120.41015625,0)" xlink:href="#aw"/></g><g id="F"><use transform="matrix(0.010850694444444444,0,0,0.010850694444444444,0,0)" xlink:href="#Y"/><use transform="matrix(0.010850694444444444,0,0,0.010850694444444444,13.37890625,0)" xlink:href="#Z"/><use transform="matrix(0.010850694444444444,0,0,0.010850694444444444,26.7578125,0)" xlink:href="#aa"/><use transform="matrix(0.010850694444444444,0,0,0.010850694444444444,40.13671875,0)" xlink:href="#ab"/><use transform="matrix(0.010850694444444444,0,0,0.010850694444444444,53.515625,0)" xlink:href="#ac"/><use transform="matrix(0.010850694444444444,0,0,0.010850694444444444,66.89453125,0)" xlink:href="#ad"/><use transform="matrix(0.010850694444444444,0,0,0.010850694444444444,80.2734375,0)" xlink:href="#Y"/><use transform="matrix(0.010850694444444444,0,0,0.010850694444444444,93.65234375,0)" xlink:href="#ae"/><use transform="matrix(0.010850694444444444,0,0,0.010850694444444444,107.03125,0)" xlink:href="#aW"/><use transform="matrix(0.010850694444444444,0,0,0.010850694444444444,120.41015625,0)" xlink:href="#aK"/><use transform="matrix(0.010850694444444444,0,0,0.010850694444444444,133.7890625,0)" xlink:href="#an"/><use transform="matrix(0.010850694444444444,0,0,0.010850694444444444,147.16796875,0)" xlink:href="#ag"/><use transform="matrix(0.010850694444444444,0,0,0.010850694444444444,160.546875,0)" xlink:href="#aD"/><use transform="matrix(0.010850694444444444,0,0,0.010850694444444444,173.92578125,0)" xlink:href="#az"/><use transform="matrix(0.010850694444444444,0,0,0.010850694444444444,187.3046875,0)" xlink:href="#an"/><use transform="matrix(0.010850694444444444,0,0,0.010850694444444444,200.68359375,0)" xlink:href="#aK"/></g><g id="G"><use transform="matrix(0.010850694444444444,0,0,0.010850694444444444,0,0)" xlink:href="#Y"/><use transform="matrix(0.010850694444444444,0,0,0.010850694444444444,13.37890625,0)" xlink:href="#Z"/><use transform="matrix(0.010850694444444444,0,0,0.010850694444444444,26.7578125,0)" xlink:href="#aa"/><use transform="matrix(0.010850694444444444,0,0,0.010850694444444444,40.13671875,0)" xlink:href="#aB"/><use transform="matrix(0.010850694444444444,0,0,0.010850694444444444,53.515625,0)" xlink:href="#az"/><use transform="matrix(0.010850694444444444,0,0,0.010850694444444444,66.89453125,0)" xlink:href="#aT"/><use transform="matrix(0.010850694444444444,0,0,0.010850694444444444,80.2734375,0)" xlink:href="#az"/><use transform="matrix(0.010850694444444444,0,0,0.010850694444444444,93.65234375,0)" xlink:href="#aj"/><use transform="matrix(0.010850694444444444,0,0,0.010850694444444444,107.03125,0)" xlink:href="#aC"/><use transform="matrix(0.010850694444444444,0,0,0.010850694444444444,120.41015625,0)" xlink:href="#an"/><use transform="matrix(0.010850694444444444,0,0,0.010850694444444444,133.7890625,0)" xlink:href="#az"/></g><g id="H"><use transform="matrix(0.010850694444444444,0,0,0.010850694444444444,0,0)" xlink:href="#Y"/><use transform="matrix(0.010850694444444444,0,0,0.010850694444444444,13.37890625,0)" xlink:href="#Z"/><use transform="matrix(0.010850694444444444,0,0,0.010850694444444444,26.7578125,0)" xlink:href="#aa"/><use transform="matrix(0.010850694444444444,0,0,0.010850694444444444,40.13671875,0)" xlink:href="#aE"/><use transform="matrix(0.010850694444444444,0,0,0.010850694444444444,53.515625,0)" xlink:href="#aF"/><use transform="matrix(0.010850694444444444,0,0,0.010850694444444444,66.89453125,0)" xlink:href="#aG"/><use transform="matrix(0.010850694444444444,0,0,0.010850694444444444,80.2734375,0)" xlink:href="#aB"/><use transform="matrix(0.010850694444444444,0,0,0.010850694444444444,93.65234375,0)" xlink:href="#az"/><use transform="matrix(0.010850694444444444,0,0,0.010850694444444444,107.03125,0)" xlink:href="#aW"/><use transform="matrix(0.010850694444444444,0,0,0.010850694444444444,120.41015625,0)" xlink:href="#aK"/><use transform="matrix(0.010850694444444444,0,0,0.010850694444444444,133.7890625,0)" xlink:href="#an"/><use transform="matrix(0.010850694444444444,0,0,0.010850694444444444,147.16796875,0)" xlink:href="#ag"/><use transform="matrix(0.010850694444444444,0,0,0.010850694444444444,160.546875,0)" xlink:href="#aD"/><use transform="matrix(0.010850694444444444,0,0,0.010850694444444444,173.92578125,0)" xlink:href="#az"/><use transform="matrix(0.010850694444444444,0,0,0.010850694444444444,187.3046875,0)" xlink:href="#an"/><use transform="matrix(0.010850694444444444,0,0,0.010850694444444444,200.68359375,0)" xlink:href="#aK"/></g><g id="I"><use transform="matrix(0.010850694444444444,0,0,0.010850694444444444,0,0)" xlink:href="#Y"/><use transform="matrix(0.010850694444444444,0,0,0.010850694444444444,13.37890625,0)" xlink:href="#Z"/><use transform="matrix(0.010850694444444444,0,0,0.010850694444444444,26.7578125,0)" xlink:href="#aa"/><use transform="matrix(0.010850694444444444,0,0,0.010850694444444444,40.13671875,0)" xlink:href="#aA"/><use transform="matrix(0.010850694444444444,0,0,0.010850694444444444,53.515625,0)" xlink:href="#aH"/><use transform="matrix(0.010850694444444444,0,0,0.010850694444444444,66.89453125,0)" xlink:href="#al"/><use transform="matrix(0.010850694444444444,0,0,0.010850694444444444,80.2734375,0)" xlink:href="#aB"/><use transform="matrix(0.010850694444444444,0,0,0.010850694444444444,93.65234375,0)" xlink:href="#az"/><use transform="matrix(0.010850694444444444,0,0,0.010850694444444444,107.03125,0)" xlink:href="#aW"/><use transform="matrix(0.010850694444444444,0,0,0.010850694444444444,120.41015625,0)" xlink:href="#aK"/><use transform="matrix(0.010850694444444444,0,0,0.010850694444444444,133.7890625,0)" xlink:href="#an"/><use transform="matrix(0.010850694444444444,0,0,0.010850694444444444,147.16796875,0)" xlink:href="#ag"/><use transform="matrix(0.010850694444444444,0,0,0.010850694444444444,160.546875,0)" xlink:href="#aD"/><use transform="matrix(0.010850694444444444,0,0,0.010850694444444444,173.92578125,0)" xlink:href="#az"/><use transform="matrix(0.010850694444444444,0,0,0.010850694444444444,187.3046875,0)" xlink:href="#an"/><use transform="matrix(0.010850694444444444,0,0,0.010850694444444444,200.68359375,0)" xlink:href="#aK"/></g><g id="J"><use transform="matrix(0.010850694444444444,0,0,0.010850694444444444,0,0)" xlink:href="#Y"/><use transform="matrix(0.010850694444444444,0,0,0.010850694444444444,13.37890625,0)" xlink:href="#Z"/><use transform="matrix(0.010850694444444444,0,0,0.010850694444444444,26.7578125,0)" xlink:href="#aa"/><use transform="matrix(0.010850694444444444,0,0,0.010850694444444444,40.13671875,0)" xlink:href="#ae"/><use transform="matrix(0.010850694444444444,0,0,0.010850694444444444,53.515625,0)" xlink:href="#ap"/><use transform="matrix(0.010850694444444444,0,0,0.010850694444444444,66.89453125,0)" xlink:href="#aE"/><use transform="matrix(0.010850694444444444,0,0,0.010850694444444444,80.2734375,0)" xlink:href="#aB"/><use transform="matrix(0.010850694444444444,0,0,0.010850694444444444,93.65234375,0)" xlink:href="#az"/><use transform="matrix(0.010850694444444444,0,0,0.010850694444444444,107.03125,0)" xlink:href="#aW"/><use transform="matrix(0.010850694444444444,0,0,0.010850694444444444,120.41015625,0)" xlink:href="#aK"/><use transform="matrix(0.010850694444444444,0,0,0.010850694444444444,133.7890625,0)" xlink:href="#an"/><use transform="matrix(0.010850694444444444,0,0,0.010850694444444444,147.16796875,0)" xlink:href="#ag"/><use transform="matrix(0.010850694444444444,0,0,0.010850694444444444,160.546875,0)" xlink:href="#aD"/><use transform="matrix(0.010850694444444444,0,0,0.010850694444444444,173.92578125,0)" xlink:href="#az"/><use transform="matrix(0.010850694444444444,0,0,0.010850694444444444,187.3046875,0)" xlink:href="#an"/><use transform="matrix(0.010850694444444444,0,0,0.010850694444444444,200.68359375,0)" xlink:href="#aK"/></g><g id="K"><use transform="matrix(0.010850694444444444,0,0,0.010850694444444444,0,0)" xlink:href="#bc"/><use transform="matrix(0.010850694444444444,0,0,0.010850694444444444,13.37890625,0)" xlink:href="#bd"/><use transform="matrix(0.010850694444444444,0,0,0.010850694444444444,26.7578125,0)" xlink:href="#be"/><use transform="matrix(0.010850694444444444,0,0,0.010850694444444444,40.13671875,0)" xlink:href="#bl"/><use transform="matrix(0.010850694444444444,0,0,0.010850694444444444,53.515625,0)" xlink:href="#bg"/><use transform="matrix(0.010850694444444444,0,0,0.010850694444444444,66.89453125,0)" xlink:href="#bq"/><use transform="matrix(0.010850694444444444,0,0,0.010850694444444444,80.2734375,0)" xlink:href="#br"/><use transform="matrix(0.010850694444444444,0,0,0.010850694444444444,93.65234375,0)" xlink:href="#bf"/><use transform="matrix(0.010850694444444444,0,0,0.010850694444444444,107.03125,0)" xlink:href="#br"/></g><path fill="#333" d="M762-211c132 0 221-47 299-115v269C968-3 859 29 719 29c-350 3-551-232-551-588 0-357 203-592 553-590 139 1 241 34 340 86v268c-75-64-172-114-299-114-201 0-297 140-297 350s96 348 297 348" id="bB"/><path fill="#333" d="M616-246l263-1247h297L821 0H412L57-1493h297" id="bC"/><g id="L"><use transform="matrix(0.010850694444444444,0,0,0.010850694444444444,0,0)" xlink:href="#bc"/><use transform="matrix(0.010850694444444444,0,0,0.010850694444444444,13.37890625,0)" xlink:href="#bd"/><use transform="matrix(0.010850694444444444,0,0,0.010850694444444444,26.7578125,0)" xlink:href="#be"/><use transform="matrix(0.010850694444444444,0,0,0.010850694444444444,40.13671875,0)" xlink:href="#bl"/><use transform="matrix(0.010850694444444444,0,0,0.010850694444444444,53.515625,0)" xlink:href="#bg"/><use transform="matrix(0.010850694444444444,0,0,0.010850694444444444,66.89453125,0)" xlink:href="#bB"/><use transform="matrix(0.010850694444444444,0,0,0.010850694444444444,80.2734375,0)" xlink:href="#bt"/><use transform="matrix(0.010850694444444444,0,0,0.010850694444444444,93.65234375,0)" xlink:href="#bm"/><use transform="matrix(0.010850694444444444,0,0,0.010850694444444444,107.03125,0)" xlink:href="#bf"/><use transform="matrix(0.010850694444444444,0,0,0.010850694444444444,120.41015625,0)" xlink:href="#br"/><use transform="matrix(0.010850694444444444,0,0,0.010850694444444444,133.7890625,0)" xlink:href="#bw"/><use transform="matrix(0.010850694444444444,0,0,0.010850694444444444,147.16796875,0)" xlink:href="#bc"/><use transform="matrix(0.010850694444444444,0,0,0.010850694444444444,160.546875,0)" xlink:href="#bC"/></g><g id="M"><use transform="matrix(0.010850694444444444,0,0,0.010850694444444444,0,0)" xlink:href="#ba"/><use transform="matrix(0.010850694444444444,0,0,0.010850694444444444,13.37890625,0)" xlink:href="#aZ"/><use transform="matrix(0.010850694444444444,0,0,0.010850694444444444,26.7578125,0)" xlink:href="#aZ"/><use transform="matrix(0.010850694444444444,0,0,0.010850694444444444,40.13671875,0)" xlink:href="#aY"/></g></defs></g></svg>