<svg xmlns="http://www.w3.org/2000/svg" width="1155.046142578125" height="697.7380981445312" viewBox="-868.8824462890625 -378.3416442871094 1155.046142578125 697.7380981445312"><title>Neo4j Graph Visualization</title><desc>Created using Neo4j (http://www.neo4j.com/)</desc><g class="layer relationships"><g class="relationship" transform="translate(46.92951602748863 227.06845121596575) rotate(377.01059937769935)"><path class="b-outline" fill="#A5ABB6" stroke="none" d="M 25 0.5 L 79.72512358761668 0.5 L 79.72512358761668 -0.5 L 25 -0.5 Z M 129.74465483761668 0.5 L 184.46977842523336 0.5 L 184.46977842523336 3.5 L 191.46977842523336 0 L 184.46977842523336 -3.5 L 184.46977842523336 -0.5 L 129.74465483761668 -0.5 Z"/><text text-anchor="middle" pointer-events="none" font-size="8px" fill="#000000" x="104.73488921261668" y="3" font-family="Helvetica Neue, Helvetica, Arial, sans-serif">Zaměstnává</text></g><g class="relationship" transform="translate(46.92951602748863 227.06845121596575) rotate(351.5168239749685)"><path class="b-outline" fill="#A5ABB6" stroke="none" d="M 25 0.5 L 76.41685443662841 0.5 L 76.41685443662841 -0.5 L 25 -0.5 Z M 126.43638568662841 0.5 L 177.85324012325682 0.5 L 177.85324012325682 3.5 L 184.85324012325682 0 L 177.85324012325682 -3.5 L 177.85324012325682 -0.5 L 126.43638568662841 -0.5 Z"/><text text-anchor="middle" pointer-events="none" font-size="8px" fill="#000000" x="101.42662006162841" y="3" font-family="Helvetica Neue, Helvetica, Arial, sans-serif">Zaměstnává</text></g><g class="relationship" transform="translate(28.856121904991596 -13.824647135228684) rotate(386.07978578637994)"><path class="b-outline" fill="#A5ABB6" stroke="none" d="M 25 0.5 L 98.05095435158813 0.5 L 98.05095435158813 -0.5 L 25 -0.5 Z M 148.07048560158813 0.5 L 221.12143995317626 0.5 L 221.12143995317626 3.5 L 228.12143995317626 0 L 221.12143995317626 -3.5 L 221.12143995317626 -0.5 L 148.07048560158813 -0.5 Z"/><text text-anchor="middle" pointer-events="none" font-size="8px" fill="#000000" x="123.06071997658813" y="3" font-family="Helvetica Neue, Helvetica, Arial, sans-serif">Zaměstnává</text></g><g class="relationship" transform="translate(28.856121904991596 -13.824647135228684) rotate(336.8176180216976)"><path class="b-outline" fill="#A5ABB6" stroke="none" d="M 25 0.5 L 94.79349873536614 0.5 L 94.79349873536614 -0.5 L 25 -0.5 Z M 144.81302998536614 0.5 L 214.60652872073229 0.5 L 214.60652872073229 3.5 L 221.60652872073229 0 L 214.60652872073229 -3.5 L 214.60652872073229 -0.5 L 144.81302998536614 -0.5 Z"/><text text-anchor="middle" pointer-events="none" font-size="8px" fill="#000000" x="119.80326436036614" y="3" font-family="Helvetica Neue, Helvetica, Arial, sans-serif">Zaměstnává</text></g><g class="relationship" transform="translate(28.856121904991596 -13.824647135228684) rotate(360.56464701405355)"><path class="b-outline" fill="#A5ABB6" stroke="none" d="M 25 0.5 L 83.35404291063527 0.5 L 83.35404291063527 -0.5 L 25 -0.5 Z M 133.37357416063526 0.5 L 191.72761707127054 0.5 L 191.72761707127054 3.5 L 198.72761707127054 0 L 191.72761707127054 -3.5 L 191.72761707127054 -0.5 L 133.37357416063526 -0.5 Z"/><text text-anchor="middle" pointer-events="none" font-size="8px" fill="#000000" x="108.36380853563527" y="3" font-family="Helvetica Neue, Helvetica, Arial, sans-serif">Zaměstnává</text></g><g class="relationship" transform="translate(20.99729088357782 -269.6344250873427) rotate(341.8040286838419)"><path class="b-outline" fill="#A5ABB6" stroke="none" d="M 25 0.5 L 95.78904240911586 0.5 L 95.78904240911586 -0.5 L 25 -0.5 Z M 145.80857365911586 0.5 L 216.59761606823173 0.5 L 216.59761606823173 3.5 L 223.59761606823173 0 L 216.59761606823173 -3.5 L 216.59761606823173 -0.5 L 145.80857365911586 -0.5 Z"/><text text-anchor="middle" pointer-events="none" font-size="8px" fill="#000000" x="120.79880803411586" y="3" font-family="Helvetica Neue, Helvetica, Arial, sans-serif">Zaměstnává</text></g><g class="relationship" transform="translate(20.99729088357782 -269.6344250873427) rotate(372.3554081763925)"><path class="b-outline" fill="#A5ABB6" stroke="none" d="M 25 0.5 L 92.03976407530114 0.5 L 92.03976407530114 -0.5 L 25 -0.5 Z M 142.05929532530115 0.5 L 209.09905940060227 0.5 L 209.09905940060227 3.5 L 216.09905940060227 0 L 209.09905940060227 -3.5 L 209.09905940060227 -0.5 L 142.05929532530115 -0.5 Z"/><text text-anchor="middle" pointer-events="none" font-size="8px" fill="#000000" x="117.04952970030114" y="3" font-family="Helvetica Neue, Helvetica, Arial, sans-serif">Zaměstnává</text></g><g class="relationship" transform="translate(-660.2891905528882 285.21436173913077) rotate(197.81449377743616)"><path class="b-outline" fill="#A5ABB6" stroke="none" d="M 25 0.5 L 64.6851187008016 0.5 L 64.6851187008016 -0.5 L 25 -0.5 Z M 104.9312124508016 0.5 L 144.6163311516032 0.5 L 144.6163311516032 3.5 L 151.6163311516032 0 L 144.6163311516032 -3.5 L 144.6163311516032 -0.5 L 104.9312124508016 -0.5 Z"/><text text-anchor="middle" pointer-events="none" font-size="8px" fill="#000000" x="84.8081655758016" y="3" transform="rotate(180 84.8081655758016 0)" font-family="Helvetica Neue, Helvetica, Arial, sans-serif">Obsahuje</text></g><g class="relationship" transform="translate(-661.2834500161839 49.05502917304534) rotate(232.81246893861976)"><path class="b-outline" fill="#A5ABB6" stroke="none" d="M 25 0.5 L 118.92979179980136 0.5 L 118.92979179980136 -0.5 L 25 -0.5 Z M 159.17588554980136 0.5 L 253.10567734960273 0.5 L 253.10567734960273 3.5 L 260.10567734960273 0 L 253.10567734960273 -3.5 L 253.10567734960273 -0.5 L 159.17588554980136 -0.5 Z"/><text text-anchor="middle" pointer-events="none" font-size="8px" fill="#000000" x="139.05283867480136" y="3" transform="rotate(180 139.05283867480136 0)" font-family="Helvetica Neue, Helvetica, Arial, sans-serif">Obsahuje</text></g><g class="relationship" transform="translate(-659.2617364209648 -209.9213132652137) rotate(529.6492907435952)"><path class="b-outline" fill="#A5ABB6" stroke="none" d="M 25 0.5 L 64.99251098902141 0.5 L 64.99251098902141 -0.5 L 25 -0.5 Z M 105.23860473902141 0.5 L 145.23111572804282 0.5 L 145.23111572804282 3.5 L 152.23111572804282 0 L 145.23111572804282 -3.5 L 145.23111572804282 -0.5 L 105.23860473902141 -0.5 Z"/><text text-anchor="middle" pointer-events="none" font-size="8px" fill="#000000" x="85.11555786402141" y="3" transform="rotate(180 85.11555786402141 0)" font-family="Helvetica Neue, Helvetica, Arial, sans-serif">Obsahuje</text></g><g class="relationship" transform="translate(-661.9442547102338 162.8692887612647) rotate(202.0989266590782)"><path class="b-outline" fill="#A5ABB6" stroke="none" d="M 25 0.5 L 67.89394237522485 0.5 L 67.89394237522485 -0.5 L 25 -0.5 Z M 108.14003612522485 0.5 L 151.0339785004497 0.5 L 151.0339785004497 3.5 L 158.0339785004497 0 L 151.0339785004497 -3.5 L 151.0339785004497 -0.5 L 108.14003612522485 -0.5 Z"/><text text-anchor="middle" pointer-events="none" font-size="8px" fill="#000000" x="88.01698925022485" y="3" transform="rotate(180 88.01698925022485 0)" font-family="Helvetica Neue, Helvetica, Arial, sans-serif">Obsahuje</text></g><g class="relationship" transform="translate(-662.8610923278674 -349.3416238980719) rotate(533.741412314457)"><path class="b-outline" fill="#A5ABB6" stroke="none" d="M 25 0.5 L 65.41829402081397 0.5 L 65.41829402081397 -0.5 L 25 -0.5 Z M 105.66438777081397 0.5 L 146.08268179162795 0.5 L 146.08268179162795 3.5 L 153.08268179162795 0 L 146.08268179162795 -3.5 L 146.08268179162795 -0.5 L 105.66438777081397 -0.5 Z"/><text text-anchor="middle" pointer-events="none" font-size="8px" fill="#000000" x="85.54134089581397" y="3" transform="rotate(180 85.54134089581397 0)" font-family="Helvetica Neue, Helvetica, Arial, sans-serif">Obsahuje</text></g><g class="relationship" transform="translate(-662.8610923278674 -349.3416238980719) rotate(494.91349449759014)"><path class="b-outline" fill="#A5ABB6" stroke="none" d="M 25 0.5 L 97.29642211046949 0.5 L 97.29642211046949 -0.5 L 25 -0.5 Z M 137.5425158604695 0.5 L 209.83893797093899 0.5 L 209.83893797093899 3.5 L 216.83893797093899 0 L 209.83893797093899 -3.5 L 209.83893797093899 -0.5 L 137.5425158604695 -0.5 Z"/><text text-anchor="middle" pointer-events="none" font-size="8px" fill="#000000" x="117.41946898546949" y="3" transform="rotate(180 117.41946898546949 0)" font-family="Helvetica Neue, Helvetica, Arial, sans-serif">Obsahuje</text></g><g class="relationship" transform="translate(-419.0235405816074 208.72665587199248) rotate(246.39797271558746)"><path class="b-outline" fill="#A5ABB6" stroke="none" d="M 25 0.5 L 280.88350335304057 0.5 L 280.88350335304057 -0.5 L 25 -0.5 Z M 321.12959710304057 0.5 L 577.0131004560811 0.5 L 577.0131004560811 3.5 L 584.0131004560811 0 L 577.0131004560811 -3.5 L 577.0131004560811 -0.5 L 321.12959710304057 -0.5 Z"/><text text-anchor="middle" pointer-events="none" font-size="8px" fill="#000000" x="301.00655022804057" y="3" transform="rotate(180 301.00655022804057 0)" font-family="Helvetica Neue, Helvetica, Arial, sans-serif">Obsahuje</text></g><g class="relationship" transform="translate(-419.0235405816074 208.72665587199248) rotate(213.38856679198028)"><path class="b-outline" fill="#A5ABB6" stroke="none" d="M 25 0.5 L 121.4501175041652 0.5 L 121.4501175041652 -0.5 L 25 -0.5 Z M 161.6962112541652 0.5 L 258.1463287583304 0.5 L 258.1463287583304 3.5 L 265.1463287583304 0 L 258.1463287583304 -3.5 L 258.1463287583304 -0.5 L 161.6962112541652 -0.5 Z"/><text text-anchor="middle" pointer-events="none" font-size="8px" fill="#000000" x="141.5731643791652" y="3" transform="rotate(180 141.5731643791652 0)" font-family="Helvetica Neue, Helvetica, Arial, sans-serif">Obsahuje</text></g><g class="relationship" transform="translate(-419.0235405816074 208.72665587199248) rotate(522.4099833728535)"><path class="b-outline" fill="#A5ABB6" stroke="none" d="M 25 0.5 L 102.92682768527212 0.5 L 102.92682768527212 -0.5 L 25 -0.5 Z M 143.17292143527212 0.5 L 221.09974912054423 0.5 L 221.09974912054423 3.5 L 228.09974912054423 0 L 221.09974912054423 -3.5 L 221.09974912054423 -0.5 L 143.17292143527212 -0.5 Z"/><text text-anchor="middle" pointer-events="none" font-size="8px" fill="#000000" x="123.04987456027212" y="3" transform="rotate(180 123.04987456027212 0)" font-family="Helvetica Neue, Helvetica, Arial, sans-serif">Obsahuje</text></g><g class="relationship" transform="translate(-427.7379718498373 -19.986639459736715) rotate(487.3059820357582)"><path class="b-outline" fill="#A5ABB6" stroke="none" d="M 25 0.5 L 168.22827606353573 0.5 L 168.22827606353573 -0.5 L 25 -0.5 Z M 208.47436981353573 0.5 L 351.70264587707146 0.5 L 351.70264587707146 3.5 L 358.70264587707146 0 L 351.70264587707146 -3.5 L 351.70264587707146 -0.5 L 208.47436981353573 -0.5 Z"/><text text-anchor="middle" pointer-events="none" font-size="8px" fill="#000000" x="188.35132293853573" y="3" transform="rotate(180 188.35132293853573 0)" font-family="Helvetica Neue, Helvetica, Arial, sans-serif">Obsahuje</text></g><g class="relationship" transform="translate(-427.7379718498373 -19.986639459736715) rotate(523.5310515024225)"><path class="b-outline" fill="#A5ABB6" stroke="none" d="M 25 0.5 L 98.1454243927571 0.5 L 98.1454243927571 -0.5 L 25 -0.5 Z M 138.3915181427571 0.5 L 211.5369425355142 0.5 L 211.5369425355142 3.5 L 218.5369425355142 0 L 211.5369425355142 -3.5 L 211.5369425355142 -0.5 L 138.3915181427571 -0.5 Z"/><text text-anchor="middle" pointer-events="none" font-size="8px" fill="#000000" x="118.2684712677571" y="3" transform="rotate(180 118.2684712677571 0)" font-family="Helvetica Neue, Helvetica, Arial, sans-serif">Obsahuje</text></g><g class="relationship" transform="translate(-427.7379718498373 -19.986639459736715) rotate(502.0191570252259)"><path class="b-outline" fill="#A5ABB6" stroke="none" d="M 25 0.5 L 124.94417142773332 0.5 L 124.94417142773332 -0.5 L 25 -0.5 Z M 165.19026517773332 0.5 L 265.13443660546665 0.5 L 265.13443660546665 3.5 L 272.13443660546665 0 L 265.13443660546665 -3.5 L 265.13443660546665 -0.5 L 165.19026517773332 -0.5 Z"/><text text-anchor="middle" pointer-events="none" font-size="8px" fill="#000000" x="145.06721830273332" y="3" transform="rotate(180 145.06721830273332 0)" font-family="Helvetica Neue, Helvetica, Arial, sans-serif">Obsahuje</text></g><g class="relationship" transform="translate(-427.7379718498373 -19.986639459736715) rotate(194.31720049908887)"><path class="b-outline" fill="#A5ABB6" stroke="none" d="M 25 0.5 L 95.92711600412234 0.5 L 95.92711600412234 -0.5 L 25 -0.5 Z M 136.17320975412235 0.5 L 207.10032575824468 0.5 L 207.10032575824468 3.5 L 214.10032575824468 0 L 207.10032575824468 -3.5 L 207.10032575824468 -0.5 L 136.17320975412235 -0.5 Z"/><text text-anchor="middle" pointer-events="none" font-size="8px" fill="#000000" x="116.05016287912234" y="3" transform="rotate(180 116.05016287912234 0)" font-family="Helvetica Neue, Helvetica, Arial, sans-serif">Obsahuje</text></g><g class="relationship" transform="translate(-427.7379718498373 -19.986639459736715) rotate(219.36435583545244)"><path class="b-outline" fill="#A5ABB6" stroke="none" d="M 25 0.5 L 126.10874156250898 0.5 L 126.10874156250898 -0.5 L 25 -0.5 Z M 166.35483531250898 0.5 L 267.46357687501796 0.5 L 267.46357687501796 3.5 L 274.46357687501796 0 L 267.46357687501796 -3.5 L 267.46357687501796 -0.5 L 166.35483531250898 -0.5 Z"/><text text-anchor="middle" pointer-events="none" font-size="8px" fill="#000000" x="146.23178843750898" y="3" transform="rotate(180 146.23178843750898 0)" font-family="Helvetica Neue, Helvetica, Arial, sans-serif">Obsahuje</text></g><g class="relationship" transform="translate(-433.5438635666948 -264.6630326587435) rotate(200.2673717032592)"><path class="b-outline" fill="#A5ABB6" stroke="none" d="M 25 0.5 L 98.60302974224768 0.5 L 98.60302974224768 -0.5 L 25 -0.5 Z M 138.84912349224768 0.5 L 212.45215323449537 0.5 L 212.45215323449537 3.5 L 219.45215323449537 0 L 212.45215323449537 -3.5 L 212.45215323449537 -0.5 L 138.84912349224768 -0.5 Z"/><text text-anchor="middle" pointer-events="none" font-size="8px" fill="#000000" x="118.72607661724768" y="3" transform="rotate(180 118.72607661724768 0)" font-family="Helvetica Neue, Helvetica, Arial, sans-serif">Obsahuje</text></g><g class="relationship" transform="translate(-433.5438635666948 -264.6630326587435) rotate(472.40910376804516)"><path class="b-outline" fill="#A5ABB6" stroke="none" d="M 25 0.5 L 273.7734024060359 0.5 L 273.7734024060359 -0.5 L 25 -0.5 Z M 314.0194961560359 0.5 L 562.7928985620719 0.5 L 562.7928985620719 3.5 L 569.7928985620719 0 L 562.7928985620719 -3.5 L 562.7928985620719 -0.5 L 314.0194961560359 -0.5 Z"/><text text-anchor="middle" pointer-events="none" font-size="8px" fill="#000000" x="293.8964492810359" y="3" transform="rotate(180 293.8964492810359 0)" font-family="Helvetica Neue, Helvetica, Arial, sans-serif">Obsahuje</text></g><g class="relationship" transform="translate(-433.5438635666948 -264.6630326587435) rotate(526.367674444713)"><path class="b-outline" fill="#A5ABB6" stroke="none" d="M 25 0.5 L 92.50749816808538 0.5 L 92.50749816808538 -0.5 L 25 -0.5 Z M 132.75359191808536 0.5 L 200.26109008617075 0.5 L 200.26109008617075 3.5 L 207.26109008617075 0 L 200.26109008617075 -3.5 L 200.26109008617075 -0.5 L 132.75359191808536 -0.5 Z"/><text text-anchor="middle" pointer-events="none" font-size="8px" fill="#000000" x="112.63054504308538" y="3" transform="rotate(180 112.63054504308538 0)" font-family="Helvetica Neue, Helvetica, Arial, sans-serif">Obsahuje</text></g><g class="relationship" transform="translate(46.92951602748863 227.06845121596575) rotate(182.25422957887406)"><path class="b-outline" fill="#A5ABB6" stroke="none" d="M 25 0.5 L 215.2448508576937 0.5 L 215.2448508576937 -0.5 L 25 -0.5 Z M 244.0690696076937 0.5 L 434.3139204653874 0.5 L 434.3139204653874 3.5 L 441.3139204653874 0 L 434.3139204653874 -3.5 L 434.3139204653874 -0.5 L 244.0690696076937 -0.5 Z"/><text text-anchor="middle" pointer-events="none" font-size="8px" fill="#000000" x="229.6569602326937" y="3" transform="rotate(180 229.6569602326937 0)" font-family="Helvetica Neue, Helvetica, Arial, sans-serif">Vyrábí</text></g><g class="relationship" transform="translate(28.856121904991596 -13.824647135228684) rotate(513.5772288695225)"><path class="b-outline" fill="#A5ABB6" stroke="none" d="M 25 0.5 L 232.1505200497712 0.5 L 232.1505200497712 -0.5 L 25 -0.5 Z M 260.9747387997712 0.5 L 468.1252588495424 0.5 L 468.1252588495424 3.5 L 475.1252588495424 0 L 468.1252588495424 -3.5 L 468.1252588495424 -0.5 L 260.9747387997712 -0.5 Z"/><text text-anchor="middle" pointer-events="none" font-size="8px" fill="#000000" x="246.5626294247712" y="3" transform="rotate(180 246.5626294247712 0)" font-family="Helvetica Neue, Helvetica, Arial, sans-serif">Vyrábí</text></g><g class="relationship" transform="translate(28.856121904991596 -13.824647135228684) rotate(180.7731916087091)"><path class="b-outline" fill="#A5ABB6" stroke="none" d="M 25 0.5 L 210.40572643793033 0.5 L 210.40572643793033 -0.5 L 25 -0.5 Z M 239.22994518793033 0.5 L 424.63567162586065 0.5 L 424.63567162586065 3.5 L 431.63567162586065 0 L 424.63567162586065 -3.5 L 424.63567162586065 -0.5 L 239.22994518793033 -0.5 Z"/><text text-anchor="middle" pointer-events="none" font-size="8px" fill="#000000" x="224.81783581293033" y="3" transform="rotate(180 224.81783581293033 0)" font-family="Helvetica Neue, Helvetica, Arial, sans-serif">Vyrábí</text></g><g class="relationship" transform="translate(20.99729088357782 -269.6344250873427) rotate(510.9112173772021)"><path class="b-outline" fill="#A5ABB6" stroke="none" d="M 25 0.5 L 238.84037497967682 0.5 L 238.84037497967682 -0.5 L 25 -0.5 Z M 267.6645937296768 0.5 L 481.50496870935365 0.5 L 481.50496870935365 3.5 L 488.50496870935365 0 L 481.50496870935365 -3.5 L 481.50496870935365 -0.5 L 267.6645937296768 -0.5 Z"/><text text-anchor="middle" pointer-events="none" font-size="8px" fill="#000000" x="253.25248435467682" y="3" transform="rotate(180 253.25248435467682 0)" font-family="Helvetica Neue, Helvetica, Arial, sans-serif">Vyrábí</text></g><g class="relationship" transform="translate(20.99729088357782 -269.6344250873427) rotate(539.3733714872187)"><path class="b-outline" fill="#A5ABB6" stroke="none" d="M 25 0.5 L 209.37206068071777 0.5 L 209.37206068071777 -0.5 L 25 -0.5 Z M 238.19627943071777 0.5 L 422.56834011143553 0.5 L 422.56834011143553 3.5 L 429.56834011143553 0 L 422.56834011143553 -3.5 L 422.56834011143553 -0.5 L 238.19627943071777 -0.5 Z"/><text text-anchor="middle" pointer-events="none" font-size="8px" fill="#000000" x="223.78417005571777" y="3" transform="rotate(180 223.78417005571777 0)" font-family="Helvetica Neue, Helvetica, Arial, sans-serif">Vyrábí</text></g><g class="relationship" transform="translate(-189.02289795958825 169.77144364636155) rotate(530.387039970082)"><path class="b-outline" fill="#A5ABB6" stroke="none" d="M 25 0.5 L 98.57757314380615 0.5 L 98.57757314380615 -0.5 L 25 -0.5 Z M 127.69866689380615 0.5 L 201.2762400376123 0.5 L 201.2762400376123 3.5 L 208.2762400376123 0 L 201.2762400376123 -3.5 L 201.2762400376123 -0.5 L 127.69866689380615 -0.5 Z"/><text text-anchor="middle" pointer-events="none" font-size="8px" fill="#000000" x="113.13812001880615" y="3" transform="rotate(180 113.13812001880615 0)" font-family="Helvetica Neue, Helvetica, Arial, sans-serif">Nabízí</text></g><g class="relationship" transform="translate(-189.02289795958825 169.77144364636155) rotate(218.48169905820328)"><path class="b-outline" fill="#A5ABB6" stroke="none" d="M 25 0.5 L 134.41323497496919 0.5 L 134.41323497496919 -0.5 L 25 -0.5 Z M 163.53432872496919 0.5 L 272.94756369993837 0.5 L 272.94756369993837 3.5 L 279.94756369993837 0 L 272.94756369993837 -3.5 L 272.94756369993837 -0.5 L 163.53432872496919 -0.5 Z"/><text text-anchor="middle" pointer-events="none" font-size="8px" fill="#000000" x="148.97378184996919" y="3" transform="rotate(180 148.97378184996919 0)" font-family="Helvetica Neue, Helvetica, Arial, sans-serif">Nabízí</text></g><g class="relationship" transform="translate(-189.02289795958825 169.77144364636155) rotate(240.62706321194293)"><path class="b-outline" fill="#A5ABB6" stroke="none" d="M 25 0.5 L 231.20026874988048 0.5 L 231.20026874988048 -0.5 L 25 -0.5 Z M 260.3213624998805 0.5 L 466.52163124976096 0.5 L 466.52163124976096 3.5 L 473.52163124976096 0 L 466.52163124976096 -3.5 L 466.52163124976096 -0.5 L 260.3213624998805 -0.5 Z"/><text text-anchor="middle" pointer-events="none" font-size="8px" fill="#000000" x="245.76081562488048" y="3" transform="rotate(180 245.76081562488048 0)" font-family="Helvetica Neue, Helvetica, Arial, sans-serif">Nabízí</text></g><g class="relationship" transform="translate(-195.6289912150882 41.69687650668145) rotate(503.2149174106714)"><path class="b-outline" fill="#A5ABB6" stroke="none" d="M 25 0.5 L 121.40635948766965 0.5 L 121.40635948766965 -0.5 L 25 -0.5 Z M 150.52745323766965 0.5 L 246.9338127253393 0.5 L 246.9338127253393 3.5 L 253.9338127253393 0 L 246.9338127253393 -3.5 L 246.9338127253393 -0.5 L 150.52745323766965 -0.5 Z"/><text text-anchor="middle" pointer-events="none" font-size="8px" fill="#000000" x="135.96690636266965" y="3" transform="rotate(180 135.96690636266965 0)" font-family="Helvetica Neue, Helvetica, Arial, sans-serif">Nabízí</text></g><g class="relationship" transform="translate(-195.6289912150882 41.69687650668145) rotate(194.8824995628113)"><path class="b-outline" fill="#A5ABB6" stroke="none" d="M 25 0.5 L 102.02216944304648 0.5 L 102.02216944304648 -0.5 L 25 -0.5 Z M 131.1432631930465 0.5 L 208.16543263609296 0.5 L 208.16543263609296 3.5 L 215.16543263609296 0 L 208.16543263609296 -3.5 L 208.16543263609296 -0.5 L 131.1432631930465 -0.5 Z"/><text text-anchor="middle" pointer-events="none" font-size="8px" fill="#000000" x="116.58271631804648" y="3" transform="rotate(180 116.58271631804648 0)" font-family="Helvetica Neue, Helvetica, Arial, sans-serif">Nabízí</text></g><g class="relationship" transform="translate(-195.6289912150882 41.69687650668145) rotate(232.16758048558097)"><path class="b-outline" fill="#A5ABB6" stroke="none" d="M 25 0.5 L 175.88524479752422 0.5 L 175.88524479752422 -0.5 L 25 -0.5 Z M 205.00633854752422 0.5 L 355.89158334504845 0.5 L 355.89158334504845 3.5 L 362.89158334504845 0 L 355.89158334504845 -3.5 L 355.89158334504845 -0.5 L 205.00633854752422 -0.5 Z"/><text text-anchor="middle" pointer-events="none" font-size="8px" fill="#000000" x="190.44579167252422" y="3" transform="rotate(180 190.44579167252422 0)" font-family="Helvetica Neue, Helvetica, Arial, sans-serif">Nabízí</text></g><g class="relationship" transform="translate(-198.25391157334815 -205.5590869674975) rotate(501.03923951236186)"><path class="b-outline" fill="#A5ABB6" stroke="none" d="M 25 0.5 L 129.50305567912235 0.5 L 129.50305567912235 -0.5 L 25 -0.5 Z M 158.62414942912235 0.5 L 263.1272051082447 0.5 L 263.1272051082447 3.5 L 270.1272051082447 0 L 263.1272051082447 -3.5 L 263.1272051082447 -0.5 L 158.62414942912235 -0.5 Z"/><text text-anchor="middle" pointer-events="none" font-size="8px" fill="#000000" x="144.06360255412235" y="3" transform="rotate(180 144.06360255412235 0)" font-family="Helvetica Neue, Helvetica, Arial, sans-serif">Nabízí</text></g><g class="relationship" transform="translate(-198.25391157334815 -205.5590869674975) rotate(194.10073178331868)"><path class="b-outline" fill="#A5ABB6" stroke="none" d="M 25 0.5 L 103.2393273059994 0.5 L 103.2393273059994 -0.5 L 25 -0.5 Z M 132.36042105599938 0.5 L 210.5997483619988 0.5 L 210.5997483619988 3.5 L 217.5997483619988 0 L 210.5997483619988 -3.5 L 210.5997483619988 -0.5 L 132.36042105599938 -0.5 Z"/><text text-anchor="middle" pointer-events="none" font-size="8px" fill="#000000" x="117.7998741809994" y="3" transform="rotate(180 117.7998741809994 0)" font-family="Helvetica Neue, Helvetica, Arial, sans-serif">Nabízí</text></g><g class="relationship" transform="translate(-200.55540876073525 -348.7357704464755) rotate(484.64646814267667)"><path class="b-outline" fill="#A5ABB6" stroke="none" d="M 25 0.5 L 181.7443004737754 0.5 L 181.7443004737754 -0.5 L 25 -0.5 Z M 210.8653942237754 0.5 L 367.6096946975508 0.5 L 367.6096946975508 3.5 L 374.6096946975508 0 L 367.6096946975508 -3.5 L 367.6096946975508 -0.5 L 210.8653942237754 -0.5 Z"/><text text-anchor="middle" pointer-events="none" font-size="8px" fill="#000000" x="196.3048473487754" y="3" transform="rotate(180 196.3048473487754 0)" font-family="Helvetica Neue, Helvetica, Arial, sans-serif">Nabízí</text></g><g class="relationship" transform="translate(-200.55540876073525 -348.7357704464755) rotate(520.1582708532513)"><path class="b-outline" fill="#A5ABB6" stroke="none" d="M 25 0.5 L 105.78597640279877 0.5 L 105.78597640279877 -0.5 L 25 -0.5 Z M 134.90707015279878 0.5 L 215.69304655559753 0.5 L 215.69304655559753 3.5 L 222.69304655559753 0 L 215.69304655559753 -3.5 L 215.69304655559753 -0.5 L 134.90707015279878 -0.5 Z"/><text text-anchor="middle" pointer-events="none" font-size="8px" fill="#000000" x="120.34652327779877" y="3" transform="rotate(180 120.34652327779877 0)" font-family="Helvetica Neue, Helvetica, Arial, sans-serif">Nabízí</text></g><g class="relationship" transform="translate(-189.02289795958825 169.77144364636155) rotate(373.649107158162)"><path class="b-outline" fill="#A5ABB6" stroke="none" d="M 25 0.5 L 92.6704115023865 0.5 L 92.6704115023865 -0.5 L 25 -0.5 Z M 143.13916150238651 0.5 L 210.809573004773 0.5 L 210.809573004773 3.5 L 217.809573004773 0 L 210.809573004773 -3.5 L 210.809573004773 -0.5 L 143.13916150238651 -0.5 Z"/><text text-anchor="middle" pointer-events="none" font-size="8px" fill="#000000" x="117.9047865023865" y="3" font-family="Helvetica Neue, Helvetica, Arial, sans-serif">NacházíSaV</text></g><g class="relationship" transform="translate(-195.6289912150882 41.69687650668145) rotate(346.1079189123327)"><path class="b-outline" fill="#A5ABB6" stroke="none" d="M 25 0.5 L 86.890239161577 0.5 L 86.890239161577 -0.5 L 25 -0.5 Z M 137.358989161577 0.5 L 199.249228323154 0.5 L 199.249228323154 3.5 L 206.249228323154 0 L 199.249228323154 -3.5 L 199.249228323154 -0.5 L 137.358989161577 -0.5 Z"/><text text-anchor="middle" pointer-events="none" font-size="8px" fill="#000000" x="112.124614161577" y="3" font-family="Helvetica Neue, Helvetica, Arial, sans-serif">NacházíSaV</text></g><g class="relationship" transform="translate(-198.25391157334815 -205.5590869674975) rotate(343.70919673312244)"><path class="b-outline" fill="#A5ABB6" stroke="none" d="M 25 0.5 L 85.47676580287924 0.5 L 85.47676580287924 -0.5 L 25 -0.5 Z M 135.94551580287924 0.5 L 196.42228160575849 0.5 L 196.42228160575849 3.5 L 203.42228160575849 0 L 196.42228160575849 -3.5 L 196.42228160575849 -0.5 L 135.94551580287924 -0.5 Z"/><text text-anchor="middle" pointer-events="none" font-size="8px" fill="#000000" x="110.71114080287924" y="3" font-family="Helvetica Neue, Helvetica, Arial, sans-serif">NacházíSaV</text></g><g class="relationship" transform="translate(-200.55540876073525 -348.7357704464755) rotate(379.64817739932937)"><path class="b-outline" fill="#A5ABB6" stroke="none" d="M 25 0.5 L 88.89068776014054 0.5 L 88.89068776014054 -0.5 L 25 -0.5 Z M 139.35943776014054 0.5 L 203.25012552028107 0.5 L 203.25012552028107 3.5 L 210.25012552028107 0 L 203.25012552028107 -3.5 L 203.25012552028107 -0.5 L 139.35943776014054 -0.5 Z"/><text text-anchor="middle" pointer-events="none" font-size="8px" fill="#000000" x="114.12506276014054" y="3" font-family="Helvetica Neue, Helvetica, Arial, sans-serif">NacházíSaV</text></g></g><g class="layer nodes"><g class="node" aria-label="graph-node0" transform="translate(253.9288829098029,290.39638408757213)"><circle class="b-outline" cx="0" cy="0" r="25" fill="#F79767" stroke="#f36924" stroke-width="2px"/><text class="caption" text-anchor="middle" pointer-events="none" x="0" y="5" font-size="10px" fill="#FFFFFF" font-family="Helvetica Neue, Helvetica, Arial, sans-serif"> Zeus</text></g><g class="node" aria-label="graph-node1" transform="translate(254.48679855487796,196.11111185879923)"><circle class="b-outline" cx="0" cy="0" r="25" fill="#F79767" stroke="#f36924" stroke-width="2px"/><text class="caption" text-anchor="middle" pointer-events="none" x="0" y="5" font-size="10px" fill="#FFFFFF" font-family="Helvetica Neue, Helvetica, Arial, sans-serif"> Athéna</text></g><g class="node" aria-label="graph-node2" transform="translate(256.20542847715643,97.45318608022008)"><circle class="b-outline" cx="0" cy="0" r="25" fill="#F79767" stroke="#f36924" stroke-width="2px"/><text class="caption" text-anchor="middle" pointer-events="none" x="0" y="5" font-size="10px" fill="#FFFFFF" font-family="Helvetica Neue, Helvetica, Arial, sans-serif"> Hádes</text></g><g class="node" aria-label="graph-node3" transform="translate(255.55075910600434,-110.90359167002767)"><circle class="b-outline" cx="0" cy="0" r="25" fill="#F79767" stroke="#f36924" stroke-width="2px"/><text class="caption" text-anchor="middle" pointer-events="none" x="0" y="5" font-size="10px" fill="#FFFFFF" font-family="Helvetica Neue, Helvetica, Arial, sans-serif"> Afrodita</text></g><g class="node" aria-label="graph-node4" transform="translate(252.57287484777316,-11.619858454311887)"><circle class="b-outline" cx="0" cy="0" r="25" fill="#F79767" stroke="#f36924" stroke-width="2px"/><text class="caption" text-anchor="middle" pointer-events="none" x="0" y="5" font-size="10px" fill="#FFFFFF" font-family="Helvetica Neue, Helvetica, Arial, sans-serif"> Hermes</text></g><g class="node" aria-label="graph-node5" transform="translate(256.5122804003627,-218.0452192709722)"><circle class="b-outline" cx="0" cy="0" r="25" fill="#F79767" stroke="#f36924" stroke-width="2px"/><text class="caption" text-anchor="middle" pointer-events="none" x="0" y="5" font-size="10px" fill="#FFFFFF" font-family="Helvetica Neue, Helvetica, Arial, sans-serif"> Artemis</text></g><g class="node" aria-label="graph-node6" transform="translate(257.16353720542384,-347.26353569062803)"><circle class="b-outline" cx="0" cy="0" r="25" fill="#F79767" stroke="#f36924" stroke-width="2px"/><text class="caption" text-anchor="middle" pointer-events="none" x="0" y="5" font-size="10px" fill="#FFFFFF" font-family="Helvetica Neue, Helvetica, Arial, sans-serif"> Apollo</text></g><g class="node" aria-label="graph-node7" transform="translate(46.92951602748863,227.06845121596575)"><circle class="b-outline" cx="0" cy="0" r="25" fill="#C990C0" stroke="#b261a5" stroke-width="2px"/><text class="caption" text-anchor="middle" pointer-events="none" x="0" y="0" font-size="10px" fill="#FFFFFF" font-family="Helvetica Neue, Helvetica, Arial, sans-serif"> Karlíkova</text><text class="caption" text-anchor="middle" pointer-events="none" x="0" y="10" font-size="10px" fill="#FFFFFF" font-family="Helvetica Neue, Helvetica, Arial, sans-serif">n…</text></g><g class="node" aria-label="graph-node8" transform="translate(28.856121904991596,-13.824647135228684)"><circle class="b-outline" cx="0" cy="0" r="25" fill="#C990C0" stroke="#b261a5" stroke-width="2px"/><text class="caption" text-anchor="middle" pointer-events="none" x="0" y="0" font-size="10px" fill="#FFFFFF" font-family="Helvetica Neue, Helvetica, Arial, sans-serif"> Haribo</text><text class="caption" text-anchor="middle" pointer-events="none" x="0" y="10" font-size="10px" fill="#FFFFFF" font-family="Helvetica Neue, Helvetica, Arial, sans-serif"> Indust…</text></g><g class="node" aria-label="graph-node9" transform="translate(20.99729088357782,-269.6344250873427)"><circle class="b-outline" cx="0" cy="0" r="25" fill="#C990C0" stroke="#b261a5" stroke-width="2px"/><text class="caption" text-anchor="middle" pointer-events="none" x="0" y="5" font-size="10px" fill="#FFFFFF" font-family="Helvetica Neue, Helvetica, Arial, sans-serif"> Cukráre…</text></g><g class="node" aria-label="graph-node10" transform="translate(-419.0235405816074,208.72665587199248)"><circle class="b-outline" cx="0" cy="0" r="25" fill="#D9C8AE" stroke="#c0a378" stroke-width="2px"/><text class="caption" text-anchor="middle" pointer-events="none" x="0" y="0" font-size="10px" fill="#2A2C34" font-family="Helvetica Neue, Helvetica, Arial, sans-serif"> Tatranka</text></g><g class="node" aria-label="graph-node11" transform="translate(-427.7379718498373,-19.986639459736715)"><circle class="b-outline" cx="0" cy="0" r="25" fill="#D9C8AE" stroke="#c0a378" stroke-width="2px"/><text class="caption" text-anchor="middle" pointer-events="none" x="0" y="5" font-size="10px" fill="#2A2C34" font-family="Helvetica Neue, Helvetica, Arial, sans-serif"> Nektar</text></g><g class="node" aria-label="graph-node12" transform="translate(-433.5438635666948,-264.6630326587435)"><circle class="b-outline" cx="0" cy="0" r="25" fill="#D9C8AE" stroke="#c0a378" stroke-width="2px"/><text class="caption" text-anchor="middle" pointer-events="none" x="0" y="5" font-size="10px" fill="#2A2C34" font-family="Helvetica Neue, Helvetica, Arial, sans-serif"> Čokolád…</text></g><g class="node" aria-label="graph-node13" transform="translate(-189.02289795958825,169.77144364636155)"><circle class="b-outline" cx="0" cy="0" r="25" fill="#8DCC93" stroke="#5db665" stroke-width="2px"/><text class="caption" text-anchor="middle" pointer-events="none" x="0" y="5" font-size="10px" fill="#2A2C34" font-family="Helvetica Neue, Helvetica, Arial, sans-serif"> U Vrátnice</text></g><g class="node" aria-label="graph-node14" transform="translate(-195.6289912150882,41.69687650668145)"><circle class="b-outline" cx="0" cy="0" r="25" fill="#8DCC93" stroke="#5db665" stroke-width="2px"/><text class="caption" text-anchor="middle" pointer-events="none" x="0" y="0" font-size="10px" fill="#2A2C34" font-family="Helvetica Neue, Helvetica, Arial, sans-serif"> Rychlá</text><text class="caption" text-anchor="middle" pointer-events="none" x="0" y="10" font-size="10px" fill="#2A2C34" font-family="Helvetica Neue, Helvetica, Arial, sans-serif"> Mňam…</text></g><g class="node" aria-label="graph-node15" transform="translate(-198.25391157334815,-205.5590869674975)"><circle class="b-outline" cx="0" cy="0" r="25" fill="#8DCC93" stroke="#5db665" stroke-width="2px"/><text class="caption" text-anchor="middle" pointer-events="none" x="0" y="0" font-size="10px" fill="#2A2C34" font-family="Helvetica Neue, Helvetica, Arial, sans-serif"> Pohoštění</text><text class="caption" text-anchor="middle" pointer-events="none" x="0" y="10" font-size="10px" fill="#2A2C34" font-family="Helvetica Neue, Helvetica, Arial, sans-serif"> Mez…</text></g><g class="node" aria-label="graph-node16" transform="translate(-200.55540876073525,-348.7357704464755)"><circle class="b-outline" cx="0" cy="0" r="25" fill="#8DCC93" stroke="#5db665" stroke-width="2px"/><text class="caption" text-anchor="middle" pointer-events="none" x="0" y="0" font-size="10px" fill="#2A2C34" font-family="Helvetica Neue, Helvetica, Arial, sans-serif"> Oblačné</text><text class="caption" text-anchor="middle" pointer-events="none" x="0" y="10" font-size="10px" fill="#2A2C34" font-family="Helvetica Neue, Helvetica, Arial, sans-serif"> Občer…</text></g><g class="node" aria-label="graph-node17" transform="translate(-660.2891905528882,285.21436173913077)"><circle class="b-outline" cx="0" cy="0" r="25" fill="#57C7E3" stroke="#23b3d7" stroke-width="2px"/><text class="caption" text-anchor="middle" pointer-events="none" x="0" y="5" font-size="10px" fill="#2A2C34" font-family="Helvetica Neue, Helvetica, Arial, sans-serif"> múka</text></g><g class="node" aria-label="graph-node18" transform="translate(-659.2617364209648,-209.9213132652137)"><circle class="b-outline" cx="0" cy="0" r="25" fill="#57C7E3" stroke="#23b3d7" stroke-width="2px"/><text class="caption" text-anchor="middle" pointer-events="none" x="0" y="5" font-size="10px" fill="#2A2C34" font-family="Helvetica Neue, Helvetica, Arial, sans-serif"> maslo</text></g><g class="node" aria-label="graph-node19" transform="translate(-659.4122090636126,-79.11373637066316)"><circle class="b-outline" cx="0" cy="0" r="25" fill="#57C7E3" stroke="#23b3d7" stroke-width="2px"/><text class="caption" text-anchor="middle" pointer-events="none" x="0" y="5" font-size="10px" fill="#2A2C34" font-family="Helvetica Neue, Helvetica, Arial, sans-serif"> cukor</text></g><g class="node" aria-label="graph-node20" transform="translate(-661.9442547102338,162.8692887612647)"><circle class="b-outline" cx="0" cy="0" r="25" fill="#57C7E3" stroke="#23b3d7" stroke-width="2px"/><text class="caption" text-anchor="middle" pointer-events="none" x="0" y="5" font-size="10px" fill="#2A2C34" font-family="Helvetica Neue, Helvetica, Arial, sans-serif"> vejce</text></g><g class="node" aria-label="graph-node21" transform="translate(-662.8610923278674,-349.3416238980719)"><circle class="b-outline" cx="0" cy="0" r="25" fill="#57C7E3" stroke="#23b3d7" stroke-width="2px"/><text class="caption" text-anchor="middle" pointer-events="none" x="0" y="5" font-size="10px" fill="#2A2C34" font-family="Helvetica Neue, Helvetica, Arial, sans-serif"> čokoláda</text></g><g class="node" aria-label="graph-node22" transform="translate(-661.2834500161839,49.05502917304534)"><circle class="b-outline" cx="0" cy="0" r="25" fill="#57C7E3" stroke="#23b3d7" stroke-width="2px"/><text class="caption" text-anchor="middle" pointer-events="none" x="0" y="5" font-size="10px" fill="#2A2C34" font-family="Helvetica Neue, Helvetica, Arial, sans-serif"> mléko</text></g><g class="node" aria-label="graph-node23" transform="translate(-828.4371275684538,231.18104140008313)"><circle class="b-outline" cx="0" cy="0" r="25" fill="#F16667" stroke="#eb2728" stroke-width="2px"/><text class="caption" text-anchor="middle" pointer-events="none" x="0" y="5" font-size="10px" fill="#FFFFFF" font-family="Helvetica Neue, Helvetica, Arial, sans-serif"> lepek</text></g><g class="node" aria-label="graph-node24" transform="translate(-831.5317661950035,94.01064199772293)"><circle class="b-outline" cx="0" cy="0" r="25" fill="#F16667" stroke="#eb2728" stroke-width="2px"/><text class="caption" text-anchor="middle" pointer-events="none" x="0" y="5" font-size="10px" fill="#FFFFFF" font-family="Helvetica Neue, Helvetica, Arial, sans-serif"> vejce</text></g><g class="node" aria-label="graph-node25" transform="translate(-839.8824030670878,-329.92778609441814)"><circle class="b-outline" cx="0" cy="0" r="25" fill="#F16667" stroke="#eb2728" stroke-width="2px"/><text class="caption" text-anchor="middle" pointer-events="none" x="0" y="5" font-size="10px" fill="#FFFFFF" font-family="Helvetica Neue, Helvetica, Arial, sans-serif"> arašídy</text></g><g class="node" aria-label="graph-node26" transform="translate(-831.8182370592593,-45.0155352812734)"><circle class="b-outline" cx="0" cy="0" r="25" fill="#F16667" stroke="#eb2728" stroke-width="2px"/><text class="caption" text-anchor="middle" pointer-events="none" x="0" y="5" font-size="10px" fill="#FFFFFF" font-family="Helvetica Neue, Helvetica, Arial, sans-serif"> sója</text></g><g class="node" aria-label="graph-node27" transform="translate(-833.6086647288062,-178.07768012093635)"><circle class="b-outline" cx="0" cy="0" r="25" fill="#F16667" stroke="#eb2728" stroke-width="2px"/><text class="caption" text-anchor="middle" pointer-events="none" x="0" y="5" font-size="10px" fill="#FFFFFF" font-family="Helvetica Neue, Helvetica, Arial, sans-serif"> mléko</text></g></g></svg>