<svg xmlns="http://www.w3.org/2000/svg" width="1042.200439453125" height="739.6494750976562" viewBox="-938.5977783203125 -498.9837341308594 1042.200439453125 739.6494750976562"><title>Neo4j Graph Visualization</title><desc>Created using Neo4j (http://www.neo4j.com/)</desc><g class="layer relationships"><g class="relationship" transform="translate(-109.9369503771469 69.27616954077118) rotate(424.48505615372176)"><path class="b-outline" fill="#A5ABB6" stroke="none" d="M 25 0.5 L 50.378803138808735 0.5 L 50.378803138808735 -0.5 L 25 -0.5 Z M 100.39833438880873 0.5 L 125.77713752761747 0.5 L 125.77713752761747 3.5 L 132.77713752761747 0 L 125.77713752761747 -3.5 L 125.77713752761747 -0.5 L 100.39833438880873 -0.5 Z"/><text text-anchor="middle" pointer-events="none" font-size="8px" fill="#000000" x="75.38856876380873" y="3" font-family="Helvetica Neue, Helvetica, Arial, sans-serif">Zaměstnává</text></g><g class="relationship" transform="translate(-109.9369503771469 69.27616954077118) rotate(388.01206962122626)"><path class="b-outline" fill="#A5ABB6" stroke="none" d="M 25 0.5 L 51.6657500909933 0.5 L 51.6657500909933 -0.5 L 25 -0.5 Z M 101.6852813409933 0.5 L 128.3510314319866 0.5 L 128.3510314319866 3.5 L 135.3510314319866 0 L 128.3510314319866 -3.5 L 128.3510314319866 -0.5 L 101.6852813409933 -0.5 Z"/><text text-anchor="middle" pointer-events="none" font-size="8px" fill="#000000" x="76.6755157159933" y="3" font-family="Helvetica Neue, Helvetica, Arial, sans-serif">Zaměstnává</text></g><g class="relationship" transform="translate(-80.22060641171186 -125.89029247689793) rotate(416.1890027871821)"><path class="b-outline" fill="#A5ABB6" stroke="none" d="M 25 0.5 L 49.453139721791516 0.5 L 49.453139721791516 -0.5 L 25 -0.5 Z M 99.47267097179152 0.5 L 123.92581069358303 0.5 L 123.92581069358303 3.5 L 130.92581069358303 0 L 123.92581069358303 -3.5 L 123.92581069358303 -0.5 L 99.47267097179152 -0.5 Z"/><text text-anchor="middle" pointer-events="none" font-size="8px" fill="#000000" x="74.46290534679152" y="3" font-family="Helvetica Neue, Helvetica, Arial, sans-serif">Zaměstnává</text></g><g class="relationship" transform="translate(-80.22060641171186 -125.89029247689793) rotate(344.4143022407475)"><path class="b-outline" fill="#A5ABB6" stroke="none" d="M 25 0.5 L 50.074578588634296 0.5 L 50.074578588634296 -0.5 L 25 -0.5 Z M 100.0941098386343 0.5 L 125.16868842726859 0.5 L 125.16868842726859 3.5 L 132.1686884272686 0 L 125.16868842726859 -3.5 L 125.16868842726859 -0.5 L 100.0941098386343 -0.5 Z"/><text text-anchor="middle" pointer-events="none" font-size="8px" fill="#000000" x="75.0843442136343" y="3" font-family="Helvetica Neue, Helvetica, Arial, sans-serif">Zaměstnává</text></g><g class="relationship" transform="translate(-80.22060641171186 -125.89029247689793) rotate(380.2790477686765)"><path class="b-outline" fill="#A5ABB6" stroke="none" d="M 25 0.5 L 54.017205776158406 0.5 L 54.017205776158406 -0.5 L 25 -0.5 Z M 104.0367370261584 0.5 L 133.0539428023168 0.5 L 133.0539428023168 3.5 L 140.0539428023168 0 L 133.0539428023168 -3.5 L 133.0539428023168 -0.5 L 104.0367370261584 -0.5 Z"/><text text-anchor="middle" pointer-events="none" font-size="8px" fill="#000000" x="79.0269714011584" y="3" font-family="Helvetica Neue, Helvetica, Arial, sans-serif">Zaměstnává</text></g><g class="relationship" transform="translate(-84.69074931935529 -292.5384300182529) rotate(327.7308188002809)"><path class="b-outline" fill="#A5ABB6" stroke="none" d="M 25 0.5 L 48.548829981014535 0.5 L 48.548829981014535 -0.5 L 25 -0.5 Z M 98.56836123101453 0.5 L 122.11719121202907 0.5 L 122.11719121202907 3.5 L 129.11719121202907 0 L 122.11719121202907 -3.5 L 122.11719121202907 -0.5 L 98.56836123101453 -0.5 Z"/><text text-anchor="middle" pointer-events="none" font-size="8px" fill="#000000" x="73.55859560601453" y="3" font-family="Helvetica Neue, Helvetica, Arial, sans-serif">Zaměstnává</text></g><g class="relationship" transform="translate(-84.69074931935529 -292.5384300182529) rotate(365.08276774949513)"><path class="b-outline" fill="#A5ABB6" stroke="none" d="M 25 0.5 L 49.940021027097245 0.5 L 49.940021027097245 -0.5 L 25 -0.5 Z M 99.95955227709725 0.5 L 124.89957330419449 0.5 L 124.89957330419449 3.5 L 131.8995733041945 0 L 124.89957330419449 -3.5 L 124.89957330419449 -0.5 L 99.95955227709725 -0.5 Z"/><text text-anchor="middle" pointer-events="none" font-size="8px" fill="#000000" x="74.94978665209725" y="3" font-family="Helvetica Neue, Helvetica, Arial, sans-serif">Zaměstnává</text></g><g class="relationship" transform="translate(-681.3938635625369 98.66496064926261) rotate(186.42610401899248)"><path class="b-outline" fill="#A5ABB6" stroke="none" d="M 25 0.5 L 91.20034899724989 0.5 L 91.20034899724989 -0.5 L 25 -0.5 Z M 131.44644274724988 0.5 L 197.64679174449978 0.5 L 197.64679174449978 3.5 L 204.64679174449978 0 L 197.64679174449978 -3.5 L 197.64679174449978 -0.5 L 131.44644274724988 -0.5 Z"/><text text-anchor="middle" pointer-events="none" font-size="8px" fill="#000000" x="111.32339587224989" y="3" transform="rotate(180 111.32339587224989 0)" font-family="Helvetica Neue, Helvetica, Arial, sans-serif">Obsahuje</text></g><g class="relationship" transform="translate(-690.0780839666553 -115.39438178012966) rotate(240.70676589034133)"><path class="b-outline" fill="#A5ABB6" stroke="none" d="M 25 0.5 L 178.65045829196706 0.5 L 178.65045829196706 -0.5 L 25 -0.5 Z M 218.89655204196706 0.5 L 372.5470103339341 0.5 L 372.5470103339341 3.5 L 379.5470103339341 0 L 372.5470103339341 -3.5 L 372.5470103339341 -0.5 L 218.89655204196706 -0.5 Z"/><text text-anchor="middle" pointer-events="none" font-size="8px" fill="#000000" x="198.77350516696706" y="3" transform="rotate(180 198.77350516696706 0)" font-family="Helvetica Neue, Helvetica, Arial, sans-serif">Obsahuje</text></g><g class="relationship" transform="translate(-650.8426218970305 -324.86796219990924) rotate(211.14806670481232)"><path class="b-outline" fill="#A5ABB6" stroke="none" d="M 25 0.5 L 114.93896399351402 0.5 L 114.93896399351402 -0.5 L 25 -0.5 Z M 155.18505774351402 0.5 L 245.12402173702804 0.5 L 245.12402173702804 3.5 L 252.12402173702804 0 L 245.12402173702804 -3.5 L 245.12402173702804 -0.5 L 155.18505774351402 -0.5 Z"/><text text-anchor="middle" pointer-events="none" font-size="8px" fill="#000000" x="135.06201086851402" y="3" transform="rotate(180 135.06201086851402 0)" font-family="Helvetica Neue, Helvetica, Arial, sans-serif">Obsahuje</text></g><g class="relationship" transform="translate(-685.4077838406323 -12.764410749115825) rotate(201.74708624684604)"><path class="b-outline" fill="#A5ABB6" stroke="none" d="M 25 0.5 L 92.33932272607916 0.5 L 92.33932272607916 -0.5 L 25 -0.5 Z M 132.58541647607916 0.5 L 199.92473920215832 0.5 L 199.92473920215832 3.5 L 206.92473920215832 0 L 199.92473920215832 -3.5 L 199.92473920215832 -0.5 L 132.58541647607916 -0.5 Z"/><text text-anchor="middle" pointer-events="none" font-size="8px" fill="#000000" x="112.46236960107916" y="3" transform="rotate(180 112.46236960107916 0)" font-family="Helvetica Neue, Helvetica, Arial, sans-serif">Obsahuje</text></g><g class="relationship" transform="translate(-614.8333882586658 -469.9837216755841) rotate(497.965232919079)"><path class="b-outline" fill="#A5ABB6" stroke="none" d="M 25 0.5 L 160.2965018468484 0.5 L 160.2965018468484 -0.5 L 25 -0.5 Z M 200.5425955968484 0.5 L 335.8390974436968 0.5 L 335.8390974436968 3.5 L 342.8390974436968 0 L 335.8390974436968 -3.5 L 335.8390974436968 -0.5 L 200.5425955968484 -0.5 Z"/><text text-anchor="middle" pointer-events="none" font-size="8px" fill="#000000" x="180.4195487218484" y="3" transform="rotate(180 180.4195487218484 0)" font-family="Helvetica Neue, Helvetica, Arial, sans-serif">Obsahuje</text></g><g class="relationship" transform="translate(-614.8333882586658 -469.9837216755841) rotate(539.6281555142255)"><path class="b-outline" fill="#A5ABB6" stroke="none" d="M 25 0.5 L 112.97045060216874 0.5 L 112.97045060216874 -0.5 L 25 -0.5 Z M 153.21654435216874 0.5 L 241.18699495433748 0.5 L 241.18699495433748 3.5 L 248.18699495433748 0 L 241.18699495433748 -3.5 L 241.18699495433748 -0.5 L 153.21654435216874 -0.5 Z"/><text text-anchor="middle" pointer-events="none" font-size="8px" fill="#000000" x="133.09349747716874" y="3" transform="rotate(180 133.09349747716874 0)" font-family="Helvetica Neue, Helvetica, Arial, sans-serif">Obsahuje</text></g><g class="relationship" transform="translate(-463.3585886423032 9.5815486265436) rotate(252.47083186227536)"><path class="b-outline" fill="#A5ABB6" stroke="none" d="M 25 0.5 L 227.8364247097715 0.5 L 227.8364247097715 -0.5 L 25 -0.5 Z M 268.0825184597715 0.5 L 470.918943169543 0.5 L 470.918943169543 3.5 L 477.918943169543 0 L 470.918943169543 -3.5 L 470.918943169543 -0.5 L 268.0825184597715 -0.5 Z"/><text text-anchor="middle" pointer-events="none" font-size="8px" fill="#000000" x="247.9594715847715" y="3" transform="rotate(180 247.9594715847715 0)" font-family="Helvetica Neue, Helvetica, Arial, sans-serif">Obsahuje</text></g><g class="relationship" transform="translate(-463.3585886423032 9.5815486265436) rotate(208.8651325134167)"><path class="b-outline" fill="#A5ABB6" stroke="none" d="M 25 0.5 L 105.81874770961491 0.5 L 105.81874770961491 -0.5 L 25 -0.5 Z M 146.0648414596149 0.5 L 226.88358916922982 0.5 L 226.88358916922982 3.5 L 233.88358916922982 0 L 226.88358916922982 -3.5 L 226.88358916922982 -0.5 L 146.0648414596149 -0.5 Z"/><text text-anchor="middle" pointer-events="none" font-size="8px" fill="#000000" x="125.94179458461491" y="3" transform="rotate(180 125.94179458461491 0)" font-family="Helvetica Neue, Helvetica, Arial, sans-serif">Obsahuje</text></g><g class="relationship" transform="translate(-463.3585886423032 9.5815486265436) rotate(517.7763815253318)"><path class="b-outline" fill="#A5ABB6" stroke="none" d="M 25 0.5 L 94.14286012608353 0.5 L 94.14286012608353 -0.5 L 25 -0.5 Z M 134.38895387608352 0.5 L 203.53181400216707 0.5 L 203.53181400216707 3.5 L 210.53181400216707 0 L 203.53181400216707 -3.5 L 203.53181400216707 -0.5 L 134.38895387608352 -0.5 Z"/><text text-anchor="middle" pointer-events="none" font-size="8px" fill="#000000" x="114.26590700108353" y="3" transform="rotate(180 114.26590700108353 0)" font-family="Helvetica Neue, Helvetica, Arial, sans-serif">Obsahuje</text></g><g class="relationship" transform="translate(-447.351183773078 -112.06329710733456) rotate(498.00063783134595)"><path class="b-outline" fill="#A5ABB6" stroke="none" d="M 25 0.5 L 133.84311979276555 0.5 L 133.84311979276555 -0.5 L 25 -0.5 Z M 174.08921354276555 0.5 L 282.9323333355311 0.5 L 282.9323333355311 3.5 L 289.9323333355311 0 L 282.9323333355311 -3.5 L 282.9323333355311 -0.5 L 174.08921354276555 -0.5 Z"/><text text-anchor="middle" pointer-events="none" font-size="8px" fill="#000000" x="153.96616666776555" y="3" transform="rotate(180 153.96616666776555 0)" font-family="Helvetica Neue, Helvetica, Arial, sans-serif">Obsahuje</text></g><g class="relationship" transform="translate(-447.351183773078 -112.06329710733456) rotate(180.78625447916744)"><path class="b-outline" fill="#A5ABB6" stroke="none" d="M 25 0.5 L 97.75183129453738 0.5 L 97.75183129453738 -0.5 L 25 -0.5 Z M 137.9979250445374 0.5 L 210.74975633907476 0.5 L 210.74975633907476 3.5 L 217.74975633907476 0 L 210.74975633907476 -3.5 L 210.74975633907476 -0.5 L 137.9979250445374 -0.5 Z"/><text text-anchor="middle" pointer-events="none" font-size="8px" fill="#000000" x="117.87487816953738" y="3" transform="rotate(180 117.87487816953738 0)" font-family="Helvetica Neue, Helvetica, Arial, sans-serif">Obsahuje</text></g><g class="relationship" transform="translate(-447.351183773078 -112.06329710733456) rotate(517.3578597858984)"><path class="b-outline" fill="#A5ABB6" stroke="none" d="M 25 0.5 L 105.34517951013135 0.5 L 105.34517951013135 -0.5 L 25 -0.5 Z M 145.59127326013135 0.5 L 225.9364527702627 0.5 L 225.9364527702627 3.5 L 232.9364527702627 0 L 225.9364527702627 -3.5 L 225.9364527702627 -0.5 L 145.59127326013135 -0.5 Z"/><text text-anchor="middle" pointer-events="none" font-size="8px" fill="#000000" x="125.46822638513135" y="3" transform="rotate(180 125.46822638513135 0)" font-family="Helvetica Neue, Helvetica, Arial, sans-serif">Obsahuje</text></g><g class="relationship" transform="translate(-447.351183773078 -112.06329710733456) rotate(204.04972212536103)"><path class="b-outline" fill="#A5ABB6" stroke="none" d="M 25 0.5 L 99.72556405869526 0.5 L 99.72556405869526 -0.5 L 25 -0.5 Z M 139.97165780869526 0.5 L 214.6972218673905 0.5 L 214.6972218673905 3.5 L 221.6972218673905 0 L 214.6972218673905 -3.5 L 214.6972218673905 -0.5 L 139.97165780869526 -0.5 Z"/><text text-anchor="middle" pointer-events="none" font-size="8px" fill="#000000" x="119.84861093369526" y="3" transform="rotate(180 119.84861093369526 0)" font-family="Helvetica Neue, Helvetica, Arial, sans-serif">Obsahuje</text></g><g class="relationship" transform="translate(-447.351183773078 -112.06329710733456) rotate(226.28158683103402)"><path class="b-outline" fill="#A5ABB6" stroke="none" d="M 25 0.5 L 123.5966791087462 0.5 L 123.5966791087462 -0.5 L 25 -0.5 Z M 163.8427728587462 0.5 L 262.4394519674924 0.5 L 262.4394519674924 3.5 L 269.4394519674924 0 L 262.4394519674924 -3.5 L 262.4394519674924 -0.5 L 163.8427728587462 -0.5 Z"/><text text-anchor="middle" pointer-events="none" font-size="8px" fill="#000000" x="143.7197259837462" y="3" transform="rotate(180 143.7197259837462 0)" font-family="Helvetica Neue, Helvetica, Arial, sans-serif">Obsahuje</text></g><g class="relationship" transform="translate(-461.375454282353 -307.9923467774728) rotate(226.5495704781938)"><path class="b-outline" fill="#A5ABB6" stroke="none" d="M 25 0.5 L 87.94592623318408 0.5 L 87.94592623318408 -0.5 L 25 -0.5 Z M 128.19201998318408 0.5 L 191.13794621636816 0.5 L 191.13794621636816 3.5 L 198.13794621636816 0 L 191.13794621636816 -3.5 L 191.13794621636816 -0.5 L 128.19201998318408 -0.5 Z"/><text text-anchor="middle" pointer-events="none" font-size="8px" fill="#000000" x="108.06897310818408" y="3" transform="rotate(180 108.06897310818408 0)" font-family="Helvetica Neue, Helvetica, Arial, sans-serif">Obsahuje</text></g><g class="relationship" transform="translate(-461.375454282353 -307.9923467774728) rotate(478.4152197759362)"><path class="b-outline" fill="#A5ABB6" stroke="none" d="M 25 0.5 L 207.5577622905452 0.5 L 207.5577622905452 -0.5 L 25 -0.5 Z M 247.8038560405452 0.5 L 430.3616183310904 0.5 L 430.3616183310904 3.5 L 437.3616183310904 0 L 430.3616183310904 -3.5 L 430.3616183310904 -0.5 L 247.8038560405452 -0.5 Z"/><text text-anchor="middle" pointer-events="none" font-size="8px" fill="#000000" x="227.6808091655452" y="3" transform="rotate(180 227.6808091655452 0)" font-family="Helvetica Neue, Helvetica, Arial, sans-serif">Obsahuje</text></g><g class="relationship" transform="translate(-461.375454282353 -307.9923467774728) rotate(185.08983568551855)"><path class="b-outline" fill="#A5ABB6" stroke="none" d="M 25 0.5 L 71.48556735080801 0.5 L 71.48556735080801 -0.5 L 25 -0.5 Z M 111.73166110080801 0.5 L 158.21722845161602 0.5 L 158.21722845161602 3.5 L 165.21722845161602 0 L 158.21722845161602 -3.5 L 158.21722845161602 -0.5 L 111.73166110080801 -0.5 Z"/><text text-anchor="middle" pointer-events="none" font-size="8px" fill="#000000" x="91.60861422580801" y="3" transform="rotate(180 91.60861422580801 0)" font-family="Helvetica Neue, Helvetica, Arial, sans-serif">Obsahuje</text></g><g class="relationship" transform="translate(-109.9369503771469 69.27616954077118) rotate(189.58704805325442)"><path class="b-outline" fill="#A5ABB6" stroke="none" d="M 25 0.5 L 161.3016611339374 0.5 L 161.3016611339374 -0.5 L 25 -0.5 Z M 190.1258798839374 0.5 L 326.4275410178748 0.5 L 326.4275410178748 3.5 L 333.4275410178748 0 L 326.4275410178748 -3.5 L 326.4275410178748 -0.5 L 190.1258798839374 -0.5 Z"/><text text-anchor="middle" pointer-events="none" font-size="8px" fill="#000000" x="175.7137705089374" y="3" transform="rotate(180 175.7137705089374 0)" font-family="Helvetica Neue, Helvetica, Arial, sans-serif">Vyrábí</text></g><g class="relationship" transform="translate(-80.22060641171186 -125.89029247689793) rotate(520.5271698391542)"><path class="b-outline" fill="#A5ABB6" stroke="none" d="M 25 0.5 L 185.27950779933437 0.5 L 185.27950779933437 -0.5 L 25 -0.5 Z M 214.10372654933437 0.5 L 374.38323434866874 0.5 L 374.38323434866874 3.5 L 381.38323434866874 0 L 374.38323434866874 -3.5 L 374.38323434866874 -0.5 L 214.10372654933437 -0.5 Z"/><text text-anchor="middle" pointer-events="none" font-size="8px" fill="#000000" x="199.69161717433437" y="3" transform="rotate(180 199.69161717433437 0)" font-family="Helvetica Neue, Helvetica, Arial, sans-serif">Vyrábí</text></g><g class="relationship" transform="translate(-80.22060641171186 -125.89029247689793) rotate(537.8431264893942)"><path class="b-outline" fill="#A5ABB6" stroke="none" d="M 25 0.5 L 165.7833224099521 0.5 L 165.7833224099521 -0.5 L 25 -0.5 Z M 194.6075411599521 0.5 L 335.3908635699042 0.5 L 335.3908635699042 3.5 L 342.3908635699042 0 L 335.3908635699042 -3.5 L 335.3908635699042 -0.5 L 194.6075411599521 -0.5 Z"/><text text-anchor="middle" pointer-events="none" font-size="8px" fill="#000000" x="180.1954317849521" y="3" transform="rotate(180 180.1954317849521 0)" font-family="Helvetica Neue, Helvetica, Arial, sans-serif">Vyrábí</text></g><g class="relationship" transform="translate(-84.69074931935529 -292.5384300182529) rotate(513.543124756839)"><path class="b-outline" fill="#A5ABB6" stroke="none" d="M 25 0.5 L 184.6303950020915 0.5 L 184.6303950020915 -0.5 L 25 -0.5 Z M 213.4546137520915 0.5 L 373.085008754183 0.5 L 373.085008754183 3.5 L 380.085008754183 0 L 373.085008754183 -3.5 L 373.085008754183 -0.5 L 213.4546137520915 -0.5 Z"/><text text-anchor="middle" pointer-events="none" font-size="8px" fill="#000000" x="199.0425043770915" y="3" transform="rotate(180 199.0425043770915 0)" font-family="Helvetica Neue, Helvetica, Arial, sans-serif">Vyrábí</text></g><g class="relationship" transform="translate(-84.69074931935529 -292.5384300182529) rotate(182.34930678123715)"><path class="b-outline" fill="#A5ABB6" stroke="none" d="M 25 0.5 L 170.5886800771012 0.5 L 170.5886800771012 -0.5 L 25 -0.5 Z M 199.4128988271012 0.5 L 345.0015789042024 0.5 L 345.0015789042024 3.5 L 352.0015789042024 0 L 345.0015789042024 -3.5 L 345.0015789042024 -0.5 L 199.4128988271012 -0.5 Z"/><text text-anchor="middle" pointer-events="none" font-size="8px" fill="#000000" x="185.0007894521012" y="3" transform="rotate(180 185.0007894521012 0)" font-family="Helvetica Neue, Helvetica, Arial, sans-serif">Vyrábí</text></g><g class="relationship" transform="translate(-312.4487201251623 95.55241902372833) rotate(209.66945354214806)"><path class="b-outline" fill="#A5ABB6" stroke="none" d="M 25 0.5 L 68.77950576879778 0.5 L 68.77950576879778 -0.5 L 25 -0.5 Z M 97.90059951879778 0.5 L 141.68010528759555 0.5 L 141.68010528759555 3.5 L 148.68010528759555 0 L 141.68010528759555 -3.5 L 141.68010528759555 -0.5 L 97.90059951879778 -0.5 Z"/><text text-anchor="middle" pointer-events="none" font-size="8px" fill="#000000" x="83.34005264379778" y="3" transform="rotate(180 83.34005264379778 0)" font-family="Helvetica Neue, Helvetica, Arial, sans-serif">Nabízí</text></g><g class="relationship" transform="translate(-312.4487201251623 95.55241902372833) rotate(236.98539745349672)"><path class="b-outline" fill="#A5ABB6" stroke="none" d="M 25 0.5 L 105.7366262378091 0.5 L 105.7366262378091 -0.5 L 25 -0.5 Z M 134.8577199878091 0.5 L 215.5943462256182 0.5 L 215.5943462256182 3.5 L 222.5943462256182 0 L 215.5943462256182 -3.5 L 215.5943462256182 -0.5 L 134.8577199878091 -0.5 Z"/><text text-anchor="middle" pointer-events="none" font-size="8px" fill="#000000" x="120.2971731128091" y="3" transform="rotate(180 120.2971731128091 0)" font-family="Helvetica Neue, Helvetica, Arial, sans-serif">Nabízí</text></g><g class="relationship" transform="translate(-312.4487201251623 95.55241902372833) rotate(249.74360041152647)"><path class="b-outline" fill="#A5ABB6" stroke="none" d="M 25 0.5 L 197.01359740568338 0.5 L 197.01359740568338 -0.5 L 25 -0.5 Z M 226.13469115568338 0.5 L 398.14828856136677 0.5 L 398.14828856136677 3.5 L 405.14828856136677 0 L 398.14828856136677 -3.5 L 398.14828856136677 -0.5 L 226.13469115568338 -0.5 Z"/><text text-anchor="middle" pointer-events="none" font-size="8px" fill="#000000" x="211.57414428068338" y="3" transform="rotate(180 211.57414428068338 0)" font-family="Helvetica Neue, Helvetica, Arial, sans-serif">Nabízí</text></g><g class="relationship" transform="translate(-309.6444529447089 -53.20380976414343) rotate(517.782178470383)"><path class="b-outline" fill="#A5ABB6" stroke="none" d="M 25 0.5 L 64.9605901045449 0.5 L 64.9605901045449 -0.5 L 25 -0.5 Z M 94.0816838545449 0.5 L 134.0422739590898 0.5 L 134.0422739590898 3.5 L 141.0422739590898 0 L 134.0422739590898 -3.5 L 134.0422739590898 -0.5 L 94.0816838545449 -0.5 Z"/><text text-anchor="middle" pointer-events="none" font-size="8px" fill="#000000" x="79.5211369795449" y="3" transform="rotate(180 79.5211369795449 0)" font-family="Helvetica Neue, Helvetica, Arial, sans-serif">Nabízí</text></g><g class="relationship" transform="translate(-309.6444529447089 -53.20380976414343) rotate(203.1431406587442)"><path class="b-outline" fill="#A5ABB6" stroke="none" d="M 25 0.5 L 56.818660795988635 0.5 L 56.818660795988635 -0.5 L 25 -0.5 Z M 85.93975454598863 0.5 L 117.75841534197727 0.5 L 117.75841534197727 3.5 L 124.75841534197727 0 L 117.75841534197727 -3.5 L 117.75841534197727 -0.5 L 85.93975454598863 -0.5 Z"/><text text-anchor="middle" pointer-events="none" font-size="8px" fill="#000000" x="71.37920767098863" y="3" transform="rotate(180 71.37920767098863 0)" font-family="Helvetica Neue, Helvetica, Arial, sans-serif">Nabízí</text></g><g class="relationship" transform="translate(-309.6444529447089 -53.20380976414343) rotate(239.2254665233125)"><path class="b-outline" fill="#A5ABB6" stroke="none" d="M 25 0.5 L 130.21242382458237 0.5 L 130.21242382458237 -0.5 L 25 -0.5 Z M 159.33351757458237 0.5 L 264.54594139916475 0.5 L 264.54594139916475 3.5 L 271.54594139916475 0 L 264.54594139916475 -3.5 L 264.54594139916475 -0.5 L 159.33351757458237 -0.5 Z"/><text text-anchor="middle" pointer-events="none" font-size="8px" fill="#000000" x="144.77297069958237" y="3" transform="rotate(180 144.77297069958237 0)" font-family="Helvetica Neue, Helvetica, Arial, sans-serif">Nabízí</text></g><g class="relationship" transform="translate(-294.18575900849817 -159.69197756463888) rotate(522.7262731522272)"><path class="b-outline" fill="#A5ABB6" stroke="none" d="M 25 0.5 L 62.13941968580687 0.5 L 62.13941968580687 -0.5 L 25 -0.5 Z M 91.26051343580687 0.5 L 128.39993312161374 0.5 L 128.39993312161374 3.5 L 135.39993312161374 0 L 128.39993312161374 -3.5 L 128.39993312161374 -0.5 L 91.26051343580687 -0.5 Z"/><text text-anchor="middle" pointer-events="none" font-size="8px" fill="#000000" x="76.69996656080687" y="3" transform="rotate(180 76.69996656080687 0)" font-family="Helvetica Neue, Helvetica, Arial, sans-serif">Nabízí</text></g><g class="relationship" transform="translate(-294.18575900849817 -159.69197756463888) rotate(221.57362206764208)"><path class="b-outline" fill="#A5ABB6" stroke="none" d="M 25 0.5 L 93.68178363858301 0.5 L 93.68178363858301 -0.5 L 25 -0.5 Z M 122.80287738858301 0.5 L 191.48466102716603 0.5 L 191.48466102716603 3.5 L 198.48466102716603 0 L 191.48466102716603 -3.5 L 191.48466102716603 -0.5 L 122.80287738858301 -0.5 Z"/><text text-anchor="middle" pointer-events="none" font-size="8px" fill="#000000" x="108.24233051358301" y="3" transform="rotate(180 108.24233051358301 0)" font-family="Helvetica Neue, Helvetica, Arial, sans-serif">Nabízí</text></g><g class="relationship" transform="translate(-274.6785167832411 -387.96018184022034) rotate(482.04077929757585)"><path class="b-outline" fill="#A5ABB6" stroke="none" d="M 25 0.5 L 144.67769458248162 0.5 L 144.67769458248162 -0.5 L 25 -0.5 Z M 173.79878833248162 0.5 L 293.47648291496324 0.5 L 293.47648291496324 3.5 L 300.47648291496324 0 L 293.47648291496324 -3.5 L 293.47648291496324 -0.5 L 173.79878833248162 -0.5 Z"/><text text-anchor="middle" pointer-events="none" font-size="8px" fill="#000000" x="159.23824145748162" y="3" transform="rotate(180 159.23824145748162 0)" font-family="Helvetica Neue, Helvetica, Arial, sans-serif">Nabízí</text></g><g class="relationship" transform="translate(-274.6785167832411 -387.96018184022034) rotate(516.8131135130669)"><path class="b-outline" fill="#A5ABB6" stroke="none" d="M 25 0.5 L 83.49067310311018 0.5 L 83.49067310311018 -0.5 L 25 -0.5 Z M 112.61176685311018 0.5 L 171.10243995622037 0.5 L 171.10243995622037 3.5 L 178.10243995622037 0 L 171.10243995622037 -3.5 L 171.10243995622037 -0.5 L 112.61176685311018 -0.5 Z"/><text text-anchor="middle" pointer-events="none" font-size="8px" fill="#000000" x="98.05121997811018" y="3" transform="rotate(180 98.05121997811018 0)" font-family="Helvetica Neue, Helvetica, Arial, sans-serif">Nabízí</text></g><g class="relationship" transform="translate(-312.4487201251623 95.55241902372833) rotate(352.60707756528086)"><path class="b-outline" fill="#A5ABB6" stroke="none" d="M 25 0.5 L 73.37029944412599 0.5 L 73.37029944412599 -0.5 L 25 -0.5 Z M 123.83904944412599 0.5 L 172.20934888825198 0.5 L 172.20934888825198 3.5 L 179.20934888825198 0 L 172.20934888825198 -3.5 L 172.20934888825198 -0.5 L 123.83904944412599 -0.5 Z"/><text text-anchor="middle" pointer-events="none" font-size="8px" fill="#000000" x="98.60467444412599" y="3" font-family="Helvetica Neue, Helvetica, Arial, sans-serif">NacházíSaV</text></g><g class="relationship" transform="translate(-309.6444529447089 -53.20380976414343) rotate(342.42066166263226)"><path class="b-outline" fill="#A5ABB6" stroke="none" d="M 25 0.5 L 91.59706948475193 0.5 L 91.59706948475193 -0.5 L 25 -0.5 Z M 142.06581948475193 0.5 L 208.66288896950385 0.5 L 208.66288896950385 3.5 L 215.66288896950385 0 L 208.66288896950385 -3.5 L 208.66288896950385 -0.5 L 142.06581948475193 -0.5 Z"/><text text-anchor="middle" pointer-events="none" font-size="8px" fill="#000000" x="116.83144448475193" y="3" font-family="Helvetica Neue, Helvetica, Arial, sans-serif">NacházíSaV</text></g><g class="relationship" transform="translate(-294.18575900849817 -159.69197756463888) rotate(327.62011061422135)"><path class="b-outline" fill="#A5ABB6" stroke="none" d="M 25 0.5 L 95.29822052851863 0.5 L 95.29822052851863 -0.5 L 25 -0.5 Z M 145.76697052851864 0.5 L 216.06519105703725 0.5 L 216.06519105703725 3.5 L 223.06519105703725 0 L 216.06519105703725 -3.5 L 216.06519105703725 -0.5 L 145.76697052851864 -0.5 Z"/><text text-anchor="middle" pointer-events="none" font-size="8px" fill="#000000" x="120.53259552851863" y="3" font-family="Helvetica Neue, Helvetica, Arial, sans-serif">NacházíSaV</text></g><g class="relationship" transform="translate(-274.6785167832411 -387.96018184022034) rotate(386.66818600747155)"><path class="b-outline" fill="#A5ABB6" stroke="none" d="M 25 0.5 L 77.56786216682154 0.5 L 77.56786216682154 -0.5 L 25 -0.5 Z M 128.03661216682156 0.5 L 180.60447433364308 0.5 L 180.60447433364308 3.5 L 187.60447433364308 0 L 180.60447433364308 -3.5 L 180.60447433364308 -0.5 L 128.03661216682156 -0.5 Z"/><text text-anchor="middle" pointer-events="none" font-size="8px" fill="#000000" x="102.80223716682154" y="3" font-family="Helvetica Neue, Helvetica, Arial, sans-serif">NacházíSaV</text></g></g><g class="layer nodes"><g class="node" aria-label="graph-node158" transform="translate(-41.97500157853674,211.6657711340891)"><circle class="b-outline" cx="0" cy="0" r="25" fill="#F16667" stroke="#eb2728" stroke-width="2px"/><text class="caption" text-anchor="middle" pointer-events="none" x="0" y="5" font-size="10px" fill="#FFFFFF" font-family="Helvetica Neue, Helvetica, Arial, sans-serif"> Zeus</text></g><g class="node" aria-label="graph-node159" transform="translate(31.628745563864964,144.5862420014914)"><circle class="b-outline" cx="0" cy="0" r="25" fill="#F16667" stroke="#eb2728" stroke-width="2px"/><text class="caption" text-anchor="middle" pointer-events="none" x="0" y="5" font-size="10px" fill="#FFFFFF" font-family="Helvetica Neue, Helvetica, Arial, sans-serif"> Athéna</text></g><g class="node" aria-label="graph-node160" transform="translate(6.5451065436427855,3.664983354694869)"><circle class="b-outline" cx="0" cy="0" r="25" fill="#F16667" stroke="#eb2728" stroke-width="2px"/><text class="caption" text-anchor="middle" pointer-events="none" x="0" y="5" font-size="10px" fill="#FFFFFF" font-family="Helvetica Neue, Helvetica, Arial, sans-serif"> Hádes</text></g><g class="node" aria-label="graph-node161" transform="translate(71.16893667097705,-168.11827925299835)"><circle class="b-outline" cx="0" cy="0" r="25" fill="#F16667" stroke="#eb2728" stroke-width="2px"/><text class="caption" text-anchor="middle" pointer-events="none" x="0" y="5" font-size="10px" fill="#FFFFFF" font-family="Helvetica Neue, Helvetica, Arial, sans-serif"> Afrodita</text></g><g class="node" aria-label="graph-node162" transform="translate(74.6025900855236,-68.68380804577002)"><circle class="b-outline" cx="0" cy="0" r="25" fill="#F16667" stroke="#eb2728" stroke-width="2px"/><text class="caption" text-anchor="middle" pointer-events="none" x="0" y="5" font-size="10px" fill="#FFFFFF" font-family="Helvetica Neue, Helvetica, Arial, sans-serif"> Hermes</text></g><g class="node" aria-label="graph-node163" transform="translate(71.59185660521071,-278.6379556211284)"><circle class="b-outline" cx="0" cy="0" r="25" fill="#F16667" stroke="#eb2728" stroke-width="2px"/><text class="caption" text-anchor="middle" pointer-events="none" x="0" y="5" font-size="10px" fill="#FFFFFF" font-family="Helvetica Neue, Helvetica, Arial, sans-serif"> Artemis</text></g><g class="node" aria-label="graph-node164" transform="translate(45.62290816245795,-374.8212307775719)"><circle class="b-outline" cx="0" cy="0" r="25" fill="#F16667" stroke="#eb2728" stroke-width="2px"/><text class="caption" text-anchor="middle" pointer-events="none" x="0" y="5" font-size="10px" fill="#FFFFFF" font-family="Helvetica Neue, Helvetica, Arial, sans-serif"> Apollo</text></g><g class="node" aria-label="graph-node165" transform="translate(-109.9369503771469,69.27616954077118)"><circle class="b-outline" cx="0" cy="0" r="25" fill="#FFC454" stroke="#d7a013" stroke-width="2px"/><text class="caption" text-anchor="middle" pointer-events="none" x="0" y="5" font-size="10px" fill="#2A2C34" font-family="Helvetica Neue, Helvetica, Arial, sans-serif"> Továrna 1</text></g><g class="node" aria-label="graph-node166" transform="translate(-80.22060641171186,-125.89029247689793)"><circle class="b-outline" cx="0" cy="0" r="25" fill="#FFC454" stroke="#d7a013" stroke-width="2px"/><text class="caption" text-anchor="middle" pointer-events="none" x="0" y="5" font-size="10px" fill="#2A2C34" font-family="Helvetica Neue, Helvetica, Arial, sans-serif"> Továrna 2</text></g><g class="node" aria-label="graph-node167" transform="translate(-84.69074931935529,-292.5384300182529)"><circle class="b-outline" cx="0" cy="0" r="25" fill="#FFC454" stroke="#d7a013" stroke-width="2px"/><text class="caption" text-anchor="middle" pointer-events="none" x="0" y="5" font-size="10px" fill="#2A2C34" font-family="Helvetica Neue, Helvetica, Arial, sans-serif"> Továrna 3</text></g><g class="node" aria-label="graph-node168" transform="translate(-463.3585886423032,9.5815486265436)"><circle class="b-outline" cx="0" cy="0" r="25" fill="#ECB5C9" stroke="#da7298" stroke-width="2px"/><text class="caption" text-anchor="middle" pointer-events="none" x="0" y="5" font-size="10px" fill="#2A2C34" font-family="Helvetica Neue, Helvetica, Arial, sans-serif"> Sladkost 1</text></g><g class="node" aria-label="graph-node169" transform="translate(-447.351183773078,-112.06329710733456)"><circle class="b-outline" cx="0" cy="0" r="25" fill="#ECB5C9" stroke="#da7298" stroke-width="2px"/><text class="caption" text-anchor="middle" pointer-events="none" x="0" y="5" font-size="10px" fill="#2A2C34" font-family="Helvetica Neue, Helvetica, Arial, sans-serif"> Sladkost 2</text></g><g class="node" aria-label="graph-node170" transform="translate(-461.375454282353,-307.9923467774728)"><circle class="b-outline" cx="0" cy="0" r="25" fill="#ECB5C9" stroke="#da7298" stroke-width="2px"/><text class="caption" text-anchor="middle" pointer-events="none" x="0" y="5" font-size="10px" fill="#2A2C34" font-family="Helvetica Neue, Helvetica, Arial, sans-serif"> Sladkost 3</text></g><g class="node" aria-label="graph-node171" transform="translate(-312.4487201251623,95.55241902372833)"><circle class="b-outline" cx="0" cy="0" r="25" fill="#4C8EDA" stroke="#2870c2" stroke-width="2px"/><text class="caption" text-anchor="middle" pointer-events="none" x="0" y="5" font-size="10px" fill="#FFFFFF" font-family="Helvetica Neue, Helvetica, Arial, sans-serif"> Automat 1</text></g><g class="node" aria-label="graph-node172" transform="translate(-309.6444529447089,-53.20380976414343)"><circle class="b-outline" cx="0" cy="0" r="25" fill="#4C8EDA" stroke="#2870c2" stroke-width="2px"/><text class="caption" text-anchor="middle" pointer-events="none" x="0" y="5" font-size="10px" fill="#FFFFFF" font-family="Helvetica Neue, Helvetica, Arial, sans-serif"> Automat 2</text></g><g class="node" aria-label="graph-node173" transform="translate(-294.18575900849817,-159.69197756463888)"><circle class="b-outline" cx="0" cy="0" r="25" fill="#4C8EDA" stroke="#2870c2" stroke-width="2px"/><text class="caption" text-anchor="middle" pointer-events="none" x="0" y="5" font-size="10px" fill="#FFFFFF" font-family="Helvetica Neue, Helvetica, Arial, sans-serif"> Automat 3</text></g><g class="node" aria-label="graph-node174" transform="translate(-274.6785167832411,-387.96018184022034)"><circle class="b-outline" cx="0" cy="0" r="25" fill="#4C8EDA" stroke="#2870c2" stroke-width="2px"/><text class="caption" text-anchor="middle" pointer-events="none" x="0" y="5" font-size="10px" fill="#FFFFFF" font-family="Helvetica Neue, Helvetica, Arial, sans-serif"> Automat 4</text></g><g class="node" aria-label="graph-node175" transform="translate(-681.3938635625369,98.66496064926261)"><circle class="b-outline" cx="0" cy="0" r="25" fill="#F79767" stroke="#f36924" stroke-width="2px"/><text class="caption" text-anchor="middle" pointer-events="none" x="0" y="5" font-size="10px" fill="#FFFFFF" font-family="Helvetica Neue, Helvetica, Arial, sans-serif"> múka</text></g><g class="node" aria-label="graph-node176" transform="translate(-650.8426218970305,-324.86796219990924)"><circle class="b-outline" cx="0" cy="0" r="25" fill="#F79767" stroke="#f36924" stroke-width="2px"/><text class="caption" text-anchor="middle" pointer-events="none" x="0" y="5" font-size="10px" fill="#FFFFFF" font-family="Helvetica Neue, Helvetica, Arial, sans-serif"> maslo</text></g><g class="node" aria-label="graph-node177" transform="translate(-672.6331481399457,-212.59963784089155)"><circle class="b-outline" cx="0" cy="0" r="25" fill="#F79767" stroke="#f36924" stroke-width="2px"/><text class="caption" text-anchor="middle" pointer-events="none" x="0" y="5" font-size="10px" fill="#FFFFFF" font-family="Helvetica Neue, Helvetica, Arial, sans-serif"> cukor</text></g><g class="node" aria-label="graph-node178" transform="translate(-685.4077838406323,-12.764410749115825)"><circle class="b-outline" cx="0" cy="0" r="25" fill="#F79767" stroke="#f36924" stroke-width="2px"/><text class="caption" text-anchor="middle" pointer-events="none" x="0" y="5" font-size="10px" fill="#FFFFFF" font-family="Helvetica Neue, Helvetica, Arial, sans-serif"> vejce</text></g><g class="node" aria-label="graph-node179" transform="translate(-614.8333882586658,-469.9837216755841)"><circle class="b-outline" cx="0" cy="0" r="25" fill="#F79767" stroke="#f36924" stroke-width="2px"/><text class="caption" text-anchor="middle" pointer-events="none" x="0" y="5" font-size="10px" fill="#FFFFFF" font-family="Helvetica Neue, Helvetica, Arial, sans-serif"> čokoláda</text></g><g class="node" aria-label="graph-node180" transform="translate(-690.0780839666553,-115.39438178012966)"><circle class="b-outline" cx="0" cy="0" r="25" fill="#F79767" stroke="#f36924" stroke-width="2px"/><text class="caption" text-anchor="middle" pointer-events="none" x="0" y="5" font-size="10px" fill="#FFFFFF" font-family="Helvetica Neue, Helvetica, Arial, sans-serif"> mléko</text></g><g class="node" aria-label="graph-node181" transform="translate(-909.5977915548226,72.96250536901078)"><circle class="b-outline" cx="0" cy="0" r="25" fill="#8DCC93" stroke="#5db665" stroke-width="2px"/><text class="caption" text-anchor="middle" pointer-events="none" x="0" y="5" font-size="10px" fill="#2A2C34" font-family="Helvetica Neue, Helvetica, Arial, sans-serif"> lepek</text></g><g class="node" aria-label="graph-node182" transform="translate(-900.8260673965867,-98.69489290647124)"><circle class="b-outline" cx="0" cy="0" r="25" fill="#8DCC93" stroke="#5db665" stroke-width="2px"/><text class="caption" text-anchor="middle" pointer-events="none" x="0" y="5" font-size="10px" fill="#2A2C34" font-family="Helvetica Neue, Helvetica, Arial, sans-serif"> vejce</text></g><g class="node" aria-label="graph-node183" transform="translate(-888.0417066678631,-223.68549520975643)"><circle class="b-outline" cx="0" cy="0" r="25" fill="#8DCC93" stroke="#5db665" stroke-width="2px"/><text class="caption" text-anchor="middle" pointer-events="none" x="0" y="5" font-size="10px" fill="#2A2C34" font-family="Helvetica Neue, Helvetica, Arial, sans-serif"> arašídy</text></g><g class="node" aria-label="graph-node184" transform="translate(-884.3663022448062,-345.3963579398122)"><circle class="b-outline" cx="0" cy="0" r="25" fill="#8DCC93" stroke="#5db665" stroke-width="2px"/><text class="caption" text-anchor="middle" pointer-events="none" x="0" y="5" font-size="10px" fill="#2A2C34" font-family="Helvetica Neue, Helvetica, Arial, sans-serif"> sója</text></g><g class="node" aria-label="graph-node185" transform="translate(-888.0146300599586,-468.21077495195755)"><circle class="b-outline" cx="0" cy="0" r="25" fill="#8DCC93" stroke="#5db665" stroke-width="2px"/><text class="caption" text-anchor="middle" pointer-events="none" x="0" y="5" font-size="10px" fill="#2A2C34" font-family="Helvetica Neue, Helvetica, Arial, sans-serif"> mléko</text></g></g></svg>