<svg xmlns="http://www.w3.org/2000/svg" xmlns:xlink="http://www.w3.org/1999/xlink" xmlns:lucid="lucid" width="941" height="838"><g transform="translate(-519.5 1240.5)" lucid:page-tab-id="0_0"><path d="M500-1500h1000V0H500z" fill="#fff"/><path d="M540-1214a6 6 0 0 1 6-6h288a6 6 0 0 1 6 6v310a6 6 0 0 1-6 6H546a6 6 0 0 1-6-6z" stroke="#3a414a" fill="#fff"/><path d="M540-1178.13h300" stroke="#3a414a" fill="none"/><use xlink:href="#a" transform="matrix(1,0,0,1,548,-1212) translate(95.173828125 20.69314236111111)"/><use xlink:href="#b" transform="matrix(1,0,0,1,552,-1170.1319444444443) translate(0 101.39105902777777)"/><use xlink:href="#c" transform="matrix(1,0,0,1,552,-1170.1319444444443) translate(26.7578125 101.39105902777777)"/><use xlink:href="#b" transform="matrix(1,0,0,1,552,-1170.1319444444443) translate(0 127.25911458333333)"/><use xlink:href="#d" transform="matrix(1,0,0,1,552,-1170.1319444444443) translate(26.7578125 127.25911458333333)"/><use xlink:href="#b" transform="matrix(1,0,0,1,552,-1170.1319444444443) translate(0 153.12717013888889)"/><use xlink:href="#e" transform="matrix(1,0,0,1,552,-1170.1319444444443) translate(26.7578125 153.12717013888889)"/><use xlink:href="#f" transform="matrix(1,0,0,1,552,-1170.1319444444443) translate(147.16796875 153.12717013888889)"/><use xlink:href="#g" transform="matrix(1,0,0,1,552,-1170.1319444444443) translate(0 178.99522569444443)"/><path d="M540-614a6 6 0 0 1 6-6h288a6 6 0 0 1 6 6v185a6 6 0 0 1-6 6H546a6 6 0 0 1-6-6z" stroke="#3a414a" fill="#fff"/><path d="M540-578.13h300" stroke="#3a414a" fill="none"/><use xlink:href="#h" transform="matrix(1,0,0,1,548,-612) translate(88.484375 20.69314236111111)"/><use xlink:href="#i" transform="matrix(1,0,0,1,552,-570.1319444444445) translate(4.421657986111111 77.19314236111111)"/><use xlink:href="#j" transform="matrix(1,0,0,1,552,-570.1319444444445) translate(22.22222222222222 77.19314236111111)"/><path d="M1140-1214a6 6 0 0 1 6-6h288a6 6 0 0 1 6 6v310a6 6 0 0 1-6 6h-288a6 6 0 0 1-6-6z" stroke="#3a414a" fill="#fff"/><path d="M1140-1178.13h300" stroke="#3a414a" fill="none"/><use xlink:href="#k" transform="matrix(1,0,0,1,1148,-1212) translate(68.416015625 20.69314236111111)"/><use xlink:href="#i" transform="matrix(1,0,0,1,1152,-1170.1319444444443) translate(4.421657986111111 101.39105902777777)"/><use xlink:href="#l" transform="matrix(1,0,0,1,1152,-1170.1319444444443) translate(22.22222222222222 101.39105902777777)"/><use xlink:href="#i" transform="matrix(1,0,0,1,1152,-1170.1319444444443) translate(4.421657986111111 127.25911458333333)"/><use xlink:href="#m" transform="matrix(1,0,0,1,1152,-1170.1319444444443) translate(22.22222222222222 127.25911458333333)"/><use xlink:href="#n" transform="matrix(1,0,0,1,1152,-1170.1319444444443) translate(102.49565972222223 127.25911458333333)"/><use xlink:href="#i" transform="matrix(1,0,0,1,1152,-1170.1319444444443) translate(4.421657986111111 153.12717013888889)"/><use xlink:href="#o" transform="matrix(1,0,0,1,1152,-1170.1319444444443) translate(22.22222222222222 153.12717013888889)"/><use xlink:href="#i" transform="matrix(1,0,0,1,1152,-1170.1319444444443) translate(4.421657986111111 178.99522569444443)"/><use xlink:href="#p" transform="matrix(1,0,0,1,1152,-1170.1319444444443) translate(22.22222222222222 178.99522569444443)"/><use xlink:href="#q" transform="matrix(1,0,0,1,1152,-1170.1319444444443) translate(115.87456597222223 178.99522569444443)"/><path d="M841-1059h291.63" stroke="#3a414a" fill="none"/><path d="M841-1058.5h-.5v-1h.5z" stroke="#3a414a" stroke-width=".05" fill="#3a414a"/><path d="M1138.52-1059l-12.9 7.64v-15.28z" stroke="#3a414a" fill="#3a414a"/><g><use xlink:href="#r" transform="matrix(1,0,0,1,840.4728272810648,-1088.8680555555557) translate(0 20.62717013888889)"/></g><g><use xlink:href="#s" transform="matrix(1,0,0,1,1085.7397792681243,-1093.50331047118) translate(0 20.62717013888889)"/></g><g><use xlink:href="#t" transform="matrix(1,0,0,1,923.10546875,-1088.8680555555557) translate(0 20.62717013888889)"/></g><path d="M690-897v269.63" stroke="#3a414a" fill="none"/><path d="M690.5-897h-1v-.5h1z" stroke="#3a414a" stroke-width=".05" fill="#3a414a"/><path d="M690-621.48l-7.64-12.9h15.28z" stroke="#3a414a" fill="#3a414a"/><g><use xlink:href="#u" transform="matrix(1,0,0,1,698.0000000000001,-771.9340277777778) translate(0 20.62717013888889)"/></g><g><use xlink:href="#s" transform="matrix(1,0,0,1,698.0000000000001,-897.5423506845005) translate(0 20.62717013888889)"/></g><g><use xlink:href="#s" transform="matrix(1,0,0,1,702.6352549156243,-646.4339777777777) translate(0 20.62717013888889)"/></g><defs><path d="M764 0H469v-1235H90v-258h1053v258H764V0" id="v"/><path d="M842-559c0-188-62-350-226-350-163 0-225 163-225 350s62 350 225 350c164 0 226-162 226-350zM616 29C289 29 98-219 98-559s191-588 518-588c328 0 519 248 519 588 0 341-191 588-519 588" id="w"/><path d="M1153-1120L797 0H436L80-1120h297l239 874 240-874h297" id="x"/><path d="M573-174c177-3 250-155 244-352H700c-189 5-288 22-294 186-4 100 66 168 167 166zm41-973c376 0 494 126 494 508V0H817v-125C754-35 643 28 498 29 250 32 90-110 94-354c5-293 200-382 520-383h203c15-144-66-195-203-193-171 2-284 44-409 111v-250c121-50 246-78 409-78zm138-491h282l-368 376H469" id="y"/><path d="M924-1147c90 1 165 23 227 57v279c-80-87-287-118-417-55-120 58-150 157-150 350V0H291v-1120h293v174c52-120 173-201 340-201" id="z"/><path d="M750-1147c234 0 322 167 321 420V0H780v-682c-2-141-23-227-147-227-123 0-170 126-170 268V0H172v-1120h291v168c37-116 138-195 287-195" id="A"/><path d="M573-174c177-3 250-155 244-352H700c-189 5-288 22-294 186-4 100 66 168 167 166zm41-973c376 0 494 126 494 508V0H817v-125C754-35 643 28 498 29 250 32 90-110 94-354c5-293 200-382 520-383h203c15-144-66-195-203-193-171 2-284 44-409 111v-250c121-50 246-78 409-78" id="B"/><g id="a"><use transform="matrix(0.010850694444444444,0,0,0.010850694444444444,0,0)" xlink:href="#v"/><use transform="matrix(0.010850694444444444,0,0,0.010850694444444444,13.37890625,0)" xlink:href="#w"/><use transform="matrix(0.010850694444444444,0,0,0.010850694444444444,26.7578125,0)" xlink:href="#x"/><use transform="matrix(0.010850694444444444,0,0,0.010850694444444444,40.13671875,0)" xlink:href="#y"/><use transform="matrix(0.010850694444444444,0,0,0.010850694444444444,53.515625,0)" xlink:href="#z"/><use transform="matrix(0.010850694444444444,0,0,0.010850694444444444,66.89453125,0)" xlink:href="#A"/><use transform="matrix(0.010850694444444444,0,0,0.010850694444444444,80.2734375,0)" xlink:href="#B"/></g><path d="M356-643h521v164H356v-164" id="C"/><use transform="matrix(0.010850694444444444,0,0,0.010850694444444444,0,0)" xlink:href="#C" id="b"/><path d="M256-1120h471v977h365V0H178v-143h365v-834H256v-143zm287-436h184v233H543v-233" id="D"/><path d="M559-1147c146 0 246 68 299 170v-579h184V0H858v-141C803-40 706 29 559 29c-300 0-436-264-436-592 0-325 139-584 436-584zM385-882c-81 129-87 521 0 646 49 70 112 109 201 109s152-39 202-110c89-127 83-514 0-645-88-139-315-140-403 0" id="E"/><g id="c"><use transform="matrix(0.010850694444444444,0,0,0.010850694444444444,0,0)" xlink:href="#D"/><use transform="matrix(0.010850694444444444,0,0,0.010850694444444444,13.37890625,0)" xlink:href="#E"/></g><path d="M711-1147c253 0 340 178 340 453V0H866v-694c-1-183-51-293-219-293-189 0-268 148-268 354V0H195v-1120h184v168c60-118 165-195 332-195" id="F"/><path d="M547-125c229-2 340-186 327-438H641c-189 0-321 55-324 225-3 137 91 215 230 213zm-332-944c167-71 431-115 615-37 106 45 186 120 213 246 11 49 16 123 16 221V0H874v-166C800-42 695 26 508 29c-220 3-378-138-375-355 4-274 199-382 494-381h247c6-204-80-285-282-284-149 1-272 46-377 106v-184zm541-569h198l-325 376H475" id="G"/><path d="M227-1122h813v168L397-150h643V0H203v-170l643-805H227v-147" id="H"/><path d="M651-1147c298 0 466 229 461 541v90H315c-4 242 129 392 365 389 156-2 268-51 389-113v183C949-8 828 27 678 29c-351 3-555-232-555-588 0-338 200-588 528-588zm277 487c-4-201-91-331-285-331-193 0-305 144-321 332" id="I"/><path d="M100-1120h191l325 940 326-940h191L735 0H498" id="J"/><g id="d"><use transform="matrix(0.010850694444444444,0,0,0.010850694444444444,0,0)" xlink:href="#F"/><use transform="matrix(0.010850694444444444,0,0,0.010850694444444444,13.37890625,0)" xlink:href="#G"/><use transform="matrix(0.010850694444444444,0,0,0.010850694444444444,26.7578125,0)" xlink:href="#H"/><use transform="matrix(0.010850694444444444,0,0,0.010850694444444444,40.13671875,0)" xlink:href="#I"/><use transform="matrix(0.010850694444444444,0,0,0.010850694444444444,53.515625,0)" xlink:href="#J"/></g><path d="M915-1147c102 0 174 26 240 70v188c-71-55-140-88-254-88-243 0-354 165-354 420V0H362v-1120h185v219c55-146 178-246 368-246" id="K"/><path d="M1153-1120C1010-750 884-433 741-52c-66 176-110 283-133 322-55 94-138 156-276 156H184V272c97 0 188 7 236-47 29-33 70-112 117-243L104-1120h195l332 876 327-876h195" id="L"/><path d="M748-127c144 0 233-46 313-121v191C974-6 875 28 748 29c-351 3-553-232-553-588 0-357 202-591 553-588 129 2 222 35 313 86v193c-88-76-165-123-313-123-245 0-359 174-359 432 0 257 115 432 359 432" id="M"/><path d="M711-1147c253 0 340 178 340 453V0H866v-694c-1-183-51-293-219-293-189 0-268 148-268 354V0H195v-1556h184v604c60-118 165-195 332-195" id="N"/><path d="M801 0C570 0 455-164 455-406v-1017H160v-144h479v1161c0 147 46 250 180 250h215V0H801" id="O"/><path d="M616-991c-93 0-161 39-212 109-92 126-92 520 0 646 52 70 119 109 212 109 94 0 161-39 213-109 93-126 92-520 0-646-52-70-119-109-213-109zM137-559c0-353 146-588 479-588s480 235 480 588c0 355-145 588-480 588-334 0-479-234-479-588" id="P"/><path d="M637-1147c132 1 237 25 336 66v180c-92-53-190-92-322-92-145 0-248 35-248 164 0 50 15 87 46 112 23 30 197 67 303 86 166 30 278 123 278 307 0 239-191 356-446 353-140-2-251-31-371-70v-190c114 58 228 103 375 106 145 3 253-56 256-188 3-87-90-149-253-179-210-38-374-93-374-319 0-232 173-338 420-336" id="Q"/><path d="M807 0C529-4 430-92 430-369v-608H131v-143h299v-318h184v318h418v143H614v608c2 165 49 222 211 222h207V0H807" id="R"/><g id="e"><use transform="matrix(0.010850694444444444,0,0,0.010850694444444444,0,0)" xlink:href="#K"/><use transform="matrix(0.010850694444444444,0,0,0.010850694444444444,13.37890625,0)" xlink:href="#L"/><use transform="matrix(0.010850694444444444,0,0,0.010850694444444444,26.7578125,0)" xlink:href="#M"/><use transform="matrix(0.010850694444444444,0,0,0.010850694444444444,40.13671875,0)" xlink:href="#N"/><use transform="matrix(0.010850694444444444,0,0,0.010850694444444444,53.515625,0)" xlink:href="#O"/><use transform="matrix(0.010850694444444444,0,0,0.010850694444444444,66.89453125,0)" xlink:href="#P"/><use transform="matrix(0.010850694444444444,0,0,0.010850694444444444,80.2734375,0)" xlink:href="#Q"/><use transform="matrix(0.010850694444444444,0,0,0.010850694444444444,93.65234375,0)" xlink:href="#R"/></g><path d="M1153-1120C1010-750 884-433 741-52c-66 176-110 283-133 322-55 94-138 156-276 156H184V272c97 0 188 7 236-47 29-33 70-112 117-243L104-1120h195l332 876 327-876h195zm-397-518h198l-325 376H475" id="S"/><path d="M850-236c87-126 87-521 0-646-49-70-112-109-201-109s-154 38-203 109c-89 127-89 518 0 645 49 71 114 110 203 110s152-39 201-109zM676 29c-146 0-244-69-299-170V0H193v-1556h184v579c53-101 154-170 301-170 297 0 434 260 434 584 0 329-136 592-436 592" id="T"/><g id="f"><use transform="matrix(0.010850694444444444,0,0,0.010850694444444444,0,0)" xlink:href="#J"/><use transform="matrix(0.010850694444444444,0,0,0.010850694444444444,13.37890625,0)" xlink:href="#S"/><use transform="matrix(0.010850694444444444,0,0,0.010850694444444444,26.7578125,0)" xlink:href="#K"/><use transform="matrix(0.010850694444444444,0,0,0.010850694444444444,40.13671875,0)" xlink:href="#P"/><use transform="matrix(0.010850694444444444,0,0,0.010850694444444444,53.515625,0)" xlink:href="#T"/><use transform="matrix(0.010850694444444444,0,0,0.010850694444444444,66.89453125,0)" xlink:href="#L"/></g><path d="M582-215c134 3 229-61 229-188 0-171-173-202-301-252-148-58-249-117-302-179s-79-146-79-251c-2-279 200-439 487-435 159 1 291 39 410 93v288c-107-75-227-134-387-137-128-2-219 48-221 166 0 41 16 74 42 102 40 43 213 104 300 138 211 80 350 191 350 450 0 322-199 450-537 449-170-1-316-43-438-105v-305c132 92 257 161 447 166" id="U"/><path d="M778 0C477-5 387-150 387-467v-864H90v-225h590v1089c3 161 32 242 180 242h234V0H778" id="V"/><path d="M504-1147c146 0 225 81 287 186v-595h292V0H791v-166C735-52 649 29 494 29c-128 0-223-55-298-154-137-182-137-692 2-870 76-98 173-152 306-152zm-67 336c-66 112-66 396 0 508 70 119 228 118 299 0 67-112 67-396 0-508-71-118-229-119-299 0" id="W"/><path d="M174-1556h293v817l352-381h355L750-702 1198 0H874L567-524l-100 96V0H174v-1556" id="X"/><path d="M618-1147c139 1 264 24 373 62v256c-94-60-205-105-344-105-109 0-192 22-198 113-5 55 86 104 225 133 223 47 396 118 393 371-3 255-179 346-455 346-156-1-293-29-422-70v-256c110 62 239 113 392 113 113 0 209-23 209-117 0-37-14-64-37-86-24-24-177-63-260-82-196-44-322-122-322-336 0-236 191-344 446-342" id="Y"/><path d="M827 0C501-7 397-66 397-379v-516H111v-225h286v-318h293v318h383v225H690v530c2 106 48 140 158 140h225V0H827" id="Z"/><g id="h"><use transform="matrix(0.010850694444444444,0,0,0.010850694444444444,0,0)" xlink:href="#U"/><use transform="matrix(0.010850694444444444,0,0,0.010850694444444444,13.37890625,0)" xlink:href="#V"/><use transform="matrix(0.010850694444444444,0,0,0.010850694444444444,26.7578125,0)" xlink:href="#B"/><use transform="matrix(0.010850694444444444,0,0,0.010850694444444444,40.13671875,0)" xlink:href="#W"/><use transform="matrix(0.010850694444444444,0,0,0.010850694444444444,53.515625,0)" xlink:href="#X"/><use transform="matrix(0.010850694444444444,0,0,0.010850694444444444,66.89453125,0)" xlink:href="#w"/><use transform="matrix(0.010850694444444444,0,0,0.010850694444444444,80.2734375,0)" xlink:href="#Y"/><use transform="matrix(0.010850694444444444,0,0,0.010850694444444444,93.65234375,0)" xlink:href="#Z"/></g><path d="M356-643h521v164H356v-164" id="aa"/><use transform="matrix(0.010850694444444444,0,0,0.010850694444444444,0,0)" xlink:href="#aa" id="i"/><g id="j"><use transform="matrix(0.010850694444444444,0,0,0.010850694444444444,0,0)" xlink:href="#D"/><use transform="matrix(0.010850694444444444,0,0,0.010850694444444444,13.37890625,0)" xlink:href="#E"/></g><path d="M137-1493h1010v244L455-260h706V0H115v-244l671-989H137v-260" id="ab"/><path d="M498-1147c88-2 180 65 192 139 40-85 96-139 209-139 97 0 164 33 201 100s55 205 55 416V0H915v-719c0-83-8-138-19-167-21-56-118-55-139 1-11 29-20 84-20 166V0H500v-719c0-82-9-137-20-166-21-56-118-57-139-1-11 29-19 84-19 167V0H82v-1120h213v116c28-79 103-141 203-143" id="ac"/><path d="M698-203c169-2 281-50 404-121v269C974-3 842 28 670 29 296 31 92-181 92-555c0-348 195-592 533-592s528 218 524 563v119H390c3 185 114 264 308 262zm156-482c-2-151-77-235-229-235-144 1-220 97-232 236zm-341-582l-256-376h178l198 227 199-227h178l-256 376H513" id="ad"/><path d="M698-203c169-2 281-50 404-121v269C974-3 842 28 670 29 296 31 92-181 92-555c0-348 195-592 533-592s528 218 524 563v119H390c3 185 114 264 308 262zm156-482c-2-151-77-235-229-235-144 1-220 97-232 236" id="ae"/><path d="M762-211c132 0 221-47 299-115v269C968-3 859 29 719 29c-350 3-551-232-551-588 0-357 203-592 553-590 139 1 241 34 340 86v268c-75-64-172-114-299-114-201 0-297 140-297 350s96 348 297 348" id="af"/><g id="k"><use transform="matrix(0.010850694444444444,0,0,0.010850694444444444,0,0)" xlink:href="#ab"/><use transform="matrix(0.010850694444444444,0,0,0.010850694444444444,13.37890625,0)" xlink:href="#B"/><use transform="matrix(0.010850694444444444,0,0,0.010850694444444444,26.7578125,0)" xlink:href="#ac"/><use transform="matrix(0.010850694444444444,0,0,0.010850694444444444,40.13671875,0)" xlink:href="#ad"/><use transform="matrix(0.010850694444444444,0,0,0.010850694444444444,53.515625,0)" xlink:href="#Y"/><use transform="matrix(0.010850694444444444,0,0,0.010850694444444444,66.89453125,0)" xlink:href="#Z"/><use transform="matrix(0.010850694444444444,0,0,0.010850694444444444,80.2734375,0)" xlink:href="#A"/><use transform="matrix(0.010850694444444444,0,0,0.010850694444444444,93.65234375,0)" xlink:href="#B"/><use transform="matrix(0.010850694444444444,0,0,0.010850694444444444,107.03125,0)" xlink:href="#A"/><use transform="matrix(0.010850694444444444,0,0,0.010850694444444444,120.41015625,0)" xlink:href="#ae"/><use transform="matrix(0.010850694444444444,0,0,0.010850694444444444,133.7890625,0)" xlink:href="#af"/></g><g id="l"><use transform="matrix(0.010850694444444444,0,0,0.010850694444444444,0,0)" xlink:href="#D"/><use transform="matrix(0.010850694444444444,0,0,0.010850694444444444,13.37890625,0)" xlink:href="#E"/></g><path d="M420 270c135-3 180-101 180-250v-997H283v-143h501V20c2 243-112 405-344 406H186V270h234zm180-1826h184v233H600v-233" id="ag"/><path d="M471-1147c112 0 171 55 205 141 41-85 99-141 213-141 90 0 154 35 191 105s55 200 55 393V0H967v-641c0-158-12-256-27-295-31-81-176-72-206 4-17 42-29 138-29 291V0H537v-641c0-160-10-259-29-296s-53-56-102-56-83 20-102 61-28 138-28 291V0H109v-1120h167v96c38-70 97-123 195-123" id="ah"/><path d="M651-1147c298 0 466 229 461 541v90H315c-4 242 129 392 365 389 156-2 268-51 389-113v183C949-8 828 27 678 29c-351 3-555-232-555-588 0-338 200-588 528-588zm277 487c-4-201-91-331-285-331-193 0-305 144-321 332zm-158-978h198l-325 376H489" id="ai"/><g id="m"><use transform="matrix(0.010850694444444444,0,0,0.010850694444444444,0,0)" xlink:href="#ag"/><use transform="matrix(0.010850694444444444,0,0,0.010850694444444444,13.37890625,0)" xlink:href="#ah"/><use transform="matrix(0.010850694444444444,0,0,0.010850694444444444,26.7578125,0)" xlink:href="#ai"/><use transform="matrix(0.010850694444444444,0,0,0.010850694444444444,40.13671875,0)" xlink:href="#F"/><use transform="matrix(0.010850694444444444,0,0,0.010850694444444444,53.515625,0)" xlink:href="#P"/></g><path d="M463-1556h424v143H647V127h240v143H463v-1826" id="aj"/><path d="M614-616c-74 0-131-59-131-134 0-70 61-135 131-135 72 0 136 64 136 135 0 73-63 134-136 134zm2-744c-94 0-159 53-210 152-88 171-88 754 0 925 51 99 116 152 210 152 95 0 161-53 212-152 88-172 88-754 0-925-51-99-117-152-212-152zm0-160c159 0 280 65 362 196s122 324 122 579-40 447-122 578S775 29 616 29 336-36 255-167 133-490 133-745s41-448 122-579 202-196 361-196" id="ak"/><path d="M489-305h252V0H489v-305" id="al"/><path d="M1067-1247l-358 194 358 195-57 98-336-203v377H559v-377L223-760l-57-98 358-195-358-194 57-99 336 203v-377h115v377l336-203" id="am"/><path d="M770-1556V270H346V127h240v-1540H346v-143h424" id="an"/><g id="n"><use transform="matrix(0.010850694444444444,0,0,0.010850694444444444,0,0)" xlink:href="#aj"/><use transform="matrix(0.010850694444444444,0,0,0.010850694444444444,13.37890625,0)" xlink:href="#ak"/><use transform="matrix(0.010850694444444444,0,0,0.010850694444444444,26.7578125,0)" xlink:href="#al"/><use transform="matrix(0.010850694444444444,0,0,0.010850694444444444,40.13671875,0)" xlink:href="#al"/><use transform="matrix(0.010850694444444444,0,0,0.010850694444444444,53.515625,0)" xlink:href="#am"/><use transform="matrix(0.010850694444444444,0,0,0.010850694444444444,66.89453125,0)" xlink:href="#an"/></g><path d="M674 29c-147 0-246-68-299-170v567H190v-1546h185v143c55-101 152-170 299-170 300 0 434 263 434 592 0 325-137 584-434 584zm174-265c87-125 87-521 0-646-48-70-112-109-201-109s-154 38-203 109c-89 127-89 518 0 645 49 71 114 110 203 110s153-39 201-109" id="ao"/><path d="M915-1147c102 0 174 26 240 70v188c-71-55-140-88-254-88-243 0-354 165-354 420V0H362v-1120h185v219c55-146 178-246 368-246zm-282-115l-246-376h139l180 245 181-245h139l-246 376H633" id="ap"/><path d="M256-1120h471v977h365V0H178v-143h365v-834H256v-143zm500-518h198l-325 376H475" id="aq"/><g id="o"><use transform="matrix(0.010850694444444444,0,0,0.010850694444444444,0,0)" xlink:href="#ao"/><use transform="matrix(0.010850694444444444,0,0,0.010850694444444444,13.37890625,0)" xlink:href="#ap"/><use transform="matrix(0.010850694444444444,0,0,0.010850694444444444,26.7578125,0)" xlink:href="#D"/><use transform="matrix(0.010850694444444444,0,0,0.010850694444444444,40.13671875,0)" xlink:href="#ag"/><use transform="matrix(0.010850694444444444,0,0,0.010850694444444444,53.515625,0)" xlink:href="#ah"/><use transform="matrix(0.010850694444444444,0,0,0.010850694444444444,66.89453125,0)" xlink:href="#I"/><use transform="matrix(0.010850694444444444,0,0,0.010850694444444444,80.2734375,0)" xlink:href="#F"/><use transform="matrix(0.010850694444444444,0,0,0.010850694444444444,93.65234375,0)" xlink:href="#aq"/></g><path d="M535 29c-255 0-340-177-340-453v-694h184v694c1 183 52 293 219 293 191 0 268-148 268-354v-633h185V0H866v-168C807-50 701 29 535 29" id="ar"/><g id="p"><use transform="matrix(0.010850694444444444,0,0,0.010850694444444444,0,0)" xlink:href="#R"/><use transform="matrix(0.010850694444444444,0,0,0.010850694444444444,13.37890625,0)" xlink:href="#D"/><use transform="matrix(0.010850694444444444,0,0,0.010850694444444444,26.7578125,0)" xlink:href="#R"/><use transform="matrix(0.010850694444444444,0,0,0.010850694444444444,40.13671875,0)" xlink:href="#ar"/><use transform="matrix(0.010850694444444444,0,0,0.010850694444444444,53.515625,0)" xlink:href="#O"/><use transform="matrix(0.010850694444444444,0,0,0.010850694444444444,66.89453125,0)" xlink:href="#L"/></g><g id="q"><use transform="matrix(0.010850694444444444,0,0,0.010850694444444444,0,0)" xlink:href="#aj"/><use transform="matrix(0.010850694444444444,0,0,0.010850694444444444,13.37890625,0)" xlink:href="#ak"/><use transform="matrix(0.010850694444444444,0,0,0.010850694444444444,26.7578125,0)" xlink:href="#al"/><use transform="matrix(0.010850694444444444,0,0,0.010850694444444444,40.13671875,0)" xlink:href="#al"/><use transform="matrix(0.010850694444444444,0,0,0.010850694444444444,53.515625,0)" xlink:href="#am"/><use transform="matrix(0.010850694444444444,0,0,0.010850694444444444,66.89453125,0)" xlink:href="#an"/></g><path d="M270-170h314v-1141l-338 76v-184l336-74h202v1323h310V0H270v-170" id="as"/><g id="r"><use transform="matrix(0.010850694444444444,0,0,0.010850694444444444,0,0)" xlink:href="#as"/><use transform="matrix(0.010850694444444444,0,0,0.010850694444444444,13.37890625,0)" xlink:href="#al"/><use transform="matrix(0.010850694444444444,0,0,0.010850694444444444,26.7578125,0)" xlink:href="#al"/><use transform="matrix(0.010850694444444444,0,0,0.010850694444444444,40.13671875,0)" xlink:href="#as"/></g><g id="s"><use transform="matrix(0.010850694444444444,0,0,0.010850694444444444,0,0)" xlink:href="#ak"/><use transform="matrix(0.010850694444444444,0,0,0.010850694444444444,13.37890625,0)" xlink:href="#al"/><use transform="matrix(0.010850694444444444,0,0,0.010850694444444444,26.7578125,0)" xlink:href="#al"/><use transform="matrix(0.010850694444444444,0,0,0.010850694444444444,40.13671875,0)" xlink:href="#am"/></g><path fill="#333" d="M186-1120h895v229L492-219h589V0H162v-229l590-672H186v-219" id="at"/><path fill="#333" d="M573-174c177-3 250-155 244-352H700c-189 5-288 22-294 186-4 100 66 168 167 166zm41-973c376 0 494 126 494 508V0H817v-125C754-35 643 28 498 29 250 32 90-110 94-354c5-293 200-382 520-383h203c15-144-66-195-203-193-171 2-284 44-409 111v-250c121-50 246-78 409-78" id="au"/><path fill="#333" d="M498-1147c88-2 180 65 192 139 40-85 96-139 209-139 97 0 164 33 201 100s55 205 55 416V0H915v-719c0-83-8-138-19-167-21-56-118-55-139 1-11 29-20 84-20 166V0H500v-719c0-82-9-137-20-166-21-56-118-57-139-1-11 29-19 84-19 167V0H82v-1120h213v116c28-79 103-141 203-143" id="av"/><path fill="#333" d="M698-203c169-2 281-50 404-121v269C974-3 842 28 670 29 296 31 92-181 92-555c0-348 195-592 533-592s528 218 524 563v119H390c3 185 114 264 308 262zm156-482c-2-151-77-235-229-235-144 1-220 97-232 236zm-341-582l-256-376h178l198 227 199-227h178l-256 376H513" id="aw"/><path fill="#333" d="M618-1147c139 1 264 24 373 62v256c-94-60-205-105-344-105-109 0-192 22-198 113-5 55 86 104 225 133 223 47 396 118 393 371-3 255-179 346-455 346-156-1-293-29-422-70v-256c110 62 239 113 392 113 113 0 209-23 209-117 0-37-14-64-37-86-24-24-177-63-260-82-196-44-322-122-322-336 0-236 191-344 446-342" id="ax"/><path fill="#333" d="M827 0C501-7 397-66 397-379v-516H111v-225h286v-318h293v318h383v225H690v530c2 106 48 140 158 140h225V0H827" id="ay"/><path fill="#333" d="M750-1147c234 0 322 167 321 420V0H780v-682c-2-141-23-227-147-227-123 0-170 126-170 268V0H172v-1120h291v168c37-116 138-195 287-195" id="az"/><path fill="#333" d="M573-174c177-3 250-155 244-352H700c-189 5-288 22-294 186-4 100 66 168 167 166zm41-973c376 0 494 126 494 508V0H817v-125C754-35 643 28 498 29 250 32 90-110 94-354c5-293 200-382 520-383h203c15-144-66-195-203-193-171 2-284 44-409 111v-250c121-50 246-78 409-78zm138-491h282l-368 376H469" id="aA"/><path fill="#333" d="M1153-1120L797 0H436L80-1120h297l239 874 240-874h297" id="aB"/><g id="t"><use transform="matrix(0.010850694444444444,0,0,0.010850694444444444,0,0)" xlink:href="#at"/><use transform="matrix(0.010850694444444444,0,0,0.010850694444444444,13.37890625,0)" xlink:href="#au"/><use transform="matrix(0.010850694444444444,0,0,0.010850694444444444,26.7578125,0)" xlink:href="#av"/><use transform="matrix(0.010850694444444444,0,0,0.010850694444444444,40.13671875,0)" xlink:href="#aw"/><use transform="matrix(0.010850694444444444,0,0,0.010850694444444444,53.515625,0)" xlink:href="#ax"/><use transform="matrix(0.010850694444444444,0,0,0.010850694444444444,66.89453125,0)" xlink:href="#ay"/><use transform="matrix(0.010850694444444444,0,0,0.010850694444444444,80.2734375,0)" xlink:href="#az"/><use transform="matrix(0.010850694444444444,0,0,0.010850694444444444,93.65234375,0)" xlink:href="#aA"/><use transform="matrix(0.010850694444444444,0,0,0.010850694444444444,107.03125,0)" xlink:href="#aB"/><use transform="matrix(0.010850694444444444,0,0,0.010850694444444444,120.41015625,0)" xlink:href="#aA"/></g><path fill="#333" d="M711 121c-39 105-86 183-141 231s-122 72-201 72H127V201c88-1 207 8 251-31 36-18 84-129 107-201L59-1120h308l256 727 245-727h308" id="aC"/><path fill="#333" d="M924-1147c90 1 165 23 227 57v279c-80-87-287-118-417-55-120 58-150 157-150 350V0H291v-1120h293v174c52-120 173-201 340-201" id="aD"/><path fill="#333" d="M796-303c66-112 66-396 0-508-70-119-228-118-299 0-67 112-67 396 0 508 71 118 229 119 299 0zM739 29c-154 0-243-80-297-195V0H150v-1556h292v595c62-105 141-186 287-186 133 0 231 54 307 152 139 179 138 689 1 870C962-26 867 29 739 29" id="aE"/><path fill="#333" d="M221-1120h580v895h364V0H143v-225h365v-670H221v-225zm531-518h282l-368 376H469" id="aF"/><g id="u"><use transform="matrix(0.010850694444444444,0,0,0.010850694444444444,0,0)" xlink:href="#aB"/><use transform="matrix(0.010850694444444444,0,0,0.010850694444444444,13.37890625,0)" xlink:href="#aC"/><use transform="matrix(0.010850694444444444,0,0,0.010850694444444444,26.7578125,0)" xlink:href="#aD"/><use transform="matrix(0.010850694444444444,0,0,0.010850694444444444,40.13671875,0)" xlink:href="#aA"/><use transform="matrix(0.010850694444444444,0,0,0.010850694444444444,53.515625,0)" xlink:href="#aE"/><use transform="matrix(0.010850694444444444,0,0,0.010850694444444444,66.89453125,0)" xlink:href="#aF"/></g></defs></g></svg>