<svg xmlns="http://www.w3.org/2000/svg" xmlns:xlink="http://www.w3.org/1999/xlink" xmlns:lucid="lucid" width="941" height="954"><g transform="translate(-292.16666666666663 574.6666666666666)" lucid:page-tab-id="0_0"><path d="M0-1000h1500V500H0z" fill="#fff"/><path d="M312.67-548.17a6 6 0 0 1 6-6h288a6 6 0 0 1 6 6v233a6 6 0 0 1-6 6h-288a6 6 0 0 1-6-6z" stroke="#3a414a" fill="#fff"/><path d="M312.67-512.3h300" stroke="#3a414a" fill="none"/><use xlink:href="#a" transform="matrix(1,0,0,1,320.66666666666663,-546.1666666666666) translate(95.173828125 20.69314236111111)"/><use xlink:href="#b" transform="matrix(1,0,0,1,324.66666666666663,-504.2986111111111) translate(0 101.19314236111111)"/><use xlink:href="#c" transform="matrix(1,0,0,1,324.66666666666663,-504.2986111111111) translate(26.7578125 101.19314236111111)"/><path d="M312.67 103.33a6 6 0 0 1 6-6h288a6 6 0 0 1 6 6v185a6 6 0 0 1-6 6h-288a6 6 0 0 1-6-6z" stroke="#3a414a" fill="#fff"/><path d="M312.67 139.2h300" stroke="#3a414a" fill="none"/><use xlink:href="#d" transform="matrix(1,0,0,1,320.66666666666663,105.33333333333337) translate(88.484375 20.69314236111111)"/><use xlink:href="#e" transform="matrix(1,0,0,1,324.66666666666663,147.2013888888889) translate(4.421657986111111 77.19314236111111)"/><use xlink:href="#f" transform="matrix(1,0,0,1,324.66666666666663,147.2013888888889) translate(22.22222222222222 77.19314236111111)"/><path d="M912.67 38.83a6 6 0 0 1 6-6h288a6 6 0 0 1 6 6v314a6 6 0 0 1-6 6h-288a6 6 0 0 1-6-6z" stroke="#3a414a" fill="#fff"/><path d="M912.67 74.7h300" stroke="#3a414a" fill="none"/><use xlink:href="#g" transform="matrix(1,0,0,1,920.6666666666666,40.83333333333337) translate(95.173828125 20.69314236111111)"/><use xlink:href="#e" transform="matrix(1,0,0,1,924.6666666666666,82.70138888888893) translate(4.421657986111111 77.52300347222223)"/><use xlink:href="#h" transform="matrix(1,0,0,1,924.6666666666666,82.70138888888893) translate(22.22222222222222 77.52300347222223)"/><use xlink:href="#e" transform="matrix(1,0,0,1,924.6666666666666,82.70138888888893) translate(4.421657986111111 103.39105902777779)"/><use xlink:href="#i" transform="matrix(1,0,0,1,924.6666666666666,82.70138888888893) translate(22.22222222222222 103.39105902777779)"/><use xlink:href="#e" transform="matrix(1,0,0,1,924.6666666666666,82.70138888888893) translate(4.421657986111111 129.25911458333334)"/><use xlink:href="#j" transform="matrix(1,0,0,1,924.6666666666666,82.70138888888893) translate(22.22222222222222 129.25911458333334)"/><use xlink:href="#e" transform="matrix(1,0,0,1,924.6666666666666,82.70138888888893) translate(4.421657986111111 155.12717013888889)"/><use xlink:href="#k" transform="matrix(1,0,0,1,924.6666666666666,82.70138888888893) translate(22.22222222222222 155.12717013888889)"/><use xlink:href="#e" transform="matrix(1,0,0,1,924.6666666666666,82.70138888888893) translate(4.421657986111111 180.99522569444446)"/><use xlink:href="#l" transform="matrix(1,0,0,1,924.6666666666666,82.70138888888893) translate(22.22222222222222 180.99522569444446)"/><use xlink:href="#e" transform="matrix(1,0,0,1,924.6666666666666,82.70138888888893) translate(4.421657986111111 206.86328125)"/><use xlink:href="#m" transform="matrix(1,0,0,1,924.6666666666666,82.70138888888893) translate(22.22222222222222 206.86328125)"/><path d="M911.67 195.83H620.04" stroke="#3a414a" fill="none"/><path d="M912.17 196.33h-.52v-1h.52z" stroke="#3a414a" stroke-width=".05" fill="#3a414a"/><path d="M614.15 195.83l12.9-7.63v15.27z" stroke="#3a414a" fill="#3a414a"/><g><use xlink:href="#n" transform="matrix(1,0,0,1,858.4089041666666,165.9652777777778) translate(0 20.62717013888889)"/></g><g><use xlink:href="#n" transform="matrix(1,0,0,1,612.7626502007149,161.3300228621536) translate(0 20.62717013888889)"/></g><g><use xlink:href="#o" transform="matrix(1,0,0,1,722.5299479166667,165.9652777777778) translate(0 20.62717013888889)"/></g><path d="M1062.67 31.83v-132a6 6 0 0 0-6-6h-588a6 6 0 0 1-6-6V-301.8" stroke="#3a414a" fill="none"/><path d="M1063.17 32.33h-1v-.5h1z" stroke="#3a414a" stroke-width=".05" fill="#3a414a"/><path d="M462.67-307.68l7.63 12.9h-15.27z" stroke="#3a414a" fill="#3a414a"/><g><use xlink:href="#p" transform="matrix(1,0,0,1,679.6413558768904,-136.03473675184247) translate(0 20.62717013888889)"/><use xlink:href="#q" transform="matrix(1,0,0,1,679.6413558768904,-136.03473675184247) translate(107.03125 20.62717013888889)"/><use xlink:href="#r" transform="matrix(1,0,0,1,679.6413558768904,-136.03473675184247) translate(147.16796875 20.62717013888889)"/></g><g><use xlink:href="#n" transform="matrix(1,0,0,1,1070.6666666666665,6.399355555555555) translate(0 20.62717013888889)"/></g><g><use xlink:href="#s" transform="matrix(1,0,0,1,475.3019215822909,-301.893644580809) translate(0 20.62717013888889)"/></g><defs><path d="M764 0H469v-1235H90v-258h1053v258H764V0" id="t"/><path d="M842-559c0-188-62-350-226-350-163 0-225 163-225 350s62 350 225 350c164 0 226-162 226-350zM616 29C289 29 98-219 98-559s191-588 518-588c328 0 519 248 519 588 0 341-191 588-519 588" id="u"/><path d="M1153-1120L797 0H436L80-1120h297l239 874 240-874h297" id="v"/><path d="M573-174c177-3 250-155 244-352H700c-189 5-288 22-294 186-4 100 66 168 167 166zm41-973c376 0 494 126 494 508V0H817v-125C754-35 643 28 498 29 250 32 90-110 94-354c5-293 200-382 520-383h203c15-144-66-195-203-193-171 2-284 44-409 111v-250c121-50 246-78 409-78zm138-491h282l-368 376H469" id="w"/><path d="M924-1147c90 1 165 23 227 57v279c-80-87-287-118-417-55-120 58-150 157-150 350V0H291v-1120h293v174c52-120 173-201 340-201" id="x"/><path d="M750-1147c234 0 322 167 321 420V0H780v-682c-2-141-23-227-147-227-123 0-170 126-170 268V0H172v-1120h291v168c37-116 138-195 287-195" id="y"/><path d="M573-174c177-3 250-155 244-352H700c-189 5-288 22-294 186-4 100 66 168 167 166zm41-973c376 0 494 126 494 508V0H817v-125C754-35 643 28 498 29 250 32 90-110 94-354c5-293 200-382 520-383h203c15-144-66-195-203-193-171 2-284 44-409 111v-250c121-50 246-78 409-78" id="z"/><g id="a"><use transform="matrix(0.010850694444444444,0,0,0.010850694444444444,0,0)" xlink:href="#t"/><use transform="matrix(0.010850694444444444,0,0,0.010850694444444444,13.37890625,0)" xlink:href="#u"/><use transform="matrix(0.010850694444444444,0,0,0.010850694444444444,26.7578125,0)" xlink:href="#v"/><use transform="matrix(0.010850694444444444,0,0,0.010850694444444444,40.13671875,0)" xlink:href="#w"/><use transform="matrix(0.010850694444444444,0,0,0.010850694444444444,53.515625,0)" xlink:href="#x"/><use transform="matrix(0.010850694444444444,0,0,0.010850694444444444,66.89453125,0)" xlink:href="#y"/><use transform="matrix(0.010850694444444444,0,0,0.010850694444444444,80.2734375,0)" xlink:href="#z"/></g><path d="M356-643h521v164H356v-164" id="A"/><use transform="matrix(0.010850694444444444,0,0,0.010850694444444444,0,0)" xlink:href="#A" id="b"/><path d="M256-1120h471v977h365V0H178v-143h365v-834H256v-143zm287-436h184v233H543v-233" id="B"/><path d="M559-1147c146 0 246 68 299 170v-579h184V0H858v-141C803-40 706 29 559 29c-300 0-436-264-436-592 0-325 139-584 436-584zM385-882c-81 129-87 521 0 646 49 70 112 109 201 109s152-39 202-110c89-127 83-514 0-645-88-139-315-140-403 0" id="C"/><g id="c"><use transform="matrix(0.010850694444444444,0,0,0.010850694444444444,0,0)" xlink:href="#B"/><use transform="matrix(0.010850694444444444,0,0,0.010850694444444444,13.37890625,0)" xlink:href="#C"/></g><path d="M582-215c134 3 229-61 229-188 0-171-173-202-301-252-148-58-249-117-302-179s-79-146-79-251c-2-279 200-439 487-435 159 1 291 39 410 93v288c-107-75-227-134-387-137-128-2-219 48-221 166 0 41 16 74 42 102 40 43 213 104 300 138 211 80 350 191 350 450 0 322-199 450-537 449-170-1-316-43-438-105v-305c132 92 257 161 447 166" id="D"/><path d="M778 0C477-5 387-150 387-467v-864H90v-225h590v1089c3 161 32 242 180 242h234V0H778" id="E"/><path d="M504-1147c146 0 225 81 287 186v-595h292V0H791v-166C735-52 649 29 494 29c-128 0-223-55-298-154-137-182-137-692 2-870 76-98 173-152 306-152zm-67 336c-66 112-66 396 0 508 70 119 228 118 299 0 67-112 67-396 0-508-71-118-229-119-299 0" id="F"/><path d="M174-1556h293v817l352-381h355L750-702 1198 0H874L567-524l-100 96V0H174v-1556" id="G"/><path d="M618-1147c139 1 264 24 373 62v256c-94-60-205-105-344-105-109 0-192 22-198 113-5 55 86 104 225 133 223 47 396 118 393 371-3 255-179 346-455 346-156-1-293-29-422-70v-256c110 62 239 113 392 113 113 0 209-23 209-117 0-37-14-64-37-86-24-24-177-63-260-82-196-44-322-122-322-336 0-236 191-344 446-342" id="H"/><path d="M827 0C501-7 397-66 397-379v-516H111v-225h286v-318h293v318h383v225H690v530c2 106 48 140 158 140h225V0H827" id="I"/><g id="d"><use transform="matrix(0.010850694444444444,0,0,0.010850694444444444,0,0)" xlink:href="#D"/><use transform="matrix(0.010850694444444444,0,0,0.010850694444444444,13.37890625,0)" xlink:href="#E"/><use transform="matrix(0.010850694444444444,0,0,0.010850694444444444,26.7578125,0)" xlink:href="#z"/><use transform="matrix(0.010850694444444444,0,0,0.010850694444444444,40.13671875,0)" xlink:href="#F"/><use transform="matrix(0.010850694444444444,0,0,0.010850694444444444,53.515625,0)" xlink:href="#G"/><use transform="matrix(0.010850694444444444,0,0,0.010850694444444444,66.89453125,0)" xlink:href="#u"/><use transform="matrix(0.010850694444444444,0,0,0.010850694444444444,80.2734375,0)" xlink:href="#H"/><use transform="matrix(0.010850694444444444,0,0,0.010850694444444444,93.65234375,0)" xlink:href="#I"/></g><path d="M356-643h521v164H356v-164" id="J"/><use transform="matrix(0.010850694444444444,0,0,0.010850694444444444,0,0)" xlink:href="#J" id="e"/><g id="f"><use transform="matrix(0.010850694444444444,0,0,0.010850694444444444,0,0)" xlink:href="#B"/><use transform="matrix(0.010850694444444444,0,0,0.010850694444444444,13.37890625,0)" xlink:href="#C"/></g><path d="M616-1223L477-612h279zm-180-270h361L1200 0H905l-92-369H418L328 0H33" id="K"/><path d="M483 29c-234 0-324-167-323-420v-729h293v684c3 141 22 225 147 225 124 0 168-124 168-266v-643h293V0H768v-166C731-50 631 29 483 29" id="L"/><path d="M498-1147c88-2 180 65 192 139 40-85 96-139 209-139 97 0 164 33 201 100s55 205 55 416V0H915v-719c0-83-8-138-19-167-21-56-118-55-139 1-11 29-20 84-20 166V0H500v-719c0-82-9-137-20-166-21-56-118-57-139-1-11 29-19 84-19 167V0H82v-1120h213v116c28-79 103-141 203-143" id="M"/><g id="g"><use transform="matrix(0.010850694444444444,0,0,0.010850694444444444,0,0)" xlink:href="#K"/><use transform="matrix(0.010850694444444444,0,0,0.010850694444444444,13.37890625,0)" xlink:href="#L"/><use transform="matrix(0.010850694444444444,0,0,0.010850694444444444,26.7578125,0)" xlink:href="#I"/><use transform="matrix(0.010850694444444444,0,0,0.010850694444444444,40.13671875,0)" xlink:href="#u"/><use transform="matrix(0.010850694444444444,0,0,0.010850694444444444,53.515625,0)" xlink:href="#M"/><use transform="matrix(0.010850694444444444,0,0,0.010850694444444444,66.89453125,0)" xlink:href="#z"/><use transform="matrix(0.010850694444444444,0,0,0.010850694444444444,80.2734375,0)" xlink:href="#I"/></g><g id="h"><use transform="matrix(0.010850694444444444,0,0,0.010850694444444444,0,0)" xlink:href="#B"/><use transform="matrix(0.010850694444444444,0,0,0.010850694444444444,13.37890625,0)" xlink:href="#C"/></g><path d="M711-1147c253 0 340 178 340 453V0H866v-694c-1-183-51-293-219-293-189 0-268 148-268 354V0H195v-1120h184v168c60-118 165-195 332-195" id="N"/><path d="M547-125c229-2 340-186 327-438H641c-189 0-321 55-324 225-3 137 91 215 230 213zm-332-944c167-71 431-115 615-37 106 45 186 120 213 246 11 49 16 123 16 221V0H874v-166C800-42 695 26 508 29c-220 3-378-138-375-355 4-274 199-382 494-381h247c6-204-80-285-282-284-149 1-272 46-377 106v-184zm541-569h198l-325 376H475" id="O"/><path d="M227-1122h813v168L397-150h643V0H203v-170l643-805H227v-147" id="P"/><path d="M651-1147c298 0 466 229 461 541v90H315c-4 242 129 392 365 389 156-2 268-51 389-113v183C949-8 828 27 678 29c-351 3-555-232-555-588 0-338 200-588 528-588zm277 487c-4-201-91-331-285-331-193 0-305 144-321 332" id="Q"/><path d="M100-1120h191l325 940 326-940h191L735 0H498" id="R"/><g id="i"><use transform="matrix(0.010850694444444444,0,0,0.010850694444444444,0,0)" xlink:href="#N"/><use transform="matrix(0.010850694444444444,0,0,0.010850694444444444,13.37890625,0)" xlink:href="#O"/><use transform="matrix(0.010850694444444444,0,0,0.010850694444444444,26.7578125,0)" xlink:href="#P"/><use transform="matrix(0.010850694444444444,0,0,0.010850694444444444,40.13671875,0)" xlink:href="#Q"/><use transform="matrix(0.010850694444444444,0,0,0.010850694444444444,53.515625,0)" xlink:href="#R"/></g><path d="M236-1556h190v901l483-465h224L692-698 1202 0H977L563-578 426-449V0H236v-1556" id="S"/><path d="M547-125c229-2 340-186 327-438H641c-189 0-321 55-324 225-3 137 91 215 230 213zm-332-944c167-71 431-115 615-37 106 45 186 120 213 246 11 49 16 123 16 221V0H874v-166C800-42 695 26 508 29c-220 3-378-138-375-355 4-274 199-382 494-381h247c6-204-80-285-282-284-149 1-272 46-377 106v-184" id="T"/><path d="M674 29c-147 0-246-68-299-170v567H190v-1546h185v143c55-101 152-170 299-170 300 0 434 263 434 592 0 325-137 584-434 584zm174-265c87-125 87-521 0-646-48-70-112-109-201-109s-154 38-203 109c-89 127-89 518 0 645 49 71 114 110 203 110s153-39 201-109" id="U"/><path d="M748-127c144 0 233-46 313-121v191C974-6 875 28 748 29c-351 3-553-232-553-588 0-357 202-591 553-588 129 2 222 35 313 86v193c-88-76-165-123-313-123-245 0-359 174-359 432 0 257 115 432 359 432" id="V"/><path d="M807 0C529-4 430-92 430-369v-608H131v-143h299v-318h184v318h418v143H614v608c2 165 49 222 211 222h207V0H807" id="W"/><g id="j"><use transform="matrix(0.010850694444444444,0,0,0.010850694444444444,0,0)" xlink:href="#S"/><use transform="matrix(0.010850694444444444,0,0,0.010850694444444444,13.37890625,0)" xlink:href="#T"/><use transform="matrix(0.010850694444444444,0,0,0.010850694444444444,26.7578125,0)" xlink:href="#U"/><use transform="matrix(0.010850694444444444,0,0,0.010850694444444444,40.13671875,0)" xlink:href="#T"/><use transform="matrix(0.010850694444444444,0,0,0.010850694444444444,53.515625,0)" xlink:href="#V"/><use transform="matrix(0.010850694444444444,0,0,0.010850694444444444,66.89453125,0)" xlink:href="#B"/><use transform="matrix(0.010850694444444444,0,0,0.010850694444444444,80.2734375,0)" xlink:href="#W"/><use transform="matrix(0.010850694444444444,0,0,0.010850694444444444,93.65234375,0)" xlink:href="#T"/></g><path d="M637-1147c132 1 237 25 336 66v180c-92-53-190-92-322-92-145 0-248 35-248 164 0 50 15 87 46 112 23 30 197 67 303 86 166 30 278 123 278 307 0 239-191 356-446 353-140-2-251-31-371-70v-190c114 58 228 103 375 106 145 3 253-56 256-188 3-87-90-149-253-179-210-38-374-93-374-319 0-232 173-338 420-336zm-94-115l-246-376h139l180 245 181-245h139l-246 376H543" id="X"/><path d="M256-1120h471v977h365V0H178v-143h365v-834H256v-143zm500-518h198l-325 376H475" id="Y"/><path d="M915-1147c102 0 174 26 240 70v188c-71-55-140-88-254-88-243 0-354 165-354 420V0H362v-1120h185v219c55-146 178-246 368-246zm-282-115l-246-376h139l180 245 181-245h139l-246 376H633" id="Z"/><g id="k"><use transform="matrix(0.010850694444444444,0,0,0.010850694444444444,0,0)" xlink:href="#X"/><use transform="matrix(0.010850694444444444,0,0,0.010850694444444444,13.37890625,0)" xlink:href="#Y"/><use transform="matrix(0.010850694444444444,0,0,0.010850694444444444,26.7578125,0)" xlink:href="#Z"/><use transform="matrix(0.010850694444444444,0,0,0.010850694444444444,40.13671875,0)" xlink:href="#S"/><use transform="matrix(0.010850694444444444,0,0,0.010850694444444444,53.515625,0)" xlink:href="#T"/></g><path d="M651-1147c298 0 466 229 461 541v90H315c-4 242 129 392 365 389 156-2 268-51 389-113v183C949-8 828 27 678 29c-351 3-555-232-555-588 0-338 200-588 528-588zm277 487c-4-201-91-331-285-331-193 0-305 144-321 332zm-158-978h198l-325 376H489" id="aa"/><path d="M801 0C570 0 455-164 455-406v-1017H160v-144h479v1161c0 147 46 250 180 250h215V0H801" id="ab"/><g id="l"><use transform="matrix(0.010850694444444444,0,0,0.010850694444444444,0,0)" xlink:href="#C"/><use transform="matrix(0.010850694444444444,0,0,0.010850694444444444,13.37890625,0)" xlink:href="#aa"/><use transform="matrix(0.010850694444444444,0,0,0.010850694444444444,26.7578125,0)" xlink:href="#ab"/><use transform="matrix(0.010850694444444444,0,0,0.010850694444444444,40.13671875,0)" xlink:href="#S"/><use transform="matrix(0.010850694444444444,0,0,0.010850694444444444,53.515625,0)" xlink:href="#T"/></g><path d="M1153-1120C1010-750 884-433 741-52c-66 176-110 283-133 322-55 94-138 156-276 156H184V272c97 0 188 7 236-47 29-33 70-112 117-243L104-1120h195l332 876 327-876h195zm-397-518h198l-325 376H475" id="ac"/><g id="m"><use transform="matrix(0.010850694444444444,0,0,0.010850694444444444,0,0)" xlink:href="#R"/><use transform="matrix(0.010850694444444444,0,0,0.010850694444444444,13.37890625,0)" xlink:href="#ac"/><use transform="matrix(0.010850694444444444,0,0,0.010850694444444444,26.7578125,0)" xlink:href="#X"/><use transform="matrix(0.010850694444444444,0,0,0.010850694444444444,40.13671875,0)" xlink:href="#S"/><use transform="matrix(0.010850694444444444,0,0,0.010850694444444444,53.515625,0)" xlink:href="#T"/></g><path d="M614-616c-74 0-131-59-131-134 0-70 61-135 131-135 72 0 136 64 136 135 0 73-63 134-136 134zm2-744c-94 0-159 53-210 152-88 171-88 754 0 925 51 99 116 152 210 152 95 0 161-53 212-152 88-172 88-754 0-925-51-99-117-152-212-152zm0-160c159 0 280 65 362 196s122 324 122 579-40 447-122 578S775 29 616 29 336-36 255-167 133-490 133-745s41-448 122-579 202-196 361-196" id="ad"/><path d="M489-305h252V0H489v-305" id="ae"/><path d="M1067-1247l-358 194 358 195-57 98-336-203v377H559v-377L223-760l-57-98 358-195-358-194 57-99 336 203v-377h115v377l336-203" id="af"/><g id="n"><use transform="matrix(0.010850694444444444,0,0,0.010850694444444444,0,0)" xlink:href="#ad"/><use transform="matrix(0.010850694444444444,0,0,0.010850694444444444,13.37890625,0)" xlink:href="#ae"/><use transform="matrix(0.010850694444444444,0,0,0.010850694444444444,26.7578125,0)" xlink:href="#ae"/><use transform="matrix(0.010850694444444444,0,0,0.010850694444444444,40.13671875,0)" xlink:href="#af"/></g><path fill="#333" d="M750-1147c234 0 322 167 321 420V0H780v-682c-2-141-23-227-147-227-123 0-170 126-170 268V0H172v-1120h291v168c37-116 138-195 287-195" id="ag"/><path fill="#333" d="M573-174c177-3 250-155 244-352H700c-189 5-288 22-294 186-4 100 66 168 167 166zm41-973c376 0 494 126 494 508V0H817v-125C754-35 643 28 498 29 250 32 90-110 94-354c5-293 200-382 520-383h203c15-144-66-195-203-193-171 2-284 44-409 111v-250c121-50 246-78 409-78" id="ah"/><path fill="#333" d="M796-303c66-112 66-396 0-508-70-119-228-118-299 0-67 112-67 396 0 508 71 118 229 119 299 0zM739 29c-154 0-243-80-297-195V0H150v-1556h292v595c62-105 141-186 287-186 133 0 231 54 307 152 139 179 138 689 1 870C962-26 867 29 739 29" id="ai"/><path fill="#333" d="M221-1120h580v895h364V0H143v-225h365v-670H221v-225zm531-518h282l-368 376H469" id="aj"/><path fill="#333" d="M186-1120h895v229L492-219h589V0H162v-229l590-672H186v-219" id="ak"/><g id="o"><use transform="matrix(0.010850694444444444,0,0,0.010850694444444444,0,0)" xlink:href="#ag"/><use transform="matrix(0.010850694444444444,0,0,0.010850694444444444,13.37890625,0)" xlink:href="#ah"/><use transform="matrix(0.010850694444444444,0,0,0.010850694444444444,26.7578125,0)" xlink:href="#ai"/><use transform="matrix(0.010850694444444444,0,0,0.010850694444444444,40.13671875,0)" xlink:href="#aj"/><use transform="matrix(0.010850694444444444,0,0,0.010850694444444444,53.515625,0)" xlink:href="#ak"/><use transform="matrix(0.010850694444444444,0,0,0.010850694444444444,66.89453125,0)" xlink:href="#aj"/></g><path fill="#333" d="M762-211c132 0 221-47 299-115v269C968-3 859 29 719 29c-350 3-551-232-551-588 0-357 203-592 553-590 139 1 241 34 340 86v268c-75-64-172-114-299-114-201 0-297 140-297 350s96 348 297 348" id="al"/><path fill="#333" d="M750-1147c234 0 322 167 321 420V0H780v-682c-2-141-24-225-147-225-124 0-170 124-170 266V0H172v-1556h291v604c37-116 138-195 287-195" id="am"/><path fill="#333" d="M573-174c177-3 250-155 244-352H700c-189 5-288 22-294 186-4 100 66 168 167 166zm41-973c376 0 494 126 494 508V0H817v-125C754-35 643 28 498 29 250 32 90-110 94-354c5-293 200-382 520-383h203c15-144-66-195-203-193-171 2-284 44-409 111v-250c121-50 246-78 409-78zm138-491h282l-368 376H469" id="an"/><g id="p"><use transform="matrix(0.010850694444444444,0,0,0.010850694444444444,0,0)" xlink:href="#ag"/><use transform="matrix(0.010850694444444444,0,0,0.010850694444444444,13.37890625,0)" xlink:href="#ah"/><use transform="matrix(0.010850694444444444,0,0,0.010850694444444444,26.7578125,0)" xlink:href="#al"/><use transform="matrix(0.010850694444444444,0,0,0.010850694444444444,40.13671875,0)" xlink:href="#am"/><use transform="matrix(0.010850694444444444,0,0,0.010850694444444444,53.515625,0)" xlink:href="#an"/><use transform="matrix(0.010850694444444444,0,0,0.010850694444444444,66.89453125,0)" xlink:href="#ak"/><use transform="matrix(0.010850694444444444,0,0,0.010850694444444444,80.2734375,0)" xlink:href="#aj"/></g><path fill="#333" d="M618-1147c139 1 264 24 373 62v256c-94-60-205-105-344-105-109 0-192 22-198 113-5 55 86 104 225 133 223 47 396 118 393 371-3 255-179 346-455 346-156-1-293-29-422-70v-256c110 62 239 113 392 113 113 0 209-23 209-117 0-37-14-64-37-86-24-24-177-63-260-82-196-44-322-122-322-336 0-236 191-344 446-342" id="ao"/><path fill="#333" d="M698-203c169-2 281-50 404-121v269C974-3 842 28 670 29 296 31 92-181 92-555c0-348 195-592 533-592s528 218 524 563v119H390c3 185 114 264 308 262zm156-482c-2-151-77-235-229-235-144 1-220 97-232 236" id="ap"/><g id="q"><use transform="matrix(0.010850694444444444,0,0,0.010850694444444444,0,0)" xlink:href="#ao"/><use transform="matrix(0.010850694444444444,0,0,0.010850694444444444,13.37890625,0)" xlink:href="#ap"/></g><path fill="#333" d="M1153-1120L797 0H436L80-1120h297l239 874 240-874h297" id="aq"/><use transform="matrix(0.010850694444444444,0,0,0.010850694444444444,0,0)" xlink:href="#aq" id="r"/><path d="M270-170h314v-1141l-338 76v-184l336-74h202v1323h310V0H270v-170" id="ar"/><g id="s"><use transform="matrix(0.010850694444444444,0,0,0.010850694444444444,0,0)" xlink:href="#ad"/><use transform="matrix(0.010850694444444444,0,0,0.010850694444444444,13.37890625,0)" xlink:href="#ae"/><use transform="matrix(0.010850694444444444,0,0,0.010850694444444444,26.7578125,0)" xlink:href="#ae"/><use transform="matrix(0.010850694444444444,0,0,0.010850694444444444,40.13671875,0)" xlink:href="#ar"/></g></defs></g></svg>