<svg xmlns="http://www.w3.org/2000/svg" xmlns:xlink="http://www.w3.org/1999/xlink" xmlns:lucid="lucid" width="341" height="886"><g transform="translate(-104.16666666666663 -89.33333333333337)" lucid:page-tab-id="0_0"><path d="M0 0h500v1000H0z" fill="#fff"/><path d="M124.67 115.83a6 6 0 0 1 6-6h288a6 6 0 0 1 6 6v314a6 6 0 0 1-6 6h-288a6 6 0 0 1-6-6z" stroke="#3a414a" fill="#fff"/><path d="M124.67 151.7h300" stroke="#3a414a" fill="none"/><use xlink:href="#a" transform="matrix(1,0,0,1,132.66666666666663,117.83333333333337) translate(88.484375 20.69314236111111)"/><use xlink:href="#b" transform="matrix(1,0,0,1,136.66666666666663,159.7013888888889) translate(4.421657986111111 77.52300347222223)"/><use xlink:href="#c" transform="matrix(1,0,0,1,136.66666666666663,159.7013888888889) translate(22.22222222222222 77.52300347222223)"/><use xlink:href="#b" transform="matrix(1,0,0,1,136.66666666666663,159.7013888888889) translate(4.421657986111111 103.39105902777779)"/><use xlink:href="#d" transform="matrix(1,0,0,1,136.66666666666663,159.7013888888889) translate(22.22222222222222 103.39105902777779)"/><use xlink:href="#b" transform="matrix(1,0,0,1,136.66666666666663,159.7013888888889) translate(4.421657986111111 129.25911458333334)"/><use xlink:href="#e" transform="matrix(1,0,0,1,136.66666666666663,159.7013888888889) translate(22.22222222222222 129.25911458333334)"/><use xlink:href="#b" transform="matrix(1,0,0,1,136.66666666666663,159.7013888888889) translate(4.421657986111111 155.12717013888889)"/><use xlink:href="#f" transform="matrix(1,0,0,1,136.66666666666663,159.7013888888889) translate(22.22222222222222 155.12717013888889)"/><use xlink:href="#b" transform="matrix(1,0,0,1,136.66666666666663,159.7013888888889) translate(4.421657986111111 180.99522569444446)"/><use xlink:href="#g" transform="matrix(1,0,0,1,136.66666666666663,159.7013888888889) translate(22.22222222222222 180.99522569444446)"/><use xlink:href="#b" transform="matrix(1,0,0,1,136.66666666666663,159.7013888888889) translate(4.421657986111111 206.86328125)"/><use xlink:href="#h" transform="matrix(1,0,0,1,136.66666666666663,159.7013888888889) translate(22.22222222222222 206.86328125)"/><path d="M124.67 715.83a6 6 0 0 1 6-6h288a6 6 0 0 1 6 6v233a6 6 0 0 1-6 6h-288a6 6 0 0 1-6-6z" stroke="#3a414a" fill="#fff"/><path d="M124.67 751.7h300" stroke="#3a414a" fill="none"/><g><use xlink:href="#i" transform="matrix(1,0,0,1,132.66666666666663,717.8333333333334) translate(88.484375 20.69314236111111)"/></g><g><use xlink:href="#b" transform="matrix(1,0,0,1,136.66666666666663,759.7013888888889) translate(4.421657986111111 101.19314236111111)"/><use xlink:href="#j" transform="matrix(1,0,0,1,136.66666666666663,759.7013888888889) translate(22.22222222222222 101.19314236111111)"/></g><path d="M274.67 436.83v265.63" stroke="#3a414a" fill="none"/><path d="M275.17 436.85h-1v-.52h1z" stroke="#3a414a" stroke-width=".05" fill="#3a414a"/><path d="M274.67 708.35l-7.64-12.9h15.27z" stroke="#3a414a" fill="#3a414a"/><g><use xlink:href="#k" transform="matrix(1,0,0,1,282.66666666666663,437.0532737027092) translate(0 20.62717013888889)"/></g><g><use xlink:href="#l" transform="matrix(1,0,0,1,287.30192158229084,683.3993555555553) translate(0 20.62717013888889)"/></g><g><use xlink:href="#m" transform="matrix(1,0,0,1,282.66666666666663,559.8993055555555) translate(0 20.62717013888889)"/></g><defs><path d="M582-215c134 3 229-61 229-188 0-171-173-202-301-252-148-58-249-117-302-179s-79-146-79-251c-2-279 200-439 487-435 159 1 291 39 410 93v288c-107-75-227-134-387-137-128-2-219 48-221 166 0 41 16 74 42 102 40 43 213 104 300 138 211 80 350 191 350 450 0 322-199 450-537 449-170-1-316-43-438-105v-305c132 92 257 161 447 166" id="n"/><path d="M778 0C477-5 387-150 387-467v-864H90v-225h590v1089c3 161 32 242 180 242h234V0H778" id="o"/><path d="M573-174c177-3 250-155 244-352H700c-189 5-288 22-294 186-4 100 66 168 167 166zm41-973c376 0 494 126 494 508V0H817v-125C754-35 643 28 498 29 250 32 90-110 94-354c5-293 200-382 520-383h203c15-144-66-195-203-193-171 2-284 44-409 111v-250c121-50 246-78 409-78" id="p"/><path d="M504-1147c146 0 225 81 287 186v-595h292V0H791v-166C735-52 649 29 494 29c-128 0-223-55-298-154-137-182-137-692 2-870 76-98 173-152 306-152zm-67 336c-66 112-66 396 0 508 70 119 228 118 299 0 67-112 67-396 0-508-71-118-229-119-299 0" id="q"/><path d="M174-1556h293v817l352-381h355L750-702 1198 0H874L567-524l-100 96V0H174v-1556" id="r"/><path d="M842-559c0-188-62-350-226-350-163 0-225 163-225 350s62 350 225 350c164 0 226-162 226-350zM616 29C289 29 98-219 98-559s191-588 518-588c328 0 519 248 519 588 0 341-191 588-519 588" id="s"/><path d="M618-1147c139 1 264 24 373 62v256c-94-60-205-105-344-105-109 0-192 22-198 113-5 55 86 104 225 133 223 47 396 118 393 371-3 255-179 346-455 346-156-1-293-29-422-70v-256c110 62 239 113 392 113 113 0 209-23 209-117 0-37-14-64-37-86-24-24-177-63-260-82-196-44-322-122-322-336 0-236 191-344 446-342" id="t"/><path d="M827 0C501-7 397-66 397-379v-516H111v-225h286v-318h293v318h383v225H690v530c2 106 48 140 158 140h225V0H827" id="u"/><g id="a"><use transform="matrix(0.010850694444444444,0,0,0.010850694444444444,0,0)" xlink:href="#n"/><use transform="matrix(0.010850694444444444,0,0,0.010850694444444444,13.37890625,0)" xlink:href="#o"/><use transform="matrix(0.010850694444444444,0,0,0.010850694444444444,26.7578125,0)" xlink:href="#p"/><use transform="matrix(0.010850694444444444,0,0,0.010850694444444444,40.13671875,0)" xlink:href="#q"/><use transform="matrix(0.010850694444444444,0,0,0.010850694444444444,53.515625,0)" xlink:href="#r"/><use transform="matrix(0.010850694444444444,0,0,0.010850694444444444,66.89453125,0)" xlink:href="#s"/><use transform="matrix(0.010850694444444444,0,0,0.010850694444444444,80.2734375,0)" xlink:href="#t"/><use transform="matrix(0.010850694444444444,0,0,0.010850694444444444,93.65234375,0)" xlink:href="#u"/></g><path d="M356-643h521v164H356v-164" id="v"/><use transform="matrix(0.010850694444444444,0,0,0.010850694444444444,0,0)" xlink:href="#v" id="b"/><path d="M256-1120h471v977h365V0H178v-143h365v-834H256v-143zm287-436h184v233H543v-233" id="w"/><path d="M559-1147c146 0 246 68 299 170v-579h184V0H858v-141C803-40 706 29 559 29c-300 0-436-264-436-592 0-325 139-584 436-584zM385-882c-81 129-87 521 0 646 49 70 112 109 201 109s152-39 202-110c89-127 83-514 0-645-88-139-315-140-403 0" id="x"/><g id="c"><use transform="matrix(0.010850694444444444,0,0,0.010850694444444444,0,0)" xlink:href="#w"/><use transform="matrix(0.010850694444444444,0,0,0.010850694444444444,13.37890625,0)" xlink:href="#x"/></g><path d="M711-1147c253 0 340 178 340 453V0H866v-694c-1-183-51-293-219-293-189 0-268 148-268 354V0H195v-1120h184v168c60-118 165-195 332-195" id="y"/><path d="M547-125c229-2 340-186 327-438H641c-189 0-321 55-324 225-3 137 91 215 230 213zm-332-944c167-71 431-115 615-37 106 45 186 120 213 246 11 49 16 123 16 221V0H874v-166C800-42 695 26 508 29c-220 3-378-138-375-355 4-274 199-382 494-381h247c6-204-80-285-282-284-149 1-272 46-377 106v-184zm541-569h198l-325 376H475" id="z"/><path d="M227-1122h813v168L397-150h643V0H203v-170l643-805H227v-147" id="A"/><path d="M651-1147c298 0 466 229 461 541v90H315c-4 242 129 392 365 389 156-2 268-51 389-113v183C949-8 828 27 678 29c-351 3-555-232-555-588 0-338 200-588 528-588zm277 487c-4-201-91-331-285-331-193 0-305 144-321 332" id="B"/><path d="M100-1120h191l325 940 326-940h191L735 0H498" id="C"/><g id="d"><use transform="matrix(0.010850694444444444,0,0,0.010850694444444444,0,0)" xlink:href="#y"/><use transform="matrix(0.010850694444444444,0,0,0.010850694444444444,13.37890625,0)" xlink:href="#z"/><use transform="matrix(0.010850694444444444,0,0,0.010850694444444444,26.7578125,0)" xlink:href="#A"/><use transform="matrix(0.010850694444444444,0,0,0.010850694444444444,40.13671875,0)" xlink:href="#B"/><use transform="matrix(0.010850694444444444,0,0,0.010850694444444444,53.515625,0)" xlink:href="#C"/></g><path d="M711-1147c253 0 340 178 340 453V0H866v-694c-1-183-51-293-219-293-189 0-268 148-268 354V0H195v-1556h184v604c60-118 165-195 332-195" id="D"/><path d="M471-1147c112 0 171 55 205 141 41-85 99-141 213-141 90 0 154 35 191 105s55 200 55 393V0H967v-641c0-158-12-256-27-295-31-81-176-72-206 4-17 42-29 138-29 291V0H537v-641c0-160-10-259-29-296s-53-56-102-56-83 20-102 61-28 138-28 291V0H109v-1120h167v96c38-70 97-123 195-123" id="E"/><path d="M616-991c-93 0-161 39-212 109-92 126-92 520 0 646 52 70 119 109 212 109 94 0 161-39 213-109 93-126 92-520 0-646-52-70-119-109-213-109zM137-559c0-353 146-588 479-588s480 235 480 588c0 355-145 588-480 588-334 0-479-234-479-588" id="F"/><path d="M807 0C529-4 430-92 430-369v-608H131v-143h299v-318h184v318h418v143H614v608c2 165 49 222 211 222h207V0H807" id="G"/><path d="M637-1147c132 1 237 25 336 66v180c-92-53-190-92-322-92-145 0-248 35-248 164 0 50 15 87 46 112 23 30 197 67 303 86 166 30 278 123 278 307 0 239-191 356-446 353-140-2-251-31-371-70v-190c114 58 228 103 375 106 145 3 253-56 256-188 3-87-90-149-253-179-210-38-374-93-374-319 0-232 173-338 420-336" id="H"/><g id="e"><use transform="matrix(0.010850694444444444,0,0,0.010850694444444444,0,0)" xlink:href="#D"/><use transform="matrix(0.010850694444444444,0,0,0.010850694444444444,13.37890625,0)" xlink:href="#E"/><use transform="matrix(0.010850694444444444,0,0,0.010850694444444444,26.7578125,0)" xlink:href="#F"/><use transform="matrix(0.010850694444444444,0,0,0.010850694444444444,40.13671875,0)" xlink:href="#G"/><use transform="matrix(0.010850694444444444,0,0,0.010850694444444444,53.515625,0)" xlink:href="#y"/><use transform="matrix(0.010850694444444444,0,0,0.010850694444444444,66.89453125,0)" xlink:href="#F"/><use transform="matrix(0.010850694444444444,0,0,0.010850694444444444,80.2734375,0)" xlink:href="#H"/><use transform="matrix(0.010850694444444444,0,0,0.010850694444444444,93.65234375,0)" xlink:href="#G"/></g><path d="M637-1147c132 1 237 25 336 66v180c-92-53-190-92-322-92-145 0-248 35-248 164 0 50 15 87 46 112 23 30 197 67 303 86 166 30 278 123 278 307 0 239-191 356-446 353-140-2-251-31-371-70v-190c114 58 228 103 375 106 145 3 253-56 256-188 3-87-90-149-253-179-210-38-374-93-374-319 0-232 173-338 420-336zm-94-115l-246-376h139l180 245 181-245h139l-246 376H543" id="I"/><path d="M256-1120h471v977h365V0H178v-143h365v-834H256v-143zm500-518h198l-325 376H475" id="J"/><path d="M915-1147c102 0 174 26 240 70v188c-71-55-140-88-254-88-243 0-354 165-354 420V0H362v-1120h185v219c55-146 178-246 368-246zm-282-115l-246-376h139l180 245 181-245h139l-246 376H633" id="K"/><path d="M236-1556h190v901l483-465h224L692-698 1202 0H977L563-578 426-449V0H236v-1556" id="L"/><path d="M547-125c229-2 340-186 327-438H641c-189 0-321 55-324 225-3 137 91 215 230 213zm-332-944c167-71 431-115 615-37 106 45 186 120 213 246 11 49 16 123 16 221V0H874v-166C800-42 695 26 508 29c-220 3-378-138-375-355 4-274 199-382 494-381h247c6-204-80-285-282-284-149 1-272 46-377 106v-184" id="M"/><g id="f"><use transform="matrix(0.010850694444444444,0,0,0.010850694444444444,0,0)" xlink:href="#I"/><use transform="matrix(0.010850694444444444,0,0,0.010850694444444444,13.37890625,0)" xlink:href="#J"/><use transform="matrix(0.010850694444444444,0,0,0.010850694444444444,26.7578125,0)" xlink:href="#K"/><use transform="matrix(0.010850694444444444,0,0,0.010850694444444444,40.13671875,0)" xlink:href="#L"/><use transform="matrix(0.010850694444444444,0,0,0.010850694444444444,53.515625,0)" xlink:href="#M"/></g><path d="M651-1147c298 0 466 229 461 541v90H315c-4 242 129 392 365 389 156-2 268-51 389-113v183C949-8 828 27 678 29c-351 3-555-232-555-588 0-338 200-588 528-588zm277 487c-4-201-91-331-285-331-193 0-305 144-321 332zm-158-978h198l-325 376H489" id="N"/><path d="M801 0C570 0 455-164 455-406v-1017H160v-144h479v1161c0 147 46 250 180 250h215V0H801" id="O"/><g id="g"><use transform="matrix(0.010850694444444444,0,0,0.010850694444444444,0,0)" xlink:href="#x"/><use transform="matrix(0.010850694444444444,0,0,0.010850694444444444,13.37890625,0)" xlink:href="#N"/><use transform="matrix(0.010850694444444444,0,0,0.010850694444444444,26.7578125,0)" xlink:href="#O"/><use transform="matrix(0.010850694444444444,0,0,0.010850694444444444,40.13671875,0)" xlink:href="#L"/><use transform="matrix(0.010850694444444444,0,0,0.010850694444444444,53.515625,0)" xlink:href="#M"/></g><path d="M1153-1120C1010-750 884-433 741-52c-66 176-110 283-133 322-55 94-138 156-276 156H184V272c97 0 188 7 236-47 29-33 70-112 117-243L104-1120h195l332 876 327-876h195zm-397-518h198l-325 376H475" id="P"/><g id="h"><use transform="matrix(0.010850694444444444,0,0,0.010850694444444444,0,0)" xlink:href="#C"/><use transform="matrix(0.010850694444444444,0,0,0.010850694444444444,13.37890625,0)" xlink:href="#P"/><use transform="matrix(0.010850694444444444,0,0,0.010850694444444444,26.7578125,0)" xlink:href="#I"/><use transform="matrix(0.010850694444444444,0,0,0.010850694444444444,40.13671875,0)" xlink:href="#L"/><use transform="matrix(0.010850694444444444,0,0,0.010850694444444444,53.515625,0)" xlink:href="#M"/></g><path d="M483 29c-234 0-324-167-323-420v-729h293v684c3 141 22 225 147 225 124 0 168-124 168-266v-643h293V0H768v-166C731-50 631 29 483 29" id="Q"/><path d="M924-1147c90 1 165 23 227 57v279c-80-87-287-118-417-55-120 58-150 157-150 350V0H291v-1120h293v174c52-120 173-201 340-201" id="R"/><path d="M1153-1120L797 0H436L80-1120h297l239 874 240-874h297" id="S"/><path d="M221-1120h580v895h364V0H143v-225h365v-670H221v-225zm287-545h293v342H508v-342" id="T"/><path d="M750-1147c234 0 322 167 321 420V0H780v-682c-2-141-23-227-147-227-123 0-170 126-170 268V0H172v-1120h291v168c37-116 138-195 287-195" id="U"/><g id="i"><use transform="matrix(0.010850694444444444,0,0,0.010850694444444444,0,0)" xlink:href="#n"/><use transform="matrix(0.010850694444444444,0,0,0.010850694444444444,13.37890625,0)" xlink:href="#Q"/><use transform="matrix(0.010850694444444444,0,0,0.010850694444444444,26.7578125,0)" xlink:href="#R"/><use transform="matrix(0.010850694444444444,0,0,0.010850694444444444,40.13671875,0)" xlink:href="#s"/><use transform="matrix(0.010850694444444444,0,0,0.010850694444444444,53.515625,0)" xlink:href="#S"/><use transform="matrix(0.010850694444444444,0,0,0.010850694444444444,66.89453125,0)" xlink:href="#T"/><use transform="matrix(0.010850694444444444,0,0,0.010850694444444444,80.2734375,0)" xlink:href="#U"/><use transform="matrix(0.010850694444444444,0,0,0.010850694444444444,93.65234375,0)" xlink:href="#p"/></g><g id="j"><use transform="matrix(0.010850694444444444,0,0,0.010850694444444444,0,0)" xlink:href="#w"/><use transform="matrix(0.010850694444444444,0,0,0.010850694444444444,13.37890625,0)" xlink:href="#x"/></g><path d="M614-616c-74 0-131-59-131-134 0-70 61-135 131-135 72 0 136 64 136 135 0 73-63 134-136 134zm2-744c-94 0-159 53-210 152-88 171-88 754 0 925 51 99 116 152 210 152 95 0 161-53 212-152 88-172 88-754 0-925-51-99-117-152-212-152zm0-160c159 0 280 65 362 196s122 324 122 579-40 447-122 578S775 29 616 29 336-36 255-167 133-490 133-745s41-448 122-579 202-196 361-196" id="V"/><path d="M489-305h252V0H489v-305" id="W"/><path d="M1067-1247l-358 194 358 195-57 98-336-203v377H559v-377L223-760l-57-98 358-195-358-194 57-99 336 203v-377h115v377l336-203" id="X"/><g id="k"><use transform="matrix(0.010850694444444444,0,0,0.010850694444444444,0,0)" xlink:href="#V"/><use transform="matrix(0.010850694444444444,0,0,0.010850694444444444,13.37890625,0)" xlink:href="#W"/><use transform="matrix(0.010850694444444444,0,0,0.010850694444444444,26.7578125,0)" xlink:href="#W"/><use transform="matrix(0.010850694444444444,0,0,0.010850694444444444,40.13671875,0)" xlink:href="#X"/></g><path d="M270-170h314v-1141l-338 76v-184l336-74h202v1323h310V0H270v-170" id="Y"/><g id="l"><use transform="matrix(0.010850694444444444,0,0,0.010850694444444444,0,0)" xlink:href="#Y"/><use transform="matrix(0.010850694444444444,0,0,0.010850694444444444,13.37890625,0)" xlink:href="#W"/><use transform="matrix(0.010850694444444444,0,0,0.010850694444444444,26.7578125,0)" xlink:href="#W"/><use transform="matrix(0.010850694444444444,0,0,0.010850694444444444,40.13671875,0)" xlink:href="#X"/></g><path fill="#333" d="M842-559c0-188-62-350-226-350-163 0-225 163-225 350s62 350 225 350c164 0 226-162 226-350zM616 29C289 29 98-219 98-559s191-588 518-588c328 0 519 248 519 588 0 341-191 588-519 588" id="Z"/><path fill="#333" d="M796-303c66-112 66-396 0-508-70-119-228-118-299 0-67 112-67 396 0 508 71 118 229 119 299 0zM739 29c-154 0-243-80-297-195V0H150v-1556h292v595c62-105 141-186 287-186 133 0 231 54 307 152 139 179 138 689 1 870C962-26 867 29 739 29" id="aa"/><path fill="#333" d="M618-1147c139 1 264 24 373 62v256c-94-60-205-105-344-105-109 0-192 22-198 113-5 55 86 104 225 133 223 47 396 118 393 371-3 255-179 346-455 346-156-1-293-29-422-70v-256c110 62 239 113 392 113 113 0 209-23 209-117 0-37-14-64-37-86-24-24-177-63-260-82-196-44-322-122-322-336 0-236 191-344 446-342" id="ab"/><path fill="#333" d="M573-174c177-3 250-155 244-352H700c-189 5-288 22-294 186-4 100 66 168 167 166zm41-973c376 0 494 126 494 508V0H817v-125C754-35 643 28 498 29 250 32 90-110 94-354c5-293 200-382 520-383h203c15-144-66-195-203-193-171 2-284 44-409 111v-250c121-50 246-78 409-78" id="ac"/><path fill="#333" d="M750-1147c234 0 322 167 321 420V0H780v-682c-2-141-24-225-147-225-124 0-170 124-170 266V0H172v-1556h291v604c37-116 138-195 287-195" id="ad"/><path fill="#333" d="M483 29c-234 0-324-167-323-420v-729h293v684c3 141 22 225 147 225 124 0 168-124 168-266v-643h293V0H768v-166C731-50 631 29 483 29" id="ae"/><path fill="#333" d="M377 199c148-4 180-81 180-242v-852H260v-225h590V-43c-3 319-88 467-391 467H143V199h234zm473-1522H557v-342h293v342" id="af"/><path fill="#333" d="M698-203c169-2 281-50 404-121v269C974-3 842 28 670 29 296 31 92-181 92-555c0-348 195-592 533-592s528 218 524 563v119H390c3 185 114 264 308 262zm156-482c-2-151-77-235-229-235-144 1-220 97-232 236" id="ag"/><g id="m"><use transform="matrix(0.010850694444444444,0,0,0.010850694444444444,0,0)" xlink:href="#Z"/><use transform="matrix(0.010850694444444444,0,0,0.010850694444444444,13.37890625,0)" xlink:href="#aa"/><use transform="matrix(0.010850694444444444,0,0,0.010850694444444444,26.7578125,0)" xlink:href="#ab"/><use transform="matrix(0.010850694444444444,0,0,0.010850694444444444,40.13671875,0)" xlink:href="#ac"/><use transform="matrix(0.010850694444444444,0,0,0.010850694444444444,53.515625,0)" xlink:href="#ad"/><use transform="matrix(0.010850694444444444,0,0,0.010850694444444444,66.89453125,0)" xlink:href="#ae"/><use transform="matrix(0.010850694444444444,0,0,0.010850694444444444,80.2734375,0)" xlink:href="#af"/><use transform="matrix(0.010850694444444444,0,0,0.010850694444444444,93.65234375,0)" xlink:href="#ag"/></g></defs></g></svg>