<svg xmlns="http://www.w3.org/2000/svg" xmlns:xlink="http://www.w3.org/1999/xlink" xmlns:lucid="lucid" width="341" height="337"><g transform="translate(-486.8333333333335 -196)" lucid:page-tab-id="0_0"><path d="M500 0h500v1000H500z" fill="#fff"/><path d="M507.33 222.5a6 6 0 0 1 6-6h288a6 6 0 0 1 6 6v284a6 6 0 0 1-6 6h-288a6 6 0 0 1-6-6z" stroke="#3a414a" fill="#fff"/><path d="M507.33 258.37h300" stroke="#3a414a" fill="none"/><use xlink:href="#a" transform="matrix(1,0,0,1,515.3333333333335,224.5) translate(95.173828125 20.69314236111111)"/><use xlink:href="#b" transform="matrix(1,0,0,1,519.3333333333335,266.36805555555554) translate(4.421657986111111 101.32508680555554)"/><use xlink:href="#c" transform="matrix(1,0,0,1,519.3333333333335,266.36805555555554) translate(22.22222222222222 101.32508680555554)"/><use xlink:href="#b" transform="matrix(1,0,0,1,519.3333333333335,266.36805555555554) translate(4.421657986111111 127.1931423611111)"/><use xlink:href="#d" transform="matrix(1,0,0,1,519.3333333333335,266.36805555555554) translate(22.22222222222222 127.1931423611111)"/><use xlink:href="#b" transform="matrix(1,0,0,1,519.3333333333335,266.36805555555554) translate(4.421657986111111 153.06119791666666)"/><use xlink:href="#e" transform="matrix(1,0,0,1,519.3333333333335,266.36805555555554) translate(22.22222222222222 153.06119791666666)"/><defs><path d="M616-1223L477-612h279zm-180-270h361L1200 0H905l-92-369H418L328 0H33" id="f"/><path d="M778 0C477-5 387-150 387-467v-864H90v-225h590v1089c3 161 32 242 180 242h234V0H778" id="g"/><path d="M698-203c169-2 281-50 404-121v269C974-3 842 28 670 29 296 31 92-181 92-555c0-348 195-592 533-592s528 218 524 563v119H390c3 185 114 264 308 262zm156-482c-2-151-77-235-229-235-144 1-220 97-232 236" id="h"/><path d="M924-1147c90 1 165 23 227 57v279c-80-87-287-118-417-55-120 58-150 157-150 350V0H291v-1120h293v174c52-120 173-201 340-201" id="i"/><path d="M596-246c145 0 207-164 207-332s-62-331-207-331c-144 0-205 163-205 331 0 169 60 332 205 332zm-82-903c141 0 238 73 289 172v-143h293V-84c-3 364-151 508-516 508-138 0-252-21-365-55V100c99 55 205 90 346 90 166 0 241-75 242-241v-121C749-72 662-14 516-14 235-14 98-265 98-571c0-177 38-318 113-422s176-156 303-156" id="j"/><path d="M750-1147c234 0 322 167 321 420V0H780v-682c-2-141-23-227-147-227-123 0-170 126-170 268V0H172v-1120h291v168c37-116 138-195 287-195" id="k"/><g id="a"><use transform="matrix(0.010850694444444444,0,0,0.010850694444444444,0,0)" xlink:href="#f"/><use transform="matrix(0.010850694444444444,0,0,0.010850694444444444,13.37890625,0)" xlink:href="#g"/><use transform="matrix(0.010850694444444444,0,0,0.010850694444444444,26.7578125,0)" xlink:href="#h"/><use transform="matrix(0.010850694444444444,0,0,0.010850694444444444,40.13671875,0)" xlink:href="#i"/><use transform="matrix(0.010850694444444444,0,0,0.010850694444444444,53.515625,0)" xlink:href="#j"/><use transform="matrix(0.010850694444444444,0,0,0.010850694444444444,66.89453125,0)" xlink:href="#h"/><use transform="matrix(0.010850694444444444,0,0,0.010850694444444444,80.2734375,0)" xlink:href="#k"/></g><path d="M356-643h521v164H356v-164" id="l"/><use transform="matrix(0.010850694444444444,0,0,0.010850694444444444,0,0)" xlink:href="#l" id="b"/><path d="M256-1120h471v977h365V0H178v-143h365v-834H256v-143zm287-436h184v233H543v-233" id="m"/><path d="M559-1147c146 0 246 68 299 170v-579h184V0H858v-141C803-40 706 29 559 29c-300 0-436-264-436-592 0-325 139-584 436-584zM385-882c-81 129-87 521 0 646 49 70 112 109 201 109s152-39 202-110c89-127 83-514 0-645-88-139-315-140-403 0" id="n"/><g id="c"><use transform="matrix(0.010850694444444444,0,0,0.010850694444444444,0,0)" xlink:href="#m"/><use transform="matrix(0.010850694444444444,0,0,0.010850694444444444,13.37890625,0)" xlink:href="#n"/></g><path d="M711-1147c253 0 340 178 340 453V0H866v-694c-1-183-51-293-219-293-189 0-268 148-268 354V0H195v-1120h184v168c60-118 165-195 332-195" id="o"/><path d="M547-125c229-2 340-186 327-438H641c-189 0-321 55-324 225-3 137 91 215 230 213zm-332-944c167-71 431-115 615-37 106 45 186 120 213 246 11 49 16 123 16 221V0H874v-166C800-42 695 26 508 29c-220 3-378-138-375-355 4-274 199-382 494-381h247c6-204-80-285-282-284-149 1-272 46-377 106v-184zm541-569h198l-325 376H475" id="p"/><path d="M227-1122h813v168L397-150h643V0H203v-170l643-805H227v-147" id="q"/><path d="M651-1147c298 0 466 229 461 541v90H315c-4 242 129 392 365 389 156-2 268-51 389-113v183C949-8 828 27 678 29c-351 3-555-232-555-588 0-338 200-588 528-588zm277 487c-4-201-91-331-285-331-193 0-305 144-321 332" id="r"/><path d="M100-1120h191l325 940 326-940h191L735 0H498" id="s"/><g id="d"><use transform="matrix(0.010850694444444444,0,0,0.010850694444444444,0,0)" xlink:href="#o"/><use transform="matrix(0.010850694444444444,0,0,0.010850694444444444,13.37890625,0)" xlink:href="#p"/><use transform="matrix(0.010850694444444444,0,0,0.010850694444444444,26.7578125,0)" xlink:href="#q"/><use transform="matrix(0.010850694444444444,0,0,0.010850694444444444,40.13671875,0)" xlink:href="#r"/><use transform="matrix(0.010850694444444444,0,0,0.010850694444444444,53.515625,0)" xlink:href="#s"/></g><path d="M748-127c144 0 233-46 313-121v191C974-6 875 28 748 29c-351 3-553-232-553-588 0-357 202-591 553-588 129 2 222 35 313 86v193c-88-76-165-123-313-123-245 0-359 174-359 432 0 257 115 432 359 432zM633-1262l-246-376h139l180 245 181-245h139l-246 376H633" id="t"/><path d="M256-1120h471v977h365V0H178v-143h365v-834H256v-143zm500-518h198l-325 376H475" id="u"/><path d="M637-1147c132 1 237 25 336 66v180c-92-53-190-92-322-92-145 0-248 35-248 164 0 50 15 87 46 112 23 30 197 67 303 86 166 30 278 123 278 307 0 239-191 356-446 353-140-2-251-31-371-70v-190c114 58 228 103 375 106 145 3 253-56 256-188 3-87-90-149-253-179-210-38-374-93-374-319 0-232 173-338 420-336" id="v"/><path d="M801 0C570 0 455-164 455-406v-1017H160v-144h479v1161c0 147 46 250 180 250h215V0H801" id="w"/><path d="M616-991c-93 0-161 39-212 109-92 126-92 520 0 646 52 70 119 109 212 109 94 0 161-39 213-109 93-126 92-520 0-646-52-70-119-109-213-109zM137-559c0-353 146-588 479-588s480 235 480 588c0 355-145 588-480 588-334 0-479-234-479-588" id="x"/><g id="e"><use transform="matrix(0.010850694444444444,0,0,0.010850694444444444,0,0)" xlink:href="#t"/><use transform="matrix(0.010850694444444444,0,0,0.010850694444444444,13.37890625,0)" xlink:href="#u"/><use transform="matrix(0.010850694444444444,0,0,0.010850694444444444,26.7578125,0)" xlink:href="#v"/><use transform="matrix(0.010850694444444444,0,0,0.010850694444444444,40.13671875,0)" xlink:href="#w"/><use transform="matrix(0.010850694444444444,0,0,0.010850694444444444,53.515625,0)" xlink:href="#x"/></g></defs></g></svg>